{"glyphs":{"0":{"ha":838,"x_min":26,"x_max":817,"o":"m 58 521 q 141 770 89 668 q 257 936 193 873 q 392 1027 322 999 q 531 1056 463 1056 q 669 1027 608 1056 q 767 936 730 999 q 810 770 804 873 q 785 521 817 668 q 669 207 743 324 q 504 38 595 90 q 319 -14 413 -14 q 191 15 252 -14 q 89 106 131 43 q 37 271 48 169 q 58 521 26 374 m 230 521 q 196 255 194 355 q 230 110 197 155 q 318 66 262 66 q 432 110 378 66 q 532 255 485 155 q 613 521 578 355 q 649 787 649 687 q 617 931 649 887 q 525 976 585 976 q 414 931 469 976 q 313 787 360 887 q 230 521 266 687 "},"1":{"ha":744,"x_min":-25,"x_max":590,"o":"m -25 29 l -25 64 q -18 83 -25 80 q 4 86 -12 86 l 183 86 q 210 92 203 86 q 220 117 217 99 l 370 805 q 366 831 370 824 q 343 838 361 838 l 201 838 q 178 841 185 838 q 170 862 170 844 l 170 891 q 177 917 170 911 q 203 924 183 924 q 321 933 270 924 q 413 972 372 941 q 491 1068 453 1002 q 505 1088 497 1079 q 531 1097 512 1097 l 553 1097 q 575 1094 568 1097 q 579 1077 582 1091 l 372 123 q 376 92 367 99 q 410 86 385 86 l 558 86 q 581 83 573 86 q 590 65 590 80 l 590 30 q 586 6 590 12 q 565 0 582 0 l 2 0 q -20 6 -15 0 q -25 29 -25 11 "},"2":{"ha":819,"x_min":-43,"x_max":828,"o":"m 709 244 q 675 93 711 150 q 580 11 638 37 q 458 -14 522 -14 q 356 -1 401 -14 q 272 28 310 11 q 198 57 233 44 q 124 69 162 69 q 75 56 93 69 q 47 22 57 43 q 38 6 42 12 q 17 0 33 0 l -25 0 q -40 5 -37 0 q -43 22 -43 10 q -8 157 -41 92 q 81 280 26 222 q 207 391 137 338 q 353 490 277 443 q 446 552 394 515 q 545 635 498 589 q 624 735 592 682 q 655 845 655 788 q 608 956 655 924 q 479 988 561 988 q 378 973 426 988 q 300 935 330 957 q 269 894 269 913 q 280 875 269 883 q 305 856 291 866 q 330 830 319 846 q 341 787 341 815 q 311 721 341 744 q 249 698 282 698 q 199 709 223 698 q 161 743 176 721 q 147 799 147 766 q 174 897 147 851 q 250 978 201 942 q 365 1035 299 1015 q 510 1056 431 1056 q 675 1034 603 1056 q 788 963 747 1012 q 828 833 828 914 q 804 734 828 781 q 737 642 779 686 q 640 559 694 599 q 526 486 586 520 q 406 422 465 451 q 273 343 339 390 q 154 250 207 297 q 73 165 101 202 q 56 140 63 152 q 47 118 49 127 q 51 109 45 110 q 63 116 58 109 q 72 133 67 122 q 90 154 78 143 q 161 192 114 178 q 248 206 208 206 q 319 197 288 206 q 380 176 351 188 q 440 155 408 164 q 510 145 471 145 q 600 172 571 145 q 633 245 629 198 q 637 262 635 258 q 655 265 640 265 l 690 265 q 706 261 703 265 q 709 244 709 258 "},"3":{"ha":753,"x_min":-44,"x_max":746,"o":"m -44 212 q -12 289 -44 265 q 56 314 19 314 q 117 292 90 314 q 144 228 144 269 q 136 195 144 208 q 118 173 128 182 q 101 155 108 164 q 93 135 93 147 q 113 97 93 116 q 170 66 133 78 q 262 54 208 54 q 389 93 335 54 q 473 192 442 132 q 503 315 503 251 q 489 398 503 361 q 439 459 475 434 q 337 493 403 483 q 308 495 322 496 q 287 499 295 494 q 278 524 278 504 l 278 547 q 286 572 278 567 q 308 577 294 577 q 336 578 322 576 q 476 633 420 590 q 559 736 531 676 q 586 858 586 796 q 536 954 586 919 q 411 988 487 988 q 316 964 349 988 q 283 912 283 939 q 291 892 283 900 q 309 874 299 883 q 326 852 319 865 q 334 818 334 840 q 307 756 334 779 q 247 733 280 733 q 201 743 224 733 q 162 775 178 753 q 147 833 147 797 q 180 942 147 892 q 281 1024 214 993 q 447 1056 347 1056 q 600 1032 533 1056 q 707 961 668 1009 q 746 842 746 914 q 715 712 746 763 q 633 626 685 660 q 519 564 582 592 q 472 547 483 547 q 460 535 460 547 q 477 526 460 527 q 516 517 493 525 q 598 472 565 499 q 645 406 630 445 q 661 313 661 367 q 632 182 661 242 q 551 78 603 122 q 428 10 499 34 q 275 -14 358 -14 q 98 18 169 -14 q -9 102 26 51 q -44 212 -44 153 "},"4":{"ha":772,"x_min":13,"x_max":757,"o":"m 636 66 l 636 19 q 632 3 636 6 q 614 0 627 0 l 264 0 q 244 4 249 0 q 239 24 239 8 l 239 62 q 243 81 239 76 q 261 86 247 86 l 364 86 q 383 90 376 86 q 392 106 390 94 l 430 287 q 428 309 434 304 q 403 315 422 315 l 76 315 q 55 317 60 315 q 41 328 49 320 l 22 349 q 14 365 13 359 q 21 385 15 372 q 93 492 46 442 q 199 586 140 541 q 321 677 258 632 q 440 772 383 723 q 540 879 497 822 q 600 1005 582 936 q 606 1032 604 1022 q 631 1042 608 1042 l 722 1042 q 751 1037 744 1042 q 753 1012 757 1032 q 703 882 744 941 q 604 772 663 822 q 477 677 544 721 q 345 592 409 633 q 230 514 281 552 q 153 436 178 476 q 145 418 147 426 q 153 405 144 410 q 183 401 163 401 l 438 401 q 454 405 451 401 q 460 420 457 409 l 476 499 q 485 520 481 516 q 499 532 489 524 q 538 560 516 544 q 579 599 559 576 q 610 651 599 621 q 617 667 613 661 q 634 674 620 674 l 644 674 q 661 669 658 674 q 660 652 663 665 l 612 433 q 615 407 608 414 q 642 401 622 401 l 707 401 q 725 396 721 401 q 728 376 728 391 l 728 338 q 724 319 728 323 q 703 315 719 315 l 614 315 q 591 308 597 315 q 581 287 585 302 l 543 113 q 544 91 540 97 q 565 86 547 86 l 611 86 q 631 83 626 86 q 636 66 636 81 "},"5":{"ha":742,"x_min":-31,"x_max":772,"o":"m -31 197 q 1 275 -31 251 q 68 299 33 299 q 129 276 102 299 q 156 213 156 253 q 145 172 156 187 q 122 147 133 158 q 111 119 111 135 q 148 72 111 92 q 240 52 185 52 q 339 83 290 52 q 428 167 388 113 q 492 289 468 220 q 516 435 516 358 q 467 579 516 540 q 344 617 419 617 q 256 599 297 617 q 181 543 215 581 q 165 528 172 534 q 138 523 158 523 l 106 523 q 83 531 86 523 q 84 556 79 540 l 244 1015 q 257 1036 249 1031 q 282 1042 264 1042 l 449 1042 q 569 1038 526 1042 q 638 1039 613 1035 q 685 1067 663 1044 q 695 1080 690 1073 q 713 1086 699 1086 l 758 1086 q 769 1075 772 1086 l 761 1042 q 733 971 752 999 q 671 927 713 943 q 553 904 629 910 q 353 897 477 897 l 306 897 q 285 893 290 897 q 274 874 280 888 l 198 667 q 184 631 190 645 q 183 614 178 616 q 201 621 190 610 q 231 645 213 631 q 310 681 262 667 q 417 694 358 694 q 551 666 492 694 q 645 580 611 637 q 679 440 679 524 q 643 255 679 339 q 545 111 606 172 q 408 19 483 51 q 256 -14 333 -14 q 104 14 168 -14 q 5 90 40 42 q -31 197 -31 138 "},"6":{"ha":786,"x_min":37,"x_max":760,"o":"m 622 954 q 608 979 622 968 q 556 990 595 990 q 423 942 481 990 q 322 805 365 893 q 247 598 279 717 q 240 572 242 580 q 240 563 238 565 q 249 567 244 560 q 265 583 253 573 q 366 644 308 622 q 492 667 424 667 q 627 630 569 667 q 707 518 684 592 q 706 329 731 443 q 625 140 682 216 q 491 25 568 63 q 327 -14 414 -14 q 181 13 243 -14 q 82 101 118 40 q 42 264 47 163 q 69 514 37 365 q 144 739 96 639 q 258 910 193 839 q 401 1018 323 981 q 565 1056 479 1056 q 710 1008 659 1056 q 760 897 760 960 q 730 810 760 838 q 663 783 699 783 q 597 805 624 783 q 570 867 570 826 q 583 909 570 894 q 609 934 597 924 q 622 954 622 944 m 547 326 q 542 514 572 442 q 433 585 513 585 q 329 557 378 585 q 245 482 280 528 q 198 379 210 435 q 195 149 167 235 q 321 63 223 63 q 425 98 379 63 q 501 193 470 133 q 547 326 532 253 "},"7":{"ha":743,"x_min":115,"x_max":838,"o":"m 117 790 q 169 947 133 889 q 258 1030 206 1005 q 372 1056 310 1056 q 459 1043 423 1056 q 525 1014 495 1031 q 588 985 556 997 q 664 972 621 972 q 721 988 702 972 q 751 1028 740 1003 q 757 1039 754 1036 q 769 1042 759 1042 l 824 1042 q 837 1037 836 1042 q 837 1020 838 1033 q 806 942 832 989 q 740 840 780 895 q 655 726 701 784 q 563 614 608 668 q 480 515 517 559 q 364 370 402 424 q 325 272 325 317 q 335 225 325 244 q 358 190 345 207 q 382 151 372 174 q 392 90 392 128 q 380 39 392 63 q 343 1 367 15 q 286 -14 319 -14 q 206 24 241 -14 q 171 136 171 63 q 202 263 171 198 q 285 396 234 328 q 393 534 335 464 q 457 609 420 567 q 532 695 494 651 q 604 781 570 740 q 657 856 638 823 q 670 877 665 867 q 672 890 675 886 q 661 885 668 893 q 642 873 654 878 q 610 863 628 867 q 569 860 592 860 q 489 867 520 860 q 433 883 457 874 q 384 900 410 892 q 321 907 358 907 q 233 879 260 907 q 190 792 206 851 q 188 780 188 784 q 178 776 187 776 l 133 776 q 117 790 115 776 "},"8":{"ha":758,"x_min":-15,"x_max":752,"o":"m 162 294 q 156 180 149 234 q 194 92 163 126 q 283 58 224 58 q 384 92 340 58 q 459 180 429 126 q 503 294 490 234 q 508 406 515 352 q 471 495 501 460 q 383 530 441 530 q 280 495 326 530 q 205 406 235 460 q 162 294 174 352 m 145 792 q 210 928 162 868 q 329 1022 259 988 q 481 1056 399 1056 q 632 1022 569 1056 q 724 928 695 988 q 735 792 752 868 q 667 658 718 713 q 542 576 616 603 q 523 569 531 572 q 514 563 515 567 q 519 557 513 560 q 535 550 524 554 q 648 451 613 519 q 663 292 683 384 q 593 138 644 208 q 463 27 542 69 q 283 -14 384 -14 q 117 27 187 -14 q 17 138 48 69 q 3 292 -15 208 q 85 448 23 383 q 238 545 147 513 q 260 553 249 549 q 272 562 271 556 q 265 569 273 567 q 242 578 256 572 q 156 660 183 607 q 145 792 128 713 m 303 788 q 298 693 292 737 q 329 622 304 649 q 398 595 354 595 q 479 622 443 595 q 540 693 515 649 q 575 788 565 737 q 580 884 586 840 q 550 956 574 928 q 482 983 526 983 q 401 956 438 983 q 339 884 364 928 q 303 788 314 840 "},"9":{"ha":786,"x_min":33,"x_max":756,"o":"m 172 88 q 185 63 172 74 q 237 51 198 51 q 370 100 312 51 q 471 237 428 149 q 546 444 514 326 q 553 469 551 462 q 553 479 556 477 q 544 475 549 481 q 528 459 540 469 q 427 398 485 421 q 301 375 369 375 q 166 412 224 375 q 86 524 109 449 q 87 713 63 599 q 168 902 111 826 q 302 1017 225 978 q 466 1056 379 1056 q 613 1028 550 1056 q 711 940 675 1001 q 751 778 747 879 q 724 528 756 676 q 649 303 697 403 q 535 132 600 203 q 392 24 470 61 q 228 -14 314 -14 q 83 34 134 -14 q 33 145 33 83 q 64 231 33 204 q 130 258 94 258 q 196 237 169 258 q 223 174 223 215 q 210 133 223 148 q 184 108 197 117 q 172 88 172 99 m 246 715 q 251 528 221 599 q 360 457 281 457 q 464 485 415 457 q 548 560 513 513 q 595 663 583 607 q 598 893 626 808 q 472 979 571 979 q 369 944 414 979 q 292 849 324 909 q 246 715 261 789 "}," ":{"ha":417,"x_min":0,"x_max":0,"o":""}," ":{"ha":417,"x_min":0,"x_max":0,"o":""}," ":{"ha":694,"x_min":0,"x_max":0,"o":""}," ":{"ha":1389,"x_min":0,"x_max":0,"o":""}," ":{"ha":694,"x_min":0,"x_max":0,"o":""}," ":{"ha":1389,"x_min":0,"x_max":0,"o":""}," ":{"ha":463,"x_min":0,"x_max":0,"o":""}," ":{"ha":347,"x_min":0,"x_max":0,"o":""}," ":{"ha":231,"x_min":0,"x_max":0,"o":""}," ":{"ha":806,"x_min":0,"x_max":0,"o":""}," ":{"ha":277,"x_min":0,"x_max":0,"o":""}," ":{"ha":231,"x_min":0,"x_max":0,"o":""}," ":{"ha":139,"x_min":0,"x_max":0,"o":""},"A":{"ha":1272,"x_min":-72,"x_max":1149,"o":"m 656 818 l 410 428 q 393 402 399 411 q 422 394 388 394 l 740 394 q 770 398 767 394 q 770 426 774 403 l 709 820 q 702 860 704 847 q 693 872 701 872 q 678 856 687 872 q 656 818 669 840 m -72 24 l -72 66 q -68 86 -72 81 q -49 92 -65 92 l 57 92 q 81 98 76 92 q 92 115 85 104 l 685 1041 q 699 1057 692 1052 q 724 1063 705 1063 l 789 1063 q 811 1060 804 1063 q 822 1052 819 1058 q 827 1033 825 1045 l 993 125 q 1005 97 997 101 q 1042 92 1013 92 l 1124 92 q 1144 87 1140 92 q 1149 67 1149 83 l 1149 25 q 1143 5 1149 9 q 1122 0 1138 0 l 697 0 q 680 5 683 0 q 676 24 676 10 l 676 67 q 682 88 676 84 q 705 92 688 92 l 789 92 q 817 96 812 92 q 818 119 822 101 l 793 282 q 781 302 790 301 q 751 303 772 303 l 365 303 q 336 301 346 303 q 320 288 327 299 l 212 116 q 206 98 204 104 q 232 92 208 92 l 308 92 q 327 88 322 92 q 333 70 333 84 l 333 28 q 328 5 333 10 q 304 0 324 0 l -50 0 q -69 4 -67 0 q -72 24 -72 8 "},"À":{"ha":1272,"x_min":-72,"x_max":1149,"o":"m 617 1347 q 649 1372 629 1365 q 689 1376 668 1380 q 724 1357 710 1372 l 863 1216 q 863 1191 875 1203 l 832 1158 q 823 1151 826 1152 q 811 1154 819 1149 l 638 1254 q 606 1292 614 1267 q 617 1347 599 1317 m 656 818 l 410 428 q 393 402 399 411 q 422 394 388 394 l 740 394 q 770 398 767 394 q 770 426 774 403 l 709 820 q 702 860 704 847 q 693 872 701 872 q 678 856 687 872 q 656 818 669 840 m -72 24 l -72 66 q -68 86 -72 81 q -49 92 -65 92 l 57 92 q 81 98 76 92 q 92 115 85 104 l 685 1041 q 699 1057 692 1052 q 724 1063 705 1063 l 789 1063 q 811 1060 804 1063 q 822 1052 819 1058 q 827 1033 825 1045 l 993 125 q 1005 97 997 101 q 1042 92 1013 92 l 1124 92 q 1144 87 1140 92 q 1149 67 1149 83 l 1149 25 q 1143 5 1149 9 q 1122 0 1138 0 l 697 0 q 680 5 683 0 q 676 24 676 10 l 676 67 q 682 88 676 84 q 705 92 688 92 l 789 92 q 817 96 812 92 q 818 119 822 101 l 793 282 q 781 302 790 301 q 751 303 772 303 l 365 303 q 336 301 346 303 q 320 288 327 299 l 212 116 q 206 98 204 104 q 232 92 208 92 l 308 92 q 327 88 322 92 q 333 70 333 84 l 333 28 q 328 5 333 10 q 304 0 324 0 l -50 0 q -69 4 -67 0 q -72 24 -72 8 "},"Á":{"ha":1272,"x_min":-72,"x_max":1149,"o":"m 972 1347 q 982 1292 990 1317 q 951 1254 974 1267 l 783 1157 q 769 1151 774 1151 q 756 1160 764 1151 l 725 1192 q 725 1215 714 1204 l 865 1357 q 900 1376 880 1373 q 941 1372 921 1380 q 972 1347 960 1365 m 656 818 l 410 428 q 393 402 399 411 q 422 394 388 394 l 740 394 q 770 398 767 394 q 770 426 774 403 l 709 820 q 702 860 704 847 q 693 872 701 872 q 678 856 687 872 q 656 818 669 840 m -72 24 l -72 66 q -68 86 -72 81 q -49 92 -65 92 l 57 92 q 81 98 76 92 q 92 115 85 104 l 685 1041 q 699 1057 692 1052 q 724 1063 705 1063 l 789 1063 q 811 1060 804 1063 q 822 1052 819 1058 q 827 1033 825 1045 l 993 125 q 1005 97 997 101 q 1042 92 1013 92 l 1124 92 q 1144 87 1140 92 q 1149 67 1149 83 l 1149 25 q 1143 5 1149 9 q 1122 0 1138 0 l 697 0 q 680 5 683 0 q 676 24 676 10 l 676 67 q 682 88 676 84 q 705 92 688 92 l 789 92 q 817 96 812 92 q 818 119 822 101 l 793 282 q 781 302 790 301 q 751 303 772 303 l 365 303 q 336 301 346 303 q 320 288 327 299 l 212 116 q 206 98 204 104 q 232 92 208 92 l 308 92 q 327 88 322 92 q 333 70 333 84 l 333 28 q 328 5 333 10 q 304 0 324 0 l -50 0 q -69 4 -67 0 q -72 24 -72 8 "},"Â":{"ha":1272,"x_min":-72,"x_max":1149,"o":"m 607 1169 l 591 1190 q 585 1200 584 1197 q 595 1211 586 1203 l 756 1349 q 772 1358 765 1356 q 794 1360 779 1360 l 863 1360 q 883 1358 877 1360 q 893 1349 888 1355 l 996 1209 q 999 1201 999 1204 q 992 1193 999 1199 l 968 1172 q 956 1164 959 1163 q 946 1171 953 1165 l 838 1266 q 803 1267 823 1279 l 631 1165 q 617 1160 622 1159 q 607 1169 613 1162 m 656 818 l 410 428 q 393 402 399 411 q 422 394 388 394 l 740 394 q 770 398 767 394 q 770 426 774 403 l 709 820 q 702 860 704 847 q 693 872 701 872 q 678 856 687 872 q 656 818 669 840 m -72 24 l -72 66 q -68 86 -72 81 q -49 92 -65 92 l 57 92 q 81 98 76 92 q 92 115 85 104 l 685 1041 q 699 1057 692 1052 q 724 1063 705 1063 l 789 1063 q 811 1060 804 1063 q 822 1052 819 1058 q 827 1033 825 1045 l 993 125 q 1005 97 997 101 q 1042 92 1013 92 l 1124 92 q 1144 87 1140 92 q 1149 67 1149 83 l 1149 25 q 1143 5 1149 9 q 1122 0 1138 0 l 697 0 q 680 5 683 0 q 676 24 676 10 l 676 67 q 682 88 676 84 q 705 92 688 92 l 789 92 q 817 96 812 92 q 818 119 822 101 l 793 282 q 781 302 790 301 q 751 303 772 303 l 365 303 q 336 301 346 303 q 320 288 327 299 l 212 116 q 206 98 204 104 q 232 92 208 92 l 308 92 q 327 88 322 92 q 333 70 333 84 l 333 28 q 328 5 333 10 q 304 0 324 0 l -50 0 q -69 4 -67 0 q -72 24 -72 8 "},"Ã":{"ha":1272,"x_min":-72,"x_max":1149,"o":"m 903 1162 q 824 1178 851 1162 q 779 1216 797 1195 q 747 1250 765 1233 q 694 1267 728 1267 q 646 1247 667 1267 q 615 1190 625 1227 q 598 1181 610 1181 l 561 1181 q 549 1186 549 1181 q 551 1201 549 1191 q 588 1282 565 1246 q 645 1340 610 1319 q 729 1362 681 1362 q 809 1345 782 1362 q 851 1308 835 1329 q 881 1274 865 1291 q 927 1256 897 1256 q 973 1275 953 1256 q 1003 1328 992 1293 q 1010 1340 1006 1336 q 1023 1343 1013 1343 l 1061 1343 q 1072 1340 1071 1343 q 1071 1328 1073 1336 q 1036 1239 1058 1276 q 981 1182 1014 1201 q 903 1162 949 1162 m 656 818 l 410 428 q 393 402 399 411 q 422 394 388 394 l 740 394 q 770 398 767 394 q 770 426 774 403 l 709 820 q 702 860 704 847 q 693 872 701 872 q 678 856 687 872 q 656 818 669 840 m -72 24 l -72 66 q -68 86 -72 81 q -49 92 -65 92 l 57 92 q 81 98 76 92 q 92 115 85 104 l 685 1041 q 699 1057 692 1052 q 724 1063 705 1063 l 789 1063 q 811 1060 804 1063 q 822 1052 819 1058 q 827 1033 825 1045 l 993 125 q 1005 97 997 101 q 1042 92 1013 92 l 1124 92 q 1144 87 1140 92 q 1149 67 1149 83 l 1149 25 q 1143 5 1149 9 q 1122 0 1138 0 l 697 0 q 680 5 683 0 q 676 24 676 10 l 676 67 q 682 88 676 84 q 705 92 688 92 l 789 92 q 817 96 812 92 q 818 119 822 101 l 793 282 q 781 302 790 301 q 751 303 772 303 l 365 303 q 336 301 346 303 q 320 288 327 299 l 212 116 q 206 98 204 104 q 232 92 208 92 l 308 92 q 327 88 322 92 q 333 70 333 84 l 333 28 q 328 5 333 10 q 304 0 324 0 l -50 0 q -69 4 -67 0 q -72 24 -72 8 "},"Ä":{"ha":1272,"x_min":-72,"x_max":1149,"o":"m 921 1174 q 867 1196 890 1174 q 845 1250 845 1218 q 867 1304 845 1281 q 921 1326 890 1326 q 975 1304 953 1326 q 997 1250 997 1281 q 975 1196 997 1218 q 921 1174 953 1174 m 676 1174 q 622 1196 644 1174 q 599 1250 599 1218 q 622 1304 599 1281 q 676 1326 644 1326 q 729 1304 707 1326 q 751 1250 751 1281 q 729 1196 751 1218 q 676 1174 707 1174 m 656 818 l 410 428 q 393 402 399 411 q 422 394 388 394 l 740 394 q 770 398 767 394 q 770 426 774 403 l 709 820 q 702 860 704 847 q 693 872 701 872 q 678 856 687 872 q 656 818 669 840 m -72 24 l -72 66 q -68 86 -72 81 q -49 92 -65 92 l 57 92 q 81 98 76 92 q 92 115 85 104 l 685 1041 q 699 1057 692 1052 q 724 1063 705 1063 l 789 1063 q 811 1060 804 1063 q 822 1052 819 1058 q 827 1033 825 1045 l 993 125 q 1005 97 997 101 q 1042 92 1013 92 l 1124 92 q 1144 87 1140 92 q 1149 67 1149 83 l 1149 25 q 1143 5 1149 9 q 1122 0 1138 0 l 697 0 q 680 5 683 0 q 676 24 676 10 l 676 67 q 682 88 676 84 q 705 92 688 92 l 789 92 q 817 96 812 92 q 818 119 822 101 l 793 282 q 781 302 790 301 q 751 303 772 303 l 365 303 q 336 301 346 303 q 320 288 327 299 l 212 116 q 206 98 204 104 q 232 92 208 92 l 308 92 q 327 88 322 92 q 333 70 333 84 l 333 28 q 328 5 333 10 q 304 0 324 0 l -50 0 q -69 4 -67 0 q -72 24 -72 8 "},"Å":{"ha":1272,"x_min":-72,"x_max":1149,"o":"m 796 1223 q 850 1243 826 1223 q 880 1294 873 1263 q 872 1347 887 1326 q 827 1368 858 1368 q 773 1347 797 1368 q 742 1294 749 1326 q 751 1243 736 1263 q 796 1223 765 1223 m 785 1163 q 697 1201 726 1163 q 680 1294 668 1239 q 711 1361 688 1331 q 768 1409 735 1391 q 838 1426 801 1426 q 926 1388 897 1426 q 942 1294 955 1349 q 911 1228 935 1258 q 855 1180 888 1198 q 785 1163 822 1163 m 656 818 l 410 428 q 393 402 399 411 q 422 394 388 394 l 740 394 q 770 398 767 394 q 770 426 774 403 l 709 820 q 702 860 704 847 q 693 872 701 872 q 678 856 687 872 q 656 818 669 840 m -72 24 l -72 66 q -68 86 -72 81 q -49 92 -65 92 l 57 92 q 81 98 76 92 q 92 115 85 104 l 685 1041 q 699 1057 692 1052 q 724 1063 705 1063 l 789 1063 q 811 1060 804 1063 q 822 1052 819 1058 q 827 1033 825 1045 l 993 125 q 1005 97 997 101 q 1042 92 1013 92 l 1124 92 q 1144 87 1140 92 q 1149 67 1149 83 l 1149 25 q 1143 5 1149 9 q 1122 0 1138 0 l 697 0 q 680 5 683 0 q 676 24 676 10 l 676 67 q 682 88 676 84 q 705 92 688 92 l 789 92 q 817 96 812 92 q 818 119 822 101 l 793 282 q 781 302 790 301 q 751 303 772 303 l 365 303 q 336 301 346 303 q 320 288 327 299 l 212 116 q 206 98 204 104 q 232 92 208 92 l 308 92 q 327 88 322 92 q 333 70 333 84 l 333 28 q 328 5 333 10 q 304 0 324 0 l -50 0 q -69 4 -67 0 q -72 24 -72 8 "},"Ā":{"ha":1272,"x_min":-72,"x_max":1149,"o":"m 626 1184 l 626 1217 q 628 1231 626 1226 q 640 1235 631 1235 l 935 1235 q 954 1232 949 1235 q 959 1214 959 1228 l 959 1183 q 957 1167 959 1172 q 944 1162 955 1162 l 650 1162 q 631 1166 637 1162 q 626 1184 626 1169 m 656 818 l 410 428 q 393 402 399 411 q 422 394 388 394 l 740 394 q 770 398 767 394 q 770 426 774 403 l 709 820 q 702 860 704 847 q 693 872 701 872 q 678 856 687 872 q 656 818 669 840 m -72 24 l -72 66 q -68 86 -72 81 q -49 92 -65 92 l 57 92 q 81 98 76 92 q 92 115 85 104 l 685 1041 q 699 1057 692 1052 q 724 1063 705 1063 l 789 1063 q 811 1060 804 1063 q 822 1052 819 1058 q 827 1033 825 1045 l 993 125 q 1005 97 997 101 q 1042 92 1013 92 l 1124 92 q 1144 87 1140 92 q 1149 67 1149 83 l 1149 25 q 1143 5 1149 9 q 1122 0 1138 0 l 697 0 q 680 5 683 0 q 676 24 676 10 l 676 67 q 682 88 676 84 q 705 92 688 92 l 789 92 q 817 96 812 92 q 818 119 822 101 l 793 282 q 781 302 790 301 q 751 303 772 303 l 365 303 q 336 301 346 303 q 320 288 327 299 l 212 116 q 206 98 204 104 q 232 92 208 92 l 308 92 q 327 88 322 92 q 333 70 333 84 l 333 28 q 328 5 333 10 q 304 0 324 0 l -50 0 q -69 4 -67 0 q -72 24 -72 8 "},"Ă":{"ha":1272,"x_min":-72,"x_max":1149,"o":"m 798 1161 q 698 1183 731 1161 q 657 1244 665 1204 q 661 1337 650 1283 q 680 1350 664 1350 l 699 1350 q 710 1339 711 1350 q 728 1274 704 1296 q 802 1252 751 1252 q 884 1272 850 1252 q 932 1330 917 1291 q 937 1345 935 1340 q 951 1350 938 1350 l 978 1350 q 991 1347 990 1350 q 989 1333 992 1344 q 924 1208 969 1255 q 798 1161 879 1161 m 656 818 l 410 428 q 393 402 399 411 q 422 394 388 394 l 740 394 q 770 398 767 394 q 770 426 774 403 l 709 820 q 702 860 704 847 q 693 872 701 872 q 678 856 687 872 q 656 818 669 840 m -72 24 l -72 66 q -68 86 -72 81 q -49 92 -65 92 l 57 92 q 81 98 76 92 q 92 115 85 104 l 685 1041 q 699 1057 692 1052 q 724 1063 705 1063 l 789 1063 q 811 1060 804 1063 q 822 1052 819 1058 q 827 1033 825 1045 l 993 125 q 1005 97 997 101 q 1042 92 1013 92 l 1124 92 q 1144 87 1140 92 q 1149 67 1149 83 l 1149 25 q 1143 5 1149 9 q 1122 0 1138 0 l 697 0 q 680 5 683 0 q 676 24 676 10 l 676 67 q 682 88 676 84 q 705 92 688 92 l 789 92 q 817 96 812 92 q 818 119 822 101 l 793 282 q 781 302 790 301 q 751 303 772 303 l 365 303 q 336 301 346 303 q 320 288 327 299 l 212 116 q 206 98 204 104 q 232 92 208 92 l 308 92 q 327 88 322 92 q 333 70 333 84 l 333 28 q 328 5 333 10 q 304 0 324 0 l -50 0 q -69 4 -67 0 q -72 24 -72 8 "},"Ą":{"ha":1272,"x_min":-72,"x_max":1149,"o":"m 822 -294 q 747 -284 781 -294 q 697 -250 714 -274 q 688 -186 681 -226 q 718 -126 694 -155 q 776 -70 742 -97 q 848 -21 810 -44 q 917 21 885 2 q 940 30 930 28 q 953 25 951 31 q 955 11 959 18 q 940 -6 951 3 q 899 -47 921 -24 q 859 -95 876 -69 q 835 -149 842 -120 q 840 -196 829 -175 q 885 -217 851 -217 q 931 -205 911 -217 q 967 -177 951 -193 q 988 -172 978 -163 l 1000 -183 q 1005 -192 1006 -188 q 999 -203 1004 -195 q 928 -267 969 -241 q 822 -294 886 -294 m 656 818 l 410 428 q 393 402 399 411 q 422 394 388 394 l 740 394 q 770 398 767 394 q 770 426 774 403 l 709 820 q 702 860 704 847 q 693 872 701 872 q 678 856 687 872 q 656 818 669 840 m -72 24 l -72 66 q -68 86 -72 81 q -49 92 -65 92 l 57 92 q 81 98 76 92 q 92 115 85 104 l 685 1041 q 699 1057 692 1052 q 724 1063 705 1063 l 789 1063 q 811 1060 804 1063 q 822 1052 819 1058 q 827 1033 825 1045 l 993 125 q 1005 97 997 101 q 1042 92 1013 92 l 1124 92 q 1144 87 1140 92 q 1149 67 1149 83 l 1149 25 q 1143 5 1149 9 q 1122 0 1138 0 l 697 0 q 680 5 683 0 q 676 24 676 10 l 676 67 q 682 88 676 84 q 705 92 688 92 l 789 92 q 817 96 812 92 q 818 119 822 101 l 793 282 q 781 302 790 301 q 751 303 772 303 l 365 303 q 336 301 346 303 q 320 288 327 299 l 212 116 q 206 98 204 104 q 232 92 208 92 l 308 92 q 327 88 322 92 q 333 70 333 84 l 333 28 q 328 5 333 10 q 304 0 324 0 l -50 0 q -69 4 -67 0 q -72 24 -72 8 "},"B":{"ha":1056,"x_min":-58,"x_max":1030,"o":"m 528 0 l -27 0 q -52 5 -47 0 q -58 31 -58 10 l -58 72 q -54 88 -58 83 q -39 92 -50 92 l 81 92 q 112 97 103 92 q 124 121 120 102 l 295 922 q 294 945 299 941 q 265 950 290 950 l 163 950 q 139 955 145 950 q 132 978 132 959 l 132 1022 q 138 1039 132 1035 q 156 1042 143 1042 l 723 1042 q 899 1006 831 1042 q 999 913 967 969 q 1030 798 1030 857 q 972 632 1030 692 q 808 547 914 572 q 786 544 793 544 q 779 540 779 545 q 786 535 779 534 q 807 532 793 535 q 934 458 893 510 q 974 320 974 406 q 952 197 974 255 q 878 95 930 140 q 741 25 827 50 q 528 0 656 0 m 515 92 q 651 114 597 92 q 737 171 706 136 q 781 246 768 206 q 794 322 794 286 q 775 415 794 376 q 716 473 755 453 q 622 493 678 493 l 397 493 q 373 488 378 493 q 364 466 367 482 l 290 122 q 289 99 287 106 q 313 92 291 92 l 515 92 m 418 583 l 612 583 q 694 596 651 583 q 776 635 738 609 q 840 701 815 661 q 864 794 864 741 q 828 907 864 864 q 719 950 792 950 l 491 950 q 469 946 472 950 q 462 926 465 942 l 395 612 q 394 590 392 596 q 418 583 397 583 "},"C":{"ha":1121,"x_min":60,"x_max":1164,"o":"m 1015 355 q 937 226 984 291 q 825 106 890 161 q 676 17 760 51 q 487 -16 592 -16 q 268 33 364 -16 q 116 179 172 81 q 60 424 60 277 q 90 606 60 515 q 173 777 119 696 q 304 922 228 858 q 475 1021 381 985 q 679 1058 570 1058 q 866 1026 792 1058 q 983 943 940 994 q 998 929 995 930 q 1011 944 1001 928 l 1063 1028 q 1074 1039 1067 1035 q 1092 1042 1080 1042 l 1147 1042 q 1161 1039 1159 1042 q 1162 1025 1164 1036 l 1092 701 q 1085 681 1090 685 q 1063 676 1081 676 l 1022 676 q 1001 680 1004 676 q 999 699 998 685 q 967 835 1006 776 q 857 927 928 894 q 694 960 786 960 q 506 912 589 960 q 365 784 423 863 q 277 611 308 705 q 247 426 247 517 q 277 240 247 315 q 366 126 306 165 q 513 88 425 88 q 639 113 580 88 q 748 179 698 138 q 838 267 798 219 q 904 361 877 315 q 916 377 910 371 q 938 384 923 384 l 985 384 q 1017 378 1012 384 q 1015 355 1023 372 "},"Ç":{"ha":1121,"x_min":60,"x_max":1164,"o":"m 216 -347 l 219 -326 q 227 -311 222 -315 q 244 -308 233 -308 q 301 -299 272 -306 q 352 -278 331 -292 q 378 -242 373 -265 q 368 -201 384 -215 q 324 -180 352 -186 q 265 -171 296 -174 q 244 -164 246 -169 q 251 -151 242 -160 l 388 -8 q 410 -1 394 -1 l 434 -1 q 454 -4 450 -1 q 450 -15 458 -7 l 376 -92 q 366 -107 365 -104 q 385 -110 367 -109 q 472 -141 442 -115 q 490 -224 502 -166 q 455 -292 481 -265 q 392 -335 428 -319 q 313 -358 355 -351 q 231 -367 272 -365 q 216 -347 212 -367 m 1015 355 q 937 226 984 291 q 825 106 890 161 q 676 17 760 51 q 487 -16 592 -16 q 268 33 364 -16 q 116 179 172 81 q 60 424 60 277 q 90 606 60 515 q 173 777 119 696 q 304 922 228 858 q 475 1021 381 985 q 679 1058 570 1058 q 866 1026 792 1058 q 983 943 940 994 q 998 929 995 930 q 1011 944 1001 928 l 1063 1028 q 1074 1039 1067 1035 q 1092 1042 1080 1042 l 1147 1042 q 1161 1039 1159 1042 q 1162 1025 1164 1036 l 1092 701 q 1085 681 1090 685 q 1063 676 1081 676 l 1022 676 q 1001 680 1004 676 q 999 699 998 685 q 967 835 1006 776 q 857 927 928 894 q 694 960 786 960 q 506 912 589 960 q 365 784 423 863 q 277 611 308 705 q 247 426 247 517 q 277 240 247 315 q 366 126 306 165 q 513 88 425 88 q 639 113 580 88 q 748 179 698 138 q 838 267 798 219 q 904 361 877 315 q 916 377 910 371 q 938 384 923 384 l 985 384 q 1017 378 1012 384 q 1015 355 1023 372 "},"Ć":{"ha":1121,"x_min":60,"x_max":1164,"o":"m 938 1347 q 949 1292 957 1317 q 918 1254 941 1267 l 749 1157 q 735 1151 740 1151 q 723 1160 731 1151 l 692 1192 q 692 1215 681 1204 l 832 1357 q 867 1376 847 1373 q 907 1372 888 1380 q 938 1347 927 1365 m 1015 355 q 937 226 984 291 q 825 106 890 161 q 676 17 760 51 q 487 -16 592 -16 q 268 33 364 -16 q 116 179 172 81 q 60 424 60 277 q 90 606 60 515 q 173 777 119 696 q 304 922 228 858 q 475 1021 381 985 q 679 1058 570 1058 q 866 1026 792 1058 q 983 943 940 994 q 998 929 995 930 q 1011 944 1001 928 l 1063 1028 q 1074 1039 1067 1035 q 1092 1042 1080 1042 l 1147 1042 q 1161 1039 1159 1042 q 1162 1025 1164 1036 l 1092 701 q 1085 681 1090 685 q 1063 676 1081 676 l 1022 676 q 1001 680 1004 676 q 999 699 998 685 q 967 835 1006 776 q 857 927 928 894 q 694 960 786 960 q 506 912 589 960 q 365 784 423 863 q 277 611 308 705 q 247 426 247 517 q 277 240 247 315 q 366 126 306 165 q 513 88 425 88 q 639 113 580 88 q 748 179 698 138 q 838 267 798 219 q 904 361 877 315 q 916 377 910 371 q 938 384 923 384 l 985 384 q 1017 378 1012 384 q 1015 355 1023 372 "},"Ĉ":{"ha":1121,"x_min":60,"x_max":1164,"o":"m 574 1169 l 558 1190 q 552 1200 551 1197 q 562 1211 553 1203 l 722 1349 q 739 1358 731 1356 q 761 1360 746 1360 l 830 1360 q 849 1358 844 1360 q 860 1349 855 1355 l 963 1209 q 966 1201 966 1204 q 959 1193 966 1199 l 935 1172 q 923 1164 926 1163 q 913 1171 920 1165 l 805 1266 q 770 1267 790 1279 l 598 1165 q 584 1160 589 1159 q 574 1169 579 1162 m 1015 355 q 937 226 984 291 q 825 106 890 161 q 676 17 760 51 q 487 -16 592 -16 q 268 33 364 -16 q 116 179 172 81 q 60 424 60 277 q 90 606 60 515 q 173 777 119 696 q 304 922 228 858 q 475 1021 381 985 q 679 1058 570 1058 q 866 1026 792 1058 q 983 943 940 994 q 998 929 995 930 q 1011 944 1001 928 l 1063 1028 q 1074 1039 1067 1035 q 1092 1042 1080 1042 l 1147 1042 q 1161 1039 1159 1042 q 1162 1025 1164 1036 l 1092 701 q 1085 681 1090 685 q 1063 676 1081 676 l 1022 676 q 1001 680 1004 676 q 999 699 998 685 q 967 835 1006 776 q 857 927 928 894 q 694 960 786 960 q 506 912 589 960 q 365 784 423 863 q 277 611 308 705 q 247 426 247 517 q 277 240 247 315 q 366 126 306 165 q 513 88 425 88 q 639 113 580 88 q 748 179 698 138 q 838 267 798 219 q 904 361 877 315 q 916 377 910 371 q 938 384 923 384 l 985 384 q 1017 378 1012 384 q 1015 355 1023 372 "},"Ċ":{"ha":1121,"x_min":60,"x_max":1164,"o":"m 775 1201 q 711 1228 738 1201 q 685 1292 685 1255 q 711 1356 685 1329 q 775 1382 738 1382 q 840 1356 813 1382 q 866 1292 866 1329 q 840 1228 866 1255 q 775 1201 813 1201 m 1015 355 q 937 226 984 291 q 825 106 890 161 q 676 17 760 51 q 487 -16 592 -16 q 268 33 364 -16 q 116 179 172 81 q 60 424 60 277 q 90 606 60 515 q 173 777 119 696 q 304 922 228 858 q 475 1021 381 985 q 679 1058 570 1058 q 866 1026 792 1058 q 983 943 940 994 q 998 929 995 930 q 1011 944 1001 928 l 1063 1028 q 1074 1039 1067 1035 q 1092 1042 1080 1042 l 1147 1042 q 1161 1039 1159 1042 q 1162 1025 1164 1036 l 1092 701 q 1085 681 1090 685 q 1063 676 1081 676 l 1022 676 q 1001 680 1004 676 q 999 699 998 685 q 967 835 1006 776 q 857 927 928 894 q 694 960 786 960 q 506 912 589 960 q 365 784 423 863 q 277 611 308 705 q 247 426 247 517 q 277 240 247 315 q 366 126 306 165 q 513 88 425 88 q 639 113 580 88 q 748 179 698 138 q 838 267 798 219 q 904 361 877 315 q 916 377 910 371 q 938 384 923 384 l 985 384 q 1017 378 1012 384 q 1015 355 1023 372 "},"Č":{"ha":1121,"x_min":60,"x_max":1164,"o":"m 678 1189 l 588 1313 q 581 1327 581 1322 q 592 1340 581 1333 l 613 1356 q 630 1363 625 1364 q 644 1354 634 1362 l 740 1279 q 771 1266 756 1267 q 808 1279 786 1266 l 944 1363 q 961 1368 957 1370 q 973 1357 966 1366 l 983 1345 q 991 1331 991 1336 q 981 1316 992 1326 l 828 1185 q 813 1173 819 1177 q 790 1169 806 1169 l 724 1169 q 694 1174 703 1169 q 678 1189 685 1180 m 1015 355 q 937 226 984 291 q 825 106 890 161 q 676 17 760 51 q 487 -16 592 -16 q 268 33 364 -16 q 116 179 172 81 q 60 424 60 277 q 90 606 60 515 q 173 777 119 696 q 304 922 228 858 q 475 1021 381 985 q 679 1058 570 1058 q 866 1026 792 1058 q 983 943 940 994 q 998 929 995 930 q 1011 944 1001 928 l 1063 1028 q 1074 1039 1067 1035 q 1092 1042 1080 1042 l 1147 1042 q 1161 1039 1159 1042 q 1162 1025 1164 1036 l 1092 701 q 1085 681 1090 685 q 1063 676 1081 676 l 1022 676 q 1001 680 1004 676 q 999 699 998 685 q 967 835 1006 776 q 857 927 928 894 q 694 960 786 960 q 506 912 589 960 q 365 784 423 863 q 277 611 308 705 q 247 426 247 517 q 277 240 247 315 q 366 126 306 165 q 513 88 425 88 q 639 113 580 88 q 748 179 698 138 q 838 267 798 219 q 904 361 877 315 q 916 377 910 371 q 938 384 923 384 l 985 384 q 1017 378 1012 384 q 1015 355 1023 372 "},"D":{"ha":1163,"x_min":-58,"x_max":1103,"o":"m -58 24 l -58 67 q -51 89 -58 85 q -26 92 -44 92 l 80 92 q 105 99 99 92 q 113 122 110 107 l 282 913 q 282 944 288 938 q 244 950 276 950 l 160 950 q 135 956 139 950 q 131 983 131 962 l 131 1010 q 135 1036 131 1030 q 160 1042 140 1042 l 671 1042 q 880 1007 797 1042 q 1013 914 963 972 q 1082 786 1062 856 q 1103 646 1103 716 q 1049 381 1103 500 q 902 177 994 263 q 696 46 810 92 q 463 0 582 0 l -33 0 q -52 5 -47 0 q -58 24 -58 9 m 309 92 l 463 92 q 638 135 556 92 q 783 258 720 179 q 881 443 845 337 q 916 674 916 549 q 906 781 916 731 q 871 869 897 831 q 796 929 845 908 q 667 950 747 950 l 499 950 q 462 944 470 950 q 449 915 454 938 l 279 122 q 280 98 275 103 q 309 92 285 92 "},"Ď":{"ha":1163,"x_min":-58,"x_max":1103,"o":"m 571 1189 l 481 1313 q 474 1327 474 1322 q 485 1340 474 1333 l 506 1356 q 523 1363 518 1364 q 538 1354 527 1362 l 633 1279 q 664 1266 649 1267 q 701 1279 679 1266 l 838 1363 q 855 1368 850 1370 q 866 1357 859 1366 l 876 1345 q 884 1331 884 1336 q 874 1316 885 1326 l 721 1185 q 706 1173 713 1177 q 683 1169 699 1169 l 617 1169 q 587 1174 597 1169 q 571 1189 578 1180 m -58 24 l -58 67 q -51 89 -58 85 q -26 92 -44 92 l 80 92 q 105 99 99 92 q 113 122 110 107 l 282 913 q 282 944 288 938 q 244 950 276 950 l 160 950 q 135 956 139 950 q 131 983 131 962 l 131 1010 q 135 1036 131 1030 q 160 1042 140 1042 l 671 1042 q 880 1007 797 1042 q 1013 914 963 972 q 1082 786 1062 856 q 1103 646 1103 716 q 1049 381 1103 500 q 902 177 994 263 q 696 46 810 92 q 463 0 582 0 l -33 0 q -52 5 -47 0 q -58 24 -58 9 m 309 92 l 463 92 q 638 135 556 92 q 783 258 720 179 q 881 443 845 337 q 916 674 916 549 q 906 781 916 731 q 871 869 897 831 q 796 929 845 908 q 667 950 747 950 l 499 950 q 462 944 470 950 q 449 915 454 938 l 279 122 q 280 98 275 103 q 309 92 285 92 "},"E":{"ha":1028,"x_min":-58,"x_max":1085,"o":"m 367 477 l 287 125 q 287 98 282 103 q 320 92 292 92 l 555 92 q 707 113 646 92 q 807 189 767 135 q 874 340 847 242 q 883 362 879 356 q 908 368 887 368 l 935 368 q 958 364 954 368 q 958 346 961 360 l 885 34 q 873 6 881 13 q 838 0 865 0 l -31 0 q -51 4 -45 0 q -58 22 -58 8 l -58 58 q -53 86 -58 80 q -27 92 -48 92 l 81 92 q 111 97 106 92 q 120 122 115 102 l 301 917 q 300 944 306 939 q 267 950 294 950 l 170 950 q 145 956 150 950 q 140 981 140 962 l 140 1019 q 150 1038 140 1035 q 173 1042 159 1042 l 1042 1042 q 1079 1036 1074 1042 q 1080 1006 1085 1031 l 1018 734 q 1009 707 1013 713 q 978 701 1004 701 l 951 701 q 933 711 932 701 q 936 734 934 721 q 941 863 951 816 q 890 930 930 910 q 772 950 849 950 l 514 950 q 476 943 482 950 q 465 910 471 935 l 395 602 q 395 578 390 583 q 423 573 399 573 l 477 573 q 602 606 554 573 q 674 695 649 640 q 683 718 679 708 q 706 728 686 728 l 731 728 q 753 723 751 728 q 751 701 755 717 l 674 369 q 668 349 671 355 q 646 342 665 342 l 619 342 q 600 353 601 342 q 601 377 600 364 q 577 469 606 433 q 473 506 548 506 l 403 506 q 376 501 380 506 q 367 477 372 496 "},"È":{"ha":1028,"x_min":-58,"x_max":1085,"o":"m 497 1347 q 528 1372 509 1365 q 569 1376 548 1380 q 603 1357 590 1372 l 742 1216 q 743 1191 755 1203 l 712 1158 q 702 1151 706 1152 q 691 1154 699 1149 l 517 1254 q 486 1292 494 1267 q 497 1347 478 1317 m 367 477 l 287 125 q 287 98 282 103 q 320 92 292 92 l 555 92 q 707 113 646 92 q 807 189 767 135 q 874 340 847 242 q 883 362 879 356 q 908 368 887 368 l 935 368 q 958 364 954 368 q 958 346 961 360 l 885 34 q 873 6 881 13 q 838 0 865 0 l -31 0 q -51 4 -45 0 q -58 22 -58 8 l -58 58 q -53 86 -58 80 q -27 92 -48 92 l 81 92 q 111 97 106 92 q 120 122 115 102 l 301 917 q 300 944 306 939 q 267 950 294 950 l 170 950 q 145 956 150 950 q 140 981 140 962 l 140 1019 q 150 1038 140 1035 q 173 1042 159 1042 l 1042 1042 q 1079 1036 1074 1042 q 1080 1006 1085 1031 l 1018 734 q 1009 707 1013 713 q 978 701 1004 701 l 951 701 q 933 711 932 701 q 936 734 934 721 q 941 863 951 816 q 890 930 930 910 q 772 950 849 950 l 514 950 q 476 943 482 950 q 465 910 471 935 l 395 602 q 395 578 390 583 q 423 573 399 573 l 477 573 q 602 606 554 573 q 674 695 649 640 q 683 718 679 708 q 706 728 686 728 l 731 728 q 753 723 751 728 q 751 701 755 717 l 674 369 q 668 349 671 355 q 646 342 665 342 l 619 342 q 600 353 601 342 q 601 377 600 364 q 577 469 606 433 q 473 506 548 506 l 403 506 q 376 501 380 506 q 367 477 372 496 "},"É":{"ha":1028,"x_min":-58,"x_max":1085,"o":"m 851 1347 q 862 1292 870 1317 q 831 1254 854 1267 l 663 1157 q 649 1151 653 1151 q 636 1160 644 1151 l 605 1192 q 605 1215 594 1204 l 745 1357 q 780 1376 760 1373 q 820 1372 801 1380 q 851 1347 840 1365 m 367 477 l 287 125 q 287 98 282 103 q 320 92 292 92 l 555 92 q 707 113 646 92 q 807 189 767 135 q 874 340 847 242 q 883 362 879 356 q 908 368 887 368 l 935 368 q 958 364 954 368 q 958 346 961 360 l 885 34 q 873 6 881 13 q 838 0 865 0 l -31 0 q -51 4 -45 0 q -58 22 -58 8 l -58 58 q -53 86 -58 80 q -27 92 -48 92 l 81 92 q 111 97 106 92 q 120 122 115 102 l 301 917 q 300 944 306 939 q 267 950 294 950 l 170 950 q 145 956 150 950 q 140 981 140 962 l 140 1019 q 150 1038 140 1035 q 173 1042 159 1042 l 1042 1042 q 1079 1036 1074 1042 q 1080 1006 1085 1031 l 1018 734 q 1009 707 1013 713 q 978 701 1004 701 l 951 701 q 933 711 932 701 q 936 734 934 721 q 941 863 951 816 q 890 930 930 910 q 772 950 849 950 l 514 950 q 476 943 482 950 q 465 910 471 935 l 395 602 q 395 578 390 583 q 423 573 399 573 l 477 573 q 602 606 554 573 q 674 695 649 640 q 683 718 679 708 q 706 728 686 728 l 731 728 q 753 723 751 728 q 751 701 755 717 l 674 369 q 668 349 671 355 q 646 342 665 342 l 619 342 q 600 353 601 342 q 601 377 600 364 q 577 469 606 433 q 473 506 548 506 l 403 506 q 376 501 380 506 q 367 477 372 496 "},"Ê":{"ha":1028,"x_min":-58,"x_max":1085,"o":"m 487 1169 l 471 1190 q 465 1200 464 1197 q 475 1211 466 1203 l 635 1349 q 652 1358 644 1356 q 674 1360 659 1360 l 743 1360 q 763 1358 757 1360 q 773 1349 768 1355 l 876 1209 q 879 1201 879 1204 q 872 1193 879 1199 l 848 1172 q 836 1164 839 1163 q 826 1171 833 1165 l 718 1266 q 683 1267 703 1279 l 511 1165 q 497 1160 502 1159 q 487 1169 492 1162 m 367 477 l 287 125 q 287 98 282 103 q 320 92 292 92 l 555 92 q 707 113 646 92 q 807 189 767 135 q 874 340 847 242 q 883 362 879 356 q 908 368 887 368 l 935 368 q 958 364 954 368 q 958 346 961 360 l 885 34 q 873 6 881 13 q 838 0 865 0 l -31 0 q -51 4 -45 0 q -58 22 -58 8 l -58 58 q -53 86 -58 80 q -27 92 -48 92 l 81 92 q 111 97 106 92 q 120 122 115 102 l 301 917 q 300 944 306 939 q 267 950 294 950 l 170 950 q 145 956 150 950 q 140 981 140 962 l 140 1019 q 150 1038 140 1035 q 173 1042 159 1042 l 1042 1042 q 1079 1036 1074 1042 q 1080 1006 1085 1031 l 1018 734 q 1009 707 1013 713 q 978 701 1004 701 l 951 701 q 933 711 932 701 q 936 734 934 721 q 941 863 951 816 q 890 930 930 910 q 772 950 849 950 l 514 950 q 476 943 482 950 q 465 910 471 935 l 395 602 q 395 578 390 583 q 423 573 399 573 l 477 573 q 602 606 554 573 q 674 695 649 640 q 683 718 679 708 q 706 728 686 728 l 731 728 q 753 723 751 728 q 751 701 755 717 l 674 369 q 668 349 671 355 q 646 342 665 342 l 619 342 q 600 353 601 342 q 601 377 600 364 q 577 469 606 433 q 473 506 548 506 l 403 506 q 376 501 380 506 q 367 477 372 496 "},"Ë":{"ha":1028,"x_min":-58,"x_max":1085,"o":"m 801 1174 q 747 1196 769 1174 q 725 1250 725 1218 q 747 1304 725 1281 q 801 1326 769 1326 q 855 1304 833 1326 q 877 1250 877 1281 q 855 1196 877 1218 q 801 1174 833 1174 m 556 1174 q 501 1196 524 1174 q 479 1250 479 1218 q 501 1304 479 1281 q 556 1326 524 1326 q 609 1304 587 1326 q 631 1250 631 1281 q 609 1196 631 1218 q 556 1174 587 1174 m 367 477 l 287 125 q 287 98 282 103 q 320 92 292 92 l 555 92 q 707 113 646 92 q 807 189 767 135 q 874 340 847 242 q 883 362 879 356 q 908 368 887 368 l 935 368 q 958 364 954 368 q 958 346 961 360 l 885 34 q 873 6 881 13 q 838 0 865 0 l -31 0 q -51 4 -45 0 q -58 22 -58 8 l -58 58 q -53 86 -58 80 q -27 92 -48 92 l 81 92 q 111 97 106 92 q 120 122 115 102 l 301 917 q 300 944 306 939 q 267 950 294 950 l 170 950 q 145 956 150 950 q 140 981 140 962 l 140 1019 q 150 1038 140 1035 q 173 1042 159 1042 l 1042 1042 q 1079 1036 1074 1042 q 1080 1006 1085 1031 l 1018 734 q 1009 707 1013 713 q 978 701 1004 701 l 951 701 q 933 711 932 701 q 936 734 934 721 q 941 863 951 816 q 890 930 930 910 q 772 950 849 950 l 514 950 q 476 943 482 950 q 465 910 471 935 l 395 602 q 395 578 390 583 q 423 573 399 573 l 477 573 q 602 606 554 573 q 674 695 649 640 q 683 718 679 708 q 706 728 686 728 l 731 728 q 753 723 751 728 q 751 701 755 717 l 674 369 q 668 349 671 355 q 646 342 665 342 l 619 342 q 600 353 601 342 q 601 377 600 364 q 577 469 606 433 q 473 506 548 506 l 403 506 q 376 501 380 506 q 367 477 372 496 "},"Ē":{"ha":1028,"x_min":-58,"x_max":1085,"o":"m 503 1184 l 503 1217 q 505 1231 503 1226 q 517 1235 508 1235 l 813 1235 q 831 1232 826 1235 q 836 1214 836 1228 l 836 1183 q 834 1167 836 1172 q 821 1162 832 1162 l 527 1162 q 508 1166 514 1162 q 503 1184 503 1169 m 367 477 l 287 125 q 287 98 282 103 q 320 92 292 92 l 555 92 q 707 113 646 92 q 807 189 767 135 q 874 340 847 242 q 883 362 879 356 q 908 368 887 368 l 935 368 q 958 364 954 368 q 958 346 961 360 l 885 34 q 873 6 881 13 q 838 0 865 0 l -31 0 q -51 4 -45 0 q -58 22 -58 8 l -58 58 q -53 86 -58 80 q -27 92 -48 92 l 81 92 q 111 97 106 92 q 120 122 115 102 l 301 917 q 300 944 306 939 q 267 950 294 950 l 170 950 q 145 956 150 950 q 140 981 140 962 l 140 1019 q 150 1038 140 1035 q 173 1042 159 1042 l 1042 1042 q 1079 1036 1074 1042 q 1080 1006 1085 1031 l 1018 734 q 1009 707 1013 713 q 978 701 1004 701 l 951 701 q 933 711 932 701 q 936 734 934 721 q 941 863 951 816 q 890 930 930 910 q 772 950 849 950 l 514 950 q 476 943 482 950 q 465 910 471 935 l 395 602 q 395 578 390 583 q 423 573 399 573 l 477 573 q 602 606 554 573 q 674 695 649 640 q 683 718 679 708 q 706 728 686 728 l 731 728 q 753 723 751 728 q 751 701 755 717 l 674 369 q 668 349 671 355 q 646 342 665 342 l 619 342 q 600 353 601 342 q 601 377 600 364 q 577 469 606 433 q 473 506 548 506 l 403 506 q 376 501 380 506 q 367 477 372 496 "},"Ĕ":{"ha":1028,"x_min":-58,"x_max":1085,"o":"m 675 1161 q 575 1183 608 1161 q 534 1244 542 1204 q 538 1337 527 1283 q 557 1350 541 1350 l 576 1350 q 587 1339 588 1350 q 605 1274 581 1296 q 679 1252 628 1252 q 761 1272 727 1252 q 809 1330 794 1291 q 814 1345 813 1340 q 828 1350 815 1350 l 856 1350 q 868 1347 867 1350 q 866 1333 869 1344 q 801 1208 847 1255 q 675 1161 756 1161 m 367 477 l 287 125 q 287 98 282 103 q 320 92 292 92 l 555 92 q 707 113 646 92 q 807 189 767 135 q 874 340 847 242 q 883 362 879 356 q 908 368 887 368 l 935 368 q 958 364 954 368 q 958 346 961 360 l 885 34 q 873 6 881 13 q 838 0 865 0 l -31 0 q -51 4 -45 0 q -58 22 -58 8 l -58 58 q -53 86 -58 80 q -27 92 -48 92 l 81 92 q 111 97 106 92 q 120 122 115 102 l 301 917 q 300 944 306 939 q 267 950 294 950 l 170 950 q 145 956 150 950 q 140 981 140 962 l 140 1019 q 150 1038 140 1035 q 173 1042 159 1042 l 1042 1042 q 1079 1036 1074 1042 q 1080 1006 1085 1031 l 1018 734 q 1009 707 1013 713 q 978 701 1004 701 l 951 701 q 933 711 932 701 q 936 734 934 721 q 941 863 951 816 q 890 930 930 910 q 772 950 849 950 l 514 950 q 476 943 482 950 q 465 910 471 935 l 395 602 q 395 578 390 583 q 423 573 399 573 l 477 573 q 602 606 554 573 q 674 695 649 640 q 683 718 679 708 q 706 728 686 728 l 731 728 q 753 723 751 728 q 751 701 755 717 l 674 369 q 668 349 671 355 q 646 342 665 342 l 619 342 q 600 353 601 342 q 601 377 600 364 q 577 469 606 433 q 473 506 548 506 l 403 506 q 376 501 380 506 q 367 477 372 496 "},"Ė":{"ha":1028,"x_min":-58,"x_max":1085,"o":"m 688 1201 q 625 1228 651 1201 q 598 1292 598 1255 q 625 1356 598 1329 q 688 1382 651 1382 q 753 1356 726 1382 q 779 1292 779 1329 q 753 1228 779 1255 q 688 1201 726 1201 m 367 477 l 287 125 q 287 98 282 103 q 320 92 292 92 l 555 92 q 707 113 646 92 q 807 189 767 135 q 874 340 847 242 q 883 362 879 356 q 908 368 887 368 l 935 368 q 958 364 954 368 q 958 346 961 360 l 885 34 q 873 6 881 13 q 838 0 865 0 l -31 0 q -51 4 -45 0 q -58 22 -58 8 l -58 58 q -53 86 -58 80 q -27 92 -48 92 l 81 92 q 111 97 106 92 q 120 122 115 102 l 301 917 q 300 944 306 939 q 267 950 294 950 l 170 950 q 145 956 150 950 q 140 981 140 962 l 140 1019 q 150 1038 140 1035 q 173 1042 159 1042 l 1042 1042 q 1079 1036 1074 1042 q 1080 1006 1085 1031 l 1018 734 q 1009 707 1013 713 q 978 701 1004 701 l 951 701 q 933 711 932 701 q 936 734 934 721 q 941 863 951 816 q 890 930 930 910 q 772 950 849 950 l 514 950 q 476 943 482 950 q 465 910 471 935 l 395 602 q 395 578 390 583 q 423 573 399 573 l 477 573 q 602 606 554 573 q 674 695 649 640 q 683 718 679 708 q 706 728 686 728 l 731 728 q 753 723 751 728 q 751 701 755 717 l 674 369 q 668 349 671 355 q 646 342 665 342 l 619 342 q 600 353 601 342 q 601 377 600 364 q 577 469 606 433 q 473 506 548 506 l 403 506 q 376 501 380 506 q 367 477 372 496 "},"Ę":{"ha":1028,"x_min":-58,"x_max":1085,"o":"m 669 -289 q 594 -279 628 -289 q 544 -245 561 -269 q 535 -181 528 -221 q 565 -121 541 -150 q 623 -65 589 -92 q 695 -16 658 -39 q 764 26 732 7 q 788 34 777 33 q 801 30 798 35 q 802 16 806 23 q 788 -1 798 8 q 746 -42 768 -19 q 706 -90 724 -65 q 682 -144 689 -115 q 687 -191 676 -170 q 733 -212 698 -212 q 778 -200 758 -212 q 814 -172 799 -188 q 835 -167 826 -158 l 847 -178 q 852 -187 853 -183 q 846 -198 851 -190 q 775 -262 817 -236 q 669 -289 733 -289 m 367 477 l 287 125 q 287 98 282 103 q 320 92 292 92 l 555 92 q 707 113 646 92 q 807 189 767 135 q 874 340 847 242 q 883 362 879 356 q 908 368 887 368 l 935 368 q 958 364 954 368 q 958 346 961 360 l 885 34 q 873 6 881 13 q 838 0 865 0 l -31 0 q -51 4 -45 0 q -58 22 -58 8 l -58 58 q -53 86 -58 80 q -27 92 -48 92 l 81 92 q 111 97 106 92 q 120 122 115 102 l 301 917 q 300 944 306 939 q 267 950 294 950 l 170 950 q 145 956 150 950 q 140 981 140 962 l 140 1019 q 150 1038 140 1035 q 173 1042 159 1042 l 1042 1042 q 1079 1036 1074 1042 q 1080 1006 1085 1031 l 1018 734 q 1009 707 1013 713 q 978 701 1004 701 l 951 701 q 933 711 932 701 q 936 734 934 721 q 941 863 951 816 q 890 930 930 910 q 772 950 849 950 l 514 950 q 476 943 482 950 q 465 910 471 935 l 395 602 q 395 578 390 583 q 423 573 399 573 l 477 573 q 602 606 554 573 q 674 695 649 640 q 683 718 679 708 q 706 728 686 728 l 731 728 q 753 723 751 728 q 751 701 755 717 l 674 369 q 668 349 671 355 q 646 342 665 342 l 619 342 q 600 353 601 342 q 601 377 600 364 q 577 469 606 433 q 473 506 548 506 l 403 506 q 376 501 380 506 q 367 477 372 496 "},"Ě":{"ha":1028,"x_min":-58,"x_max":1085,"o":"m 591 1189 l 501 1313 q 494 1327 494 1322 q 505 1340 494 1333 l 526 1356 q 543 1363 538 1364 q 558 1354 547 1362 l 653 1279 q 684 1266 669 1267 q 722 1279 699 1266 l 858 1363 q 875 1368 870 1370 q 886 1357 879 1366 l 897 1345 q 905 1331 904 1336 q 894 1316 905 1326 l 741 1185 q 726 1173 733 1177 q 703 1169 719 1169 l 637 1169 q 607 1174 617 1169 q 591 1189 598 1180 m 367 477 l 287 125 q 287 98 282 103 q 320 92 292 92 l 555 92 q 707 113 646 92 q 807 189 767 135 q 874 340 847 242 q 883 362 879 356 q 908 368 887 368 l 935 368 q 958 364 954 368 q 958 346 961 360 l 885 34 q 873 6 881 13 q 838 0 865 0 l -31 0 q -51 4 -45 0 q -58 22 -58 8 l -58 58 q -53 86 -58 80 q -27 92 -48 92 l 81 92 q 111 97 106 92 q 120 122 115 102 l 301 917 q 300 944 306 939 q 267 950 294 950 l 170 950 q 145 956 150 950 q 140 981 140 962 l 140 1019 q 150 1038 140 1035 q 173 1042 159 1042 l 1042 1042 q 1079 1036 1074 1042 q 1080 1006 1085 1031 l 1018 734 q 1009 707 1013 713 q 978 701 1004 701 l 951 701 q 933 711 932 701 q 936 734 934 721 q 941 863 951 816 q 890 930 930 910 q 772 950 849 950 l 514 950 q 476 943 482 950 q 465 910 471 935 l 395 602 q 395 578 390 583 q 423 573 399 573 l 477 573 q 602 606 554 573 q 674 695 649 640 q 683 718 679 708 q 706 728 686 728 l 731 728 q 753 723 751 728 q 751 701 755 717 l 674 369 q 668 349 671 355 q 646 342 665 342 l 619 342 q 600 353 601 342 q 601 377 600 364 q 577 469 606 433 q 473 506 548 506 l 403 506 q 376 501 380 506 q 367 477 372 496 "},"F":{"ha":1018,"x_min":-58,"x_max":1088,"o":"m -58 28 l -58 68 q -51 88 -58 84 q -29 92 -44 92 l 85 92 q 110 97 106 92 q 117 118 114 101 l 299 922 q 300 945 303 940 q 272 950 296 950 l 174 950 q 145 954 151 950 q 139 981 139 958 l 139 1017 q 144 1038 139 1033 q 166 1042 150 1042 l 1050 1042 q 1084 1036 1080 1042 q 1082 1006 1088 1031 l 1019 728 q 1011 704 1015 710 q 984 698 1008 698 l 953 698 q 933 705 935 698 q 934 726 931 713 q 940 859 950 810 q 889 929 930 908 q 769 950 847 950 l 513 950 q 478 945 485 950 q 465 917 470 940 l 387 574 q 388 559 384 563 q 404 556 391 556 l 474 556 q 602 592 553 556 q 674 686 651 628 q 681 705 678 697 q 698 713 683 713 l 734 713 q 752 709 749 713 q 753 694 756 705 l 667 325 q 660 312 665 315 q 642 309 656 309 l 617 309 q 595 316 597 309 q 596 340 594 324 q 575 439 603 401 q 469 476 547 476 l 385 476 q 370 475 376 476 q 363 466 364 474 l 283 117 q 284 97 281 101 q 306 92 287 92 l 424 92 q 441 86 438 92 q 444 67 444 81 l 444 24 q 438 4 444 8 q 415 0 431 0 l -33 0 q -54 6 -50 0 q -58 28 -58 11 "},"G":{"ha":1222,"x_min":60,"x_max":1196,"o":"m 733 518 l 1169 518 q 1189 514 1182 518 q 1196 497 1196 510 l 1196 447 q 1190 423 1196 427 q 1165 418 1185 418 l 1062 418 q 1040 411 1042 418 q 1033 389 1037 403 l 997 257 q 988 232 993 242 q 973 211 983 222 q 873 111 938 164 q 713 21 807 58 q 497 -16 619 -16 q 272 33 371 -16 q 117 180 174 82 q 60 424 60 278 q 90 606 60 515 q 173 777 119 696 q 304 922 228 858 q 475 1021 381 985 q 679 1058 570 1058 q 857 1029 785 1058 q 972 956 928 1001 q 990 936 985 944 q 1000 932 995 929 q 1016 951 1006 935 l 1061 1025 q 1074 1038 1067 1035 q 1097 1042 1081 1042 l 1140 1042 q 1160 1038 1157 1042 q 1160 1020 1163 1034 l 1093 703 q 1084 682 1090 688 q 1059 676 1078 676 l 1020 676 q 1001 681 1004 676 q 999 699 998 685 q 966 835 1005 776 q 857 927 928 894 q 694 960 785 960 q 506 912 589 960 q 365 784 423 863 q 277 611 308 705 q 247 426 247 517 q 276 244 247 322 q 363 123 306 166 q 507 80 420 80 q 667 108 601 80 q 790 188 733 135 q 809 208 802 199 q 820 238 815 218 l 865 396 q 864 414 868 410 q 844 418 860 418 l 740 418 q 719 422 724 418 q 714 442 714 426 l 714 499 q 718 514 714 510 q 733 518 722 518 "},"Ĝ":{"ha":1222,"x_min":60,"x_max":1196,"o":"m 574 1169 l 558 1190 q 552 1200 551 1197 q 562 1211 553 1203 l 722 1349 q 739 1358 731 1356 q 761 1360 746 1360 l 830 1360 q 849 1358 844 1360 q 860 1349 855 1355 l 963 1209 q 966 1201 966 1204 q 959 1193 966 1199 l 935 1172 q 923 1164 926 1163 q 913 1171 920 1165 l 805 1266 q 770 1267 790 1279 l 598 1165 q 584 1160 589 1159 q 574 1169 579 1162 m 733 518 l 1169 518 q 1189 514 1182 518 q 1196 497 1196 510 l 1196 447 q 1190 423 1196 427 q 1165 418 1185 418 l 1062 418 q 1040 411 1042 418 q 1033 389 1037 403 l 997 257 q 988 232 993 242 q 973 211 983 222 q 873 111 938 164 q 713 21 807 58 q 497 -16 619 -16 q 272 33 371 -16 q 117 180 174 82 q 60 424 60 278 q 90 606 60 515 q 173 777 119 696 q 304 922 228 858 q 475 1021 381 985 q 679 1058 570 1058 q 857 1029 785 1058 q 972 956 928 1001 q 990 936 985 944 q 1000 932 995 929 q 1016 951 1006 935 l 1061 1025 q 1074 1038 1067 1035 q 1097 1042 1081 1042 l 1140 1042 q 1160 1038 1157 1042 q 1160 1020 1163 1034 l 1093 703 q 1084 682 1090 688 q 1059 676 1078 676 l 1020 676 q 1001 681 1004 676 q 999 699 998 685 q 966 835 1005 776 q 857 927 928 894 q 694 960 785 960 q 506 912 589 960 q 365 784 423 863 q 277 611 308 705 q 247 426 247 517 q 276 244 247 322 q 363 123 306 166 q 507 80 420 80 q 667 108 601 80 q 790 188 733 135 q 809 208 802 199 q 820 238 815 218 l 865 396 q 864 414 868 410 q 844 418 860 418 l 740 418 q 719 422 724 418 q 714 442 714 426 l 714 499 q 718 514 714 510 q 733 518 722 518 "},"Ğ":{"ha":1222,"x_min":60,"x_max":1196,"o":"m 762 1161 q 661 1183 694 1161 q 621 1244 628 1204 q 625 1337 614 1283 q 644 1350 628 1350 l 663 1350 q 674 1339 675 1350 q 692 1274 668 1296 q 766 1252 715 1252 q 848 1272 814 1252 q 896 1330 881 1291 q 901 1345 899 1340 q 915 1350 902 1350 l 942 1350 q 955 1347 953 1350 q 953 1333 956 1344 q 888 1208 933 1255 q 762 1161 843 1161 m 733 518 l 1169 518 q 1189 514 1182 518 q 1196 497 1196 510 l 1196 447 q 1190 423 1196 427 q 1165 418 1185 418 l 1062 418 q 1040 411 1042 418 q 1033 389 1037 403 l 997 257 q 988 232 993 242 q 973 211 983 222 q 873 111 938 164 q 713 21 807 58 q 497 -16 619 -16 q 272 33 371 -16 q 117 180 174 82 q 60 424 60 278 q 90 606 60 515 q 173 777 119 696 q 304 922 228 858 q 475 1021 381 985 q 679 1058 570 1058 q 857 1029 785 1058 q 972 956 928 1001 q 990 936 985 944 q 1000 932 995 929 q 1016 951 1006 935 l 1061 1025 q 1074 1038 1067 1035 q 1097 1042 1081 1042 l 1140 1042 q 1160 1038 1157 1042 q 1160 1020 1163 1034 l 1093 703 q 1084 682 1090 688 q 1059 676 1078 676 l 1020 676 q 1001 681 1004 676 q 999 699 998 685 q 966 835 1005 776 q 857 927 928 894 q 694 960 785 960 q 506 912 589 960 q 365 784 423 863 q 277 611 308 705 q 247 426 247 517 q 276 244 247 322 q 363 123 306 166 q 507 80 420 80 q 667 108 601 80 q 790 188 733 135 q 809 208 802 199 q 820 238 815 218 l 865 396 q 864 414 868 410 q 844 418 860 418 l 740 418 q 719 422 724 418 q 714 442 714 426 l 714 499 q 718 514 714 510 q 733 518 722 518 "},"Ġ":{"ha":1222,"x_min":60,"x_max":1196,"o":"m 775 1201 q 711 1228 738 1201 q 685 1292 685 1255 q 711 1356 685 1329 q 775 1382 738 1382 q 840 1356 813 1382 q 866 1292 866 1329 q 840 1228 866 1255 q 775 1201 813 1201 m 733 518 l 1169 518 q 1189 514 1182 518 q 1196 497 1196 510 l 1196 447 q 1190 423 1196 427 q 1165 418 1185 418 l 1062 418 q 1040 411 1042 418 q 1033 389 1037 403 l 997 257 q 988 232 993 242 q 973 211 983 222 q 873 111 938 164 q 713 21 807 58 q 497 -16 619 -16 q 272 33 371 -16 q 117 180 174 82 q 60 424 60 278 q 90 606 60 515 q 173 777 119 696 q 304 922 228 858 q 475 1021 381 985 q 679 1058 570 1058 q 857 1029 785 1058 q 972 956 928 1001 q 990 936 985 944 q 1000 932 995 929 q 1016 951 1006 935 l 1061 1025 q 1074 1038 1067 1035 q 1097 1042 1081 1042 l 1140 1042 q 1160 1038 1157 1042 q 1160 1020 1163 1034 l 1093 703 q 1084 682 1090 688 q 1059 676 1078 676 l 1020 676 q 1001 681 1004 676 q 999 699 998 685 q 966 835 1005 776 q 857 927 928 894 q 694 960 785 960 q 506 912 589 960 q 365 784 423 863 q 277 611 308 705 q 247 426 247 517 q 276 244 247 322 q 363 123 306 166 q 507 80 420 80 q 667 108 601 80 q 790 188 733 135 q 809 208 802 199 q 820 238 815 218 l 865 396 q 864 414 868 410 q 844 418 860 418 l 740 418 q 719 422 724 418 q 714 442 714 426 l 714 499 q 718 514 714 510 q 733 518 722 518 "},"Ģ":{"ha":1222,"x_min":60,"x_max":1196,"o":"m 349 -213 q 373 -159 349 -181 q 433 -138 398 -138 q 477 -150 457 -138 q 509 -187 497 -162 q 521 -252 521 -212 q 503 -325 521 -291 q 457 -384 486 -358 q 391 -426 427 -410 q 318 -446 355 -442 q 308 -445 311 -446 q 305 -436 305 -444 l 305 -407 q 309 -397 305 -399 q 319 -394 313 -395 q 377 -375 345 -390 q 432 -334 409 -359 q 456 -279 456 -309 q 453 -272 457 -272 q 443 -276 449 -273 q 428 -283 437 -281 q 410 -285 420 -285 q 364 -264 378 -285 q 349 -213 349 -244 m 733 518 l 1169 518 q 1189 514 1182 518 q 1196 497 1196 510 l 1196 447 q 1190 423 1196 427 q 1165 418 1185 418 l 1062 418 q 1040 411 1042 418 q 1033 389 1037 403 l 997 257 q 988 232 993 242 q 973 211 983 222 q 873 111 938 164 q 713 21 807 58 q 497 -16 619 -16 q 272 33 371 -16 q 117 180 174 82 q 60 424 60 278 q 90 606 60 515 q 173 777 119 696 q 304 922 228 858 q 475 1021 381 985 q 679 1058 570 1058 q 857 1029 785 1058 q 972 956 928 1001 q 990 936 985 944 q 1000 932 995 929 q 1016 951 1006 935 l 1061 1025 q 1074 1038 1067 1035 q 1097 1042 1081 1042 l 1140 1042 q 1160 1038 1157 1042 q 1160 1020 1163 1034 l 1093 703 q 1084 682 1090 688 q 1059 676 1078 676 l 1020 676 q 1001 681 1004 676 q 999 699 998 685 q 966 835 1005 776 q 857 927 928 894 q 694 960 785 960 q 506 912 589 960 q 365 784 423 863 q 277 611 308 705 q 247 426 247 517 q 276 244 247 322 q 363 123 306 166 q 507 80 420 80 q 667 108 601 80 q 790 188 733 135 q 809 208 802 199 q 820 238 815 218 l 865 396 q 864 414 868 410 q 844 418 860 418 l 740 418 q 719 422 724 418 q 714 442 714 426 l 714 499 q 718 514 714 510 q 733 518 722 518 "},"H":{"ha":1263,"x_min":-58,"x_max":1320,"o":"m -58 31 l -58 68 q -50 88 -58 85 q -28 92 -43 92 l 64 92 q 105 97 94 92 q 122 128 117 102 l 292 923 q 292 945 296 940 q 267 950 288 950 l 160 950 q 137 953 143 950 q 131 974 131 956 l 131 1014 q 135 1036 131 1031 q 154 1042 138 1042 l 601 1042 q 621 1036 618 1042 q 624 1013 624 1030 l 624 978 q 619 955 624 960 q 597 950 615 950 l 501 950 q 468 944 474 950 q 457 917 462 939 l 392 613 q 392 589 388 594 q 420 583 396 583 l 880 583 q 906 589 903 583 q 913 613 909 595 l 979 921 q 979 944 983 939 q 955 950 976 950 l 856 950 q 834 954 839 950 q 828 974 828 958 l 828 1019 q 834 1038 828 1033 q 853 1042 839 1042 l 1294 1042 q 1317 1039 1313 1042 q 1320 1017 1320 1036 l 1320 980 q 1315 955 1320 960 q 1290 950 1310 950 l 1188 950 q 1156 945 1161 950 q 1144 917 1150 940 l 975 124 q 974 98 970 103 q 1006 92 978 92 l 1109 92 q 1130 87 1126 92 q 1133 65 1133 82 l 1133 24 q 1129 5 1133 9 q 1109 0 1124 0 l 671 0 q 647 5 653 0 q 641 27 641 9 l 641 67 q 648 88 641 85 q 672 92 655 92 l 770 92 q 799 96 795 92 q 808 121 803 101 l 881 460 q 881 487 885 481 q 850 493 877 493 l 396 493 q 366 485 369 493 q 358 456 363 477 l 286 119 q 286 98 283 103 q 310 92 289 92 l 410 92 q 434 86 431 92 q 438 60 438 80 l 438 28 q 434 5 438 10 q 412 0 429 0 l -27 0 q -52 6 -47 0 q -58 31 -58 11 "},"Ĥ":{"ha":1263,"x_min":-58,"x_max":1320,"o":"m 573 1169 l 557 1190 q 551 1200 550 1197 q 561 1211 552 1203 l 722 1349 q 738 1358 731 1356 q 760 1360 745 1360 l 829 1360 q 849 1358 843 1360 q 859 1349 854 1355 l 962 1209 q 965 1201 965 1204 q 958 1193 965 1199 l 934 1172 q 922 1164 925 1163 q 912 1171 919 1165 l 804 1266 q 769 1267 789 1279 l 597 1165 q 583 1160 588 1159 q 573 1169 578 1162 m -58 31 l -58 68 q -50 88 -58 85 q -28 92 -43 92 l 64 92 q 105 97 94 92 q 122 128 117 102 l 292 923 q 292 945 296 940 q 267 950 288 950 l 160 950 q 137 953 143 950 q 131 974 131 956 l 131 1014 q 135 1036 131 1031 q 154 1042 138 1042 l 601 1042 q 621 1036 618 1042 q 624 1013 624 1030 l 624 978 q 619 955 624 960 q 597 950 615 950 l 501 950 q 468 944 474 950 q 457 917 462 939 l 392 613 q 392 589 388 594 q 420 583 396 583 l 880 583 q 906 589 903 583 q 913 613 909 595 l 979 921 q 979 944 983 939 q 955 950 976 950 l 856 950 q 834 954 839 950 q 828 974 828 958 l 828 1019 q 834 1038 828 1033 q 853 1042 839 1042 l 1294 1042 q 1317 1039 1313 1042 q 1320 1017 1320 1036 l 1320 980 q 1315 955 1320 960 q 1290 950 1310 950 l 1188 950 q 1156 945 1161 950 q 1144 917 1150 940 l 975 124 q 974 98 970 103 q 1006 92 978 92 l 1109 92 q 1130 87 1126 92 q 1133 65 1133 82 l 1133 24 q 1129 5 1133 9 q 1109 0 1124 0 l 671 0 q 647 5 653 0 q 641 27 641 9 l 641 67 q 648 88 641 85 q 672 92 655 92 l 770 92 q 799 96 795 92 q 808 121 803 101 l 881 460 q 881 487 885 481 q 850 493 877 493 l 396 493 q 366 485 369 493 q 358 456 363 477 l 286 119 q 286 98 283 103 q 310 92 289 92 l 410 92 q 434 86 431 92 q 438 60 438 80 l 438 28 q 434 5 438 10 q 412 0 429 0 l -27 0 q -52 6 -47 0 q -58 31 -58 11 "},"I":{"ha":587,"x_min":-51,"x_max":638,"o":"m -51 24 l -51 72 q -47 88 -51 85 q -30 92 -42 92 l 88 92 q 118 96 112 92 q 129 120 124 101 l 306 921 q 306 945 311 940 q 275 950 301 950 l 169 950 q 152 954 154 950 q 149 973 149 958 l 149 1017 q 153 1037 149 1033 q 173 1042 158 1042 l 614 1042 q 633 1038 628 1042 q 638 1017 638 1033 l 638 973 q 633 953 638 957 q 612 950 628 950 l 501 950 q 477 944 480 950 q 471 921 474 938 l 294 120 q 295 96 290 100 q 327 92 301 92 l 421 92 q 447 86 443 92 q 451 58 451 80 l 451 28 q 448 6 451 11 q 428 0 444 0 l -25 0 q -46 4 -41 0 q -51 24 -51 8 "},"Ì":{"ha":587,"x_min":-51,"x_max":638,"o":"m 274 1347 q 305 1372 285 1365 q 345 1376 324 1380 q 380 1357 366 1372 l 519 1216 q 519 1191 531 1203 l 488 1158 q 479 1151 483 1152 q 467 1154 475 1149 l 294 1254 q 263 1292 270 1267 q 274 1347 255 1317 m -51 24 l -51 72 q -47 88 -51 85 q -30 92 -42 92 l 88 92 q 118 96 112 92 q 129 120 124 101 l 306 921 q 306 945 311 940 q 275 950 301 950 l 169 950 q 152 954 154 950 q 149 973 149 958 l 149 1017 q 153 1037 149 1033 q 173 1042 158 1042 l 614 1042 q 633 1038 628 1042 q 638 1017 638 1033 l 638 973 q 633 953 638 957 q 612 950 628 950 l 501 950 q 477 944 480 950 q 471 921 474 938 l 294 120 q 295 96 290 100 q 327 92 301 92 l 421 92 q 447 86 443 92 q 451 58 451 80 l 451 28 q 448 6 451 11 q 428 0 444 0 l -25 0 q -46 4 -41 0 q -51 24 -51 8 "},"Í":{"ha":587,"x_min":-51,"x_max":647,"o":"m 628 1347 q 639 1292 647 1317 q 608 1254 631 1267 l 439 1157 q 425 1151 430 1151 q 413 1160 420 1151 l 381 1192 q 381 1215 370 1204 l 522 1357 q 557 1376 536 1373 q 597 1372 577 1380 q 628 1347 617 1365 m -51 24 l -51 72 q -47 88 -51 85 q -30 92 -42 92 l 88 92 q 118 96 112 92 q 129 120 124 101 l 306 921 q 306 945 311 940 q 275 950 301 950 l 169 950 q 152 954 154 950 q 149 973 149 958 l 149 1017 q 153 1037 149 1033 q 173 1042 158 1042 l 614 1042 q 633 1038 628 1042 q 638 1017 638 1033 l 638 973 q 633 953 638 957 q 612 950 628 950 l 501 950 q 477 944 480 950 q 471 921 474 938 l 294 120 q 295 96 290 100 q 327 92 301 92 l 421 92 q 447 86 443 92 q 451 58 451 80 l 451 28 q 448 6 451 11 q 428 0 444 0 l -25 0 q -46 4 -41 0 q -51 24 -51 8 "},"Î":{"ha":587,"x_min":-51,"x_max":656,"o":"m 263 1169 l 247 1190 q 241 1200 240 1197 q 251 1211 242 1203 l 412 1349 q 428 1358 421 1356 q 451 1360 435 1360 l 519 1360 q 539 1358 533 1360 q 549 1349 544 1355 l 652 1209 q 656 1201 656 1204 q 649 1193 656 1199 l 624 1172 q 613 1164 615 1163 q 602 1171 610 1165 l 494 1266 q 460 1267 479 1279 l 288 1165 q 274 1160 278 1159 q 263 1169 269 1162 m -51 24 l -51 72 q -47 88 -51 85 q -30 92 -42 92 l 88 92 q 118 96 112 92 q 129 120 124 101 l 306 921 q 306 945 311 940 q 275 950 301 950 l 169 950 q 152 954 154 950 q 149 973 149 958 l 149 1017 q 153 1037 149 1033 q 173 1042 158 1042 l 614 1042 q 633 1038 628 1042 q 638 1017 638 1033 l 638 973 q 633 953 638 957 q 612 950 628 950 l 501 950 q 477 944 480 950 q 471 921 474 938 l 294 120 q 295 96 290 100 q 327 92 301 92 l 421 92 q 447 86 443 92 q 451 58 451 80 l 451 28 q 448 6 451 11 q 428 0 444 0 l -25 0 q -46 4 -41 0 q -51 24 -51 8 "},"Ï":{"ha":587,"x_min":-51,"x_max":653,"o":"m 577 1174 q 524 1196 546 1174 q 501 1250 501 1218 q 524 1304 501 1281 q 577 1326 546 1326 q 631 1304 609 1326 q 653 1250 653 1281 q 631 1196 653 1218 q 577 1174 609 1174 m 332 1174 q 278 1196 300 1174 q 256 1250 256 1218 q 278 1304 256 1281 q 332 1326 300 1326 q 385 1304 363 1326 q 408 1250 408 1281 q 385 1196 408 1218 q 332 1174 363 1174 m -51 24 l -51 72 q -47 88 -51 85 q -30 92 -42 92 l 88 92 q 118 96 112 92 q 129 120 124 101 l 306 921 q 306 945 311 940 q 275 950 301 950 l 169 950 q 152 954 154 950 q 149 973 149 958 l 149 1017 q 153 1037 149 1033 q 173 1042 158 1042 l 614 1042 q 633 1038 628 1042 q 638 1017 638 1033 l 638 973 q 633 953 638 957 q 612 950 628 950 l 501 950 q 477 944 480 950 q 471 921 474 938 l 294 120 q 295 96 290 100 q 327 92 301 92 l 421 92 q 447 86 443 92 q 451 58 451 80 l 451 28 q 448 6 451 11 q 428 0 444 0 l -25 0 q -46 4 -41 0 q -51 24 -51 8 "},"Ĩ":{"ha":587,"x_min":-51,"x_max":728,"o":"m 559 1162 q 480 1178 507 1162 q 435 1216 453 1195 q 402 1250 420 1233 q 349 1267 384 1267 q 301 1247 322 1267 q 271 1190 281 1227 q 253 1181 266 1181 l 217 1181 q 205 1186 205 1181 q 207 1201 204 1191 q 243 1282 221 1246 q 301 1340 266 1319 q 385 1362 336 1362 q 464 1345 438 1362 q 507 1308 491 1329 q 536 1274 520 1291 q 583 1256 553 1256 q 628 1275 609 1256 q 659 1328 648 1293 q 665 1340 662 1336 q 678 1343 669 1343 l 717 1343 q 727 1340 726 1343 q 726 1328 728 1336 q 692 1239 714 1276 q 637 1182 669 1201 q 559 1162 604 1162 m -51 24 l -51 72 q -47 88 -51 85 q -30 92 -42 92 l 88 92 q 118 96 112 92 q 129 120 124 101 l 306 921 q 306 945 311 940 q 275 950 301 950 l 169 950 q 152 954 154 950 q 149 973 149 958 l 149 1017 q 153 1037 149 1033 q 173 1042 158 1042 l 614 1042 q 633 1038 628 1042 q 638 1017 638 1033 l 638 973 q 633 953 638 957 q 612 950 628 950 l 501 950 q 477 944 480 950 q 471 921 474 938 l 294 120 q 295 96 290 100 q 327 92 301 92 l 421 92 q 447 86 443 92 q 451 58 451 80 l 451 28 q 448 6 451 11 q 428 0 444 0 l -25 0 q -46 4 -41 0 q -51 24 -51 8 "},"Ī":{"ha":587,"x_min":-51,"x_max":638,"o":"m 278 1184 l 278 1217 q 281 1231 278 1226 q 292 1235 283 1235 l 588 1235 q 607 1232 601 1235 q 612 1214 612 1228 l 612 1183 q 610 1167 612 1172 q 597 1162 608 1162 l 303 1162 q 284 1166 290 1162 q 278 1184 278 1169 m -51 24 l -51 72 q -47 88 -51 85 q -30 92 -42 92 l 88 92 q 118 96 112 92 q 129 120 124 101 l 306 921 q 306 945 311 940 q 275 950 301 950 l 169 950 q 152 954 154 950 q 149 973 149 958 l 149 1017 q 153 1037 149 1033 q 173 1042 158 1042 l 614 1042 q 633 1038 628 1042 q 638 1017 638 1033 l 638 973 q 633 953 638 957 q 612 950 628 950 l 501 950 q 477 944 480 950 q 471 921 474 938 l 294 120 q 295 96 290 100 q 327 92 301 92 l 421 92 q 447 86 443 92 q 451 58 451 80 l 451 28 q 448 6 451 11 q 428 0 444 0 l -25 0 q -46 4 -41 0 q -51 24 -51 8 "},"Ĭ":{"ha":587,"x_min":-51,"x_max":645,"o":"m 451 1161 q 351 1183 384 1161 q 311 1244 318 1204 q 315 1337 303 1283 q 333 1350 317 1350 l 353 1350 q 363 1339 365 1350 q 381 1274 358 1296 q 456 1252 405 1252 q 537 1272 503 1252 q 585 1330 571 1291 q 590 1345 589 1340 q 604 1350 592 1350 l 632 1350 q 644 1347 643 1350 q 642 1333 645 1344 q 578 1208 623 1255 q 451 1161 533 1161 m -51 24 l -51 72 q -47 88 -51 85 q -30 92 -42 92 l 88 92 q 118 96 112 92 q 129 120 124 101 l 306 921 q 306 945 311 940 q 275 950 301 950 l 169 950 q 152 954 154 950 q 149 973 149 958 l 149 1017 q 153 1037 149 1033 q 173 1042 158 1042 l 614 1042 q 633 1038 628 1042 q 638 1017 638 1033 l 638 973 q 633 953 638 957 q 612 950 628 950 l 501 950 q 477 944 480 950 q 471 921 474 938 l 294 120 q 295 96 290 100 q 327 92 301 92 l 421 92 q 447 86 443 92 q 451 58 451 80 l 451 28 q 448 6 451 11 q 428 0 444 0 l -25 0 q -46 4 -41 0 q -51 24 -51 8 "},"Į":{"ha":587,"x_min":-51,"x_max":638,"o":"m 108 -294 q 34 -284 67 -294 q -16 -250 1 -274 q -25 -186 -33 -226 q 5 -126 -19 -155 q 63 -70 28 -97 q 134 -21 97 -44 q 203 21 172 2 q 227 30 217 28 q 240 25 238 31 q 242 11 246 18 q 227 -6 238 3 q 185 -47 208 -24 q 146 -95 163 -69 q 122 -149 128 -120 q 127 -196 116 -175 q 172 -217 138 -217 q 218 -205 198 -217 q 253 -177 238 -193 q 274 -172 265 -163 l 287 -183 q 292 -192 292 -188 q 285 -203 291 -195 q 215 -267 256 -241 q 108 -294 173 -294 m -51 24 l -51 72 q -47 88 -51 85 q -30 92 -42 92 l 88 92 q 118 96 112 92 q 129 120 124 101 l 306 921 q 306 945 311 940 q 275 950 301 950 l 169 950 q 152 954 154 950 q 149 973 149 958 l 149 1017 q 153 1037 149 1033 q 173 1042 158 1042 l 614 1042 q 633 1038 628 1042 q 638 1017 638 1033 l 638 973 q 633 953 638 957 q 612 950 628 950 l 501 950 q 477 944 480 950 q 471 921 474 938 l 294 120 q 295 96 290 100 q 327 92 301 92 l 421 92 q 447 86 443 92 q 451 58 451 80 l 451 28 q 448 6 451 11 q 428 0 444 0 l -25 0 q -46 4 -41 0 q -51 24 -51 8 "},"İ":{"ha":587,"x_min":-51,"x_max":638,"o":"m 465 1201 q 401 1228 428 1201 q 374 1292 374 1255 q 401 1356 374 1329 q 465 1382 428 1382 q 529 1356 503 1382 q 556 1292 556 1329 q 529 1228 556 1255 q 465 1201 503 1201 m -51 24 l -51 72 q -47 88 -51 85 q -30 92 -42 92 l 88 92 q 118 96 112 92 q 129 120 124 101 l 306 921 q 306 945 311 940 q 275 950 301 950 l 169 950 q 152 954 154 950 q 149 973 149 958 l 149 1017 q 153 1037 149 1033 q 173 1042 158 1042 l 614 1042 q 633 1038 628 1042 q 638 1017 638 1033 l 638 973 q 633 953 638 957 q 612 950 628 950 l 501 950 q 477 944 480 950 q 471 921 474 938 l 294 120 q 295 96 290 100 q 327 92 301 92 l 421 92 q 447 86 443 92 q 451 58 451 80 l 451 28 q 448 6 451 11 q 428 0 444 0 l -25 0 q -46 4 -41 0 q -51 24 -51 8 "},"J":{"ha":853,"x_min":-44,"x_max":938,"o":"m -44 215 q -26 297 -44 263 q 21 347 -8 330 q 83 365 50 365 q 155 339 125 365 q 184 271 184 313 q 174 221 184 238 q 150 195 163 204 q 125 176 136 186 q 115 144 115 165 q 123 117 115 133 q 154 88 131 101 q 220 75 177 75 q 359 138 292 75 q 457 333 426 201 l 591 928 q 590 947 594 943 q 565 950 585 950 l 445 950 q 422 953 428 950 q 416 974 416 956 l 416 1014 q 422 1037 416 1033 q 446 1042 428 1042 l 910 1042 q 930 1038 922 1042 q 938 1022 938 1035 l 938 978 q 933 955 938 959 q 909 950 928 950 l 785 950 q 761 944 765 950 q 754 922 758 938 l 623 375 q 539 173 594 261 q 404 35 484 85 q 220 -15 324 -15 q 65 20 123 -15 q -18 108 8 55 q -44 215 -44 160 "},"Ĵ":{"ha":853,"x_min":-44,"x_max":938,"o":"m 488 1169 l 472 1190 q 466 1200 465 1197 q 476 1211 467 1203 l 637 1349 q 653 1358 646 1356 q 676 1360 660 1360 l 744 1360 q 764 1358 758 1360 q 774 1349 769 1355 l 877 1209 q 881 1201 881 1204 q 874 1193 881 1199 l 849 1172 q 838 1164 840 1163 q 827 1171 835 1165 l 719 1266 q 685 1267 704 1279 l 513 1165 q 499 1160 503 1159 q 488 1169 494 1162 m -44 215 q -26 297 -44 263 q 21 347 -8 330 q 83 365 50 365 q 155 339 125 365 q 184 271 184 313 q 174 221 184 238 q 150 195 163 204 q 125 176 136 186 q 115 144 115 165 q 123 117 115 133 q 154 88 131 101 q 220 75 177 75 q 359 138 292 75 q 457 333 426 201 l 591 928 q 590 947 594 943 q 565 950 585 950 l 445 950 q 422 953 428 950 q 416 974 416 956 l 416 1014 q 422 1037 416 1033 q 446 1042 428 1042 l 910 1042 q 930 1038 922 1042 q 938 1022 938 1035 l 938 978 q 933 955 938 959 q 909 950 928 950 l 785 950 q 761 944 765 950 q 754 922 758 938 l 623 375 q 539 173 594 261 q 404 35 484 85 q 220 -15 324 -15 q 65 20 123 -15 q -18 108 8 55 q -44 215 -44 160 "},"K":{"ha":1213,"x_min":-58,"x_max":1201,"o":"m -58 27 l -58 72 q -52 89 -58 86 q -33 92 -47 92 l 66 92 q 95 96 90 92 q 106 121 101 101 l 282 924 q 282 945 286 940 q 258 950 278 950 l 171 950 q 153 955 156 950 q 150 974 150 960 l 150 1026 q 155 1039 150 1037 q 170 1042 160 1042 l 573 1042 q 594 1037 589 1042 q 599 1015 599 1033 l 599 980 q 595 955 599 961 q 573 949 591 949 l 469 949 q 451 943 453 949 q 446 924 449 938 l 355 511 q 352 474 347 472 q 382 499 358 477 l 865 924 q 879 938 874 933 q 877 947 883 944 q 848 949 871 949 l 788 949 q 766 955 771 949 q 762 976 762 960 l 762 1017 q 767 1037 762 1032 q 787 1042 772 1042 l 1181 1042 q 1198 1036 1196 1042 q 1201 1017 1201 1031 l 1201 976 q 1197 955 1201 961 q 1176 949 1192 949 l 1082 949 q 1043 944 1053 949 q 1019 926 1033 939 l 644 601 q 620 576 620 582 q 648 556 620 571 q 752 473 713 520 q 812 373 790 425 q 847 271 833 321 q 874 181 860 221 q 911 116 888 140 q 976 92 935 92 l 1078 92 q 1103 86 1099 92 q 1108 61 1108 81 l 1108 28 q 1102 5 1108 9 q 1079 0 1097 0 l 913 0 q 788 25 833 0 q 720 91 743 49 q 685 184 697 132 q 662 290 674 235 q 627 397 650 345 q 557 488 603 449 q 531 501 538 505 q 506 483 523 498 l 341 340 q 318 317 326 327 q 304 282 310 307 l 267 116 q 269 96 265 100 q 293 92 273 92 l 374 92 q 393 86 390 92 q 397 65 397 81 l 397 22 q 391 3 397 6 q 368 0 385 0 l -35 0 q -54 6 -51 0 q -58 27 -58 12 "},"Ķ":{"ha":1213,"x_min":-58,"x_max":1201,"o":"m 391 -213 q 416 -159 391 -181 q 475 -138 440 -138 q 519 -150 499 -138 q 551 -187 539 -162 q 563 -252 563 -212 q 546 -325 563 -291 q 499 -384 528 -358 q 433 -426 469 -410 q 360 -446 397 -442 q 350 -445 353 -446 q 347 -436 347 -444 l 347 -407 q 351 -397 347 -399 q 361 -394 355 -395 q 419 -375 388 -390 q 475 -334 451 -359 q 498 -279 498 -309 q 495 -272 499 -272 q 485 -276 491 -273 q 471 -283 479 -281 q 452 -285 463 -285 q 406 -264 421 -285 q 391 -213 391 -244 m -58 27 l -58 72 q -52 89 -58 86 q -33 92 -47 92 l 66 92 q 95 96 90 92 q 106 121 101 101 l 282 924 q 282 945 286 940 q 258 950 278 950 l 171 950 q 153 955 156 950 q 150 974 150 960 l 150 1026 q 155 1039 150 1037 q 170 1042 160 1042 l 573 1042 q 594 1037 589 1042 q 599 1015 599 1033 l 599 980 q 595 955 599 961 q 573 949 591 949 l 469 949 q 451 943 453 949 q 446 924 449 938 l 355 511 q 352 474 347 472 q 382 499 358 477 l 865 924 q 879 938 874 933 q 877 947 883 944 q 848 949 871 949 l 788 949 q 766 955 771 949 q 762 976 762 960 l 762 1017 q 767 1037 762 1032 q 787 1042 772 1042 l 1181 1042 q 1198 1036 1196 1042 q 1201 1017 1201 1031 l 1201 976 q 1197 955 1201 961 q 1176 949 1192 949 l 1082 949 q 1043 944 1053 949 q 1019 926 1033 939 l 644 601 q 620 576 620 582 q 648 556 620 571 q 752 473 713 520 q 812 373 790 425 q 847 271 833 321 q 874 181 860 221 q 911 116 888 140 q 976 92 935 92 l 1078 92 q 1103 86 1099 92 q 1108 61 1108 81 l 1108 28 q 1102 5 1108 9 q 1079 0 1097 0 l 913 0 q 788 25 833 0 q 720 91 743 49 q 685 184 697 132 q 662 290 674 235 q 627 397 650 345 q 557 488 603 449 q 531 501 538 505 q 506 483 523 498 l 341 340 q 318 317 326 327 q 304 282 310 307 l 267 116 q 269 96 265 100 q 293 92 273 92 l 374 92 q 393 86 390 92 q 397 65 397 81 l 397 22 q 391 3 397 6 q 368 0 385 0 l -35 0 q -54 6 -51 0 q -58 27 -58 12 "},"L":{"ha":1011,"x_min":-58,"x_max":940,"o":"m -58 24 l -58 72 q -51 88 -58 85 q -31 92 -44 92 l 81 92 q 113 97 108 92 q 124 123 119 101 l 296 925 q 295 946 299 942 q 272 950 292 950 l 162 950 q 142 955 145 950 q 139 977 139 960 l 139 1017 q 142 1036 139 1031 q 160 1042 145 1042 l 608 1042 q 628 1037 623 1042 q 633 1017 633 1033 l 633 975 q 629 955 633 960 q 610 950 625 950 l 490 950 q 467 945 470 950 q 460 924 465 940 l 292 131 q 293 100 286 108 q 329 92 299 92 l 540 92 q 690 114 631 92 q 786 191 749 136 q 851 344 824 246 q 862 366 856 360 q 890 372 868 372 l 919 372 q 936 367 932 372 q 937 353 940 363 l 862 28 q 851 6 858 11 q 824 0 845 0 l -28 0 q -51 3 -45 0 q -58 24 -58 7 "},"Ĺ":{"ha":1011,"x_min":-58,"x_max":940,"o":"m 604 1347 q 615 1292 623 1317 q 584 1254 607 1267 l 415 1157 q 401 1151 406 1151 q 389 1160 397 1151 l 358 1192 q 358 1215 347 1204 l 498 1357 q 533 1376 513 1373 q 573 1372 553 1380 q 604 1347 593 1365 m -58 24 l -58 72 q -51 88 -58 85 q -31 92 -44 92 l 81 92 q 113 97 108 92 q 124 123 119 101 l 296 925 q 295 946 299 942 q 272 950 292 950 l 162 950 q 142 955 145 950 q 139 977 139 960 l 139 1017 q 142 1036 139 1031 q 160 1042 145 1042 l 608 1042 q 628 1037 623 1042 q 633 1017 633 1033 l 633 975 q 629 955 633 960 q 610 950 625 950 l 490 950 q 467 945 470 950 q 460 924 465 940 l 292 131 q 293 100 286 108 q 329 92 299 92 l 540 92 q 690 114 631 92 q 786 191 749 136 q 851 344 824 246 q 862 366 856 360 q 890 372 868 372 l 919 372 q 936 367 932 372 q 937 353 940 363 l 862 28 q 851 6 858 11 q 824 0 845 0 l -28 0 q -51 3 -45 0 q -58 24 -58 7 "},"Ļ":{"ha":1011,"x_min":-58,"x_max":940,"o":"m 249 -213 q 273 -159 249 -181 q 333 -138 298 -138 q 377 -150 357 -138 q 409 -187 397 -162 q 421 -252 421 -212 q 403 -325 421 -291 q 357 -384 386 -358 q 291 -426 327 -410 q 218 -446 255 -442 q 208 -445 211 -446 q 205 -436 205 -444 l 205 -407 q 209 -397 205 -399 q 219 -394 213 -395 q 277 -375 245 -390 q 332 -334 309 -359 q 356 -279 356 -309 q 353 -272 357 -272 q 343 -276 349 -273 q 328 -283 337 -281 q 310 -285 320 -285 q 264 -264 278 -285 q 249 -213 249 -244 m -58 24 l -58 72 q -51 88 -58 85 q -31 92 -44 92 l 81 92 q 113 97 108 92 q 124 123 119 101 l 296 925 q 295 946 299 942 q 272 950 292 950 l 162 950 q 142 955 145 950 q 139 977 139 960 l 139 1017 q 142 1036 139 1031 q 160 1042 145 1042 l 608 1042 q 628 1037 623 1042 q 633 1017 633 1033 l 633 975 q 629 955 633 960 q 610 950 625 950 l 490 950 q 467 945 470 950 q 460 924 465 940 l 292 131 q 293 100 286 108 q 329 92 299 92 l 540 92 q 690 114 631 92 q 786 191 749 136 q 851 344 824 246 q 862 366 856 360 q 890 372 868 372 l 919 372 q 936 367 932 372 q 937 353 940 363 l 862 28 q 851 6 858 11 q 824 0 845 0 l -28 0 q -51 3 -45 0 q -58 24 -58 7 "},"Ľ":{"ha":1018,"x_min":-58,"x_max":981,"o":"m 766 964 q 797 1031 766 1004 q 871 1058 827 1058 q 926 1042 901 1058 q 967 995 951 1027 q 982 915 982 964 q 960 824 982 867 q 901 749 938 782 q 819 697 864 717 q 728 673 774 677 q 715 674 719 672 q 711 685 711 675 l 711 722 q 716 734 711 731 q 728 737 721 736 q 802 761 762 742 q 871 812 842 781 q 900 881 900 843 q 896 890 901 891 q 884 884 891 888 q 866 877 876 879 q 842 874 856 874 q 785 900 804 874 q 766 964 766 926 m -58 24 l -58 72 q -51 88 -58 85 q -31 92 -44 92 l 81 92 q 113 97 108 92 q 124 123 119 101 l 296 925 q 295 946 299 942 q 272 950 292 950 l 162 950 q 142 955 145 950 q 139 977 139 960 l 139 1017 q 142 1036 139 1031 q 160 1042 145 1042 l 608 1042 q 628 1037 623 1042 q 633 1017 633 1033 l 633 975 q 629 955 633 960 q 610 950 625 950 l 490 950 q 467 945 470 950 q 460 924 465 940 l 292 131 q 293 100 286 108 q 329 92 299 92 l 540 92 q 690 114 631 92 q 786 191 749 136 q 851 344 824 246 q 862 366 856 360 q 890 372 868 372 l 919 372 q 936 367 932 372 q 937 353 940 363 l 862 28 q 851 6 858 11 q 824 0 845 0 l -28 0 q -51 3 -45 0 q -58 24 -58 7 "},"M":{"ha":1446,"x_min":-72,"x_max":1462,"o":"m 1085 811 l 644 6 q 630 -10 638 -6 q 603 -14 622 -14 l 549 -14 q 527 -7 531 -14 q 521 15 522 0 l 411 855 q 409 891 408 876 q 403 906 410 906 q 395 894 398 906 q 388 860 393 882 l 205 118 q 206 95 200 99 q 235 92 211 92 l 335 92 q 352 88 347 92 q 357 70 357 83 l 357 22 q 351 3 357 6 q 331 0 346 0 l -42 0 q -66 3 -60 0 q -72 24 -72 6 l -72 67 q -67 87 -72 82 q -49 92 -63 92 l 49 92 q 87 97 80 92 q 100 126 94 101 l 300 917 q 301 945 306 940 q 267 950 296 950 l 183 950 q 160 954 166 950 q 155 974 155 958 l 155 1015 q 163 1038 155 1035 q 189 1042 171 1042 l 489 1042 q 534 1035 524 1042 q 548 996 544 1028 l 632 297 q 637 238 637 256 q 647 219 637 219 q 667 242 656 219 q 695 297 678 265 l 1087 1017 q 1103 1037 1095 1033 q 1136 1042 1112 1042 l 1438 1042 q 1456 1038 1451 1042 q 1462 1019 1462 1035 l 1462 979 q 1456 955 1462 959 q 1429 950 1450 950 l 1322 950 q 1299 947 1305 950 q 1290 931 1292 944 l 1151 121 q 1152 97 1148 102 q 1179 92 1157 92 l 1294 92 q 1318 86 1315 92 q 1322 60 1322 81 l 1322 28 q 1316 4 1322 8 q 1289 0 1309 0 l 858 0 q 835 5 840 0 q 831 28 831 10 l 831 61 q 836 86 831 81 q 862 92 841 92 l 966 92 q 989 94 983 92 q 997 104 995 97 q 1000 124 998 111 l 1121 799 q 1132 851 1127 831 q 1139 882 1138 872 q 1134 892 1140 892 q 1115 870 1125 892 q 1085 811 1106 847 "},"N":{"ha":1259,"x_min":-58,"x_max":1310,"o":"m 250 950 l 182 950 q 160 953 165 950 q 155 972 155 957 l 155 1020 q 160 1038 155 1034 q 178 1042 165 1042 l 448 1042 q 481 1037 472 1042 q 497 1018 490 1033 l 875 329 q 887 303 883 314 q 897 292 891 292 q 905 301 903 292 q 910 330 906 310 l 1037 925 q 1033 945 1040 940 q 1008 950 1026 950 l 919 950 q 897 955 901 950 q 892 979 892 960 l 892 1018 q 898 1038 892 1034 q 917 1042 903 1042 l 1288 1042 q 1307 1037 1303 1042 q 1310 1017 1310 1032 l 1310 974 q 1306 955 1310 959 q 1287 950 1302 950 l 1167 950 q 1145 947 1149 950 q 1138 928 1142 943 l 944 3 q 939 -10 942 -6 q 924 -14 935 -14 l 901 -14 q 881 -10 888 -14 q 870 2 875 -6 l 395 831 q 382 856 386 847 q 374 865 378 865 q 366 856 367 865 q 361 828 365 847 l 209 114 q 210 94 206 97 q 234 92 214 92 l 340 92 q 359 89 353 92 q 366 72 366 86 l 366 28 q 359 4 366 8 q 334 0 352 0 l -35 0 q -53 3 -49 0 q -58 19 -58 7 l -58 67 q -54 87 -58 82 q -36 92 -51 92 l 83 92 q 103 96 101 92 q 108 114 106 100 l 281 917 q 281 944 285 938 q 250 950 276 950 "},"Ñ":{"ha":1259,"x_min":-58,"x_max":1310,"o":"m 891 1162 q 812 1178 839 1162 q 767 1216 785 1195 q 734 1250 752 1233 q 681 1267 716 1267 q 633 1247 654 1267 q 603 1190 613 1227 q 585 1181 598 1181 l 549 1181 q 536 1186 537 1181 q 539 1201 536 1191 q 575 1282 553 1246 q 633 1340 598 1319 q 717 1362 668 1362 q 796 1345 769 1362 q 839 1308 823 1329 q 868 1274 852 1291 q 915 1256 885 1256 q 960 1275 941 1256 q 991 1328 980 1293 q 997 1340 994 1336 q 1010 1343 1001 1343 l 1049 1343 q 1059 1340 1058 1343 q 1058 1328 1060 1336 q 1024 1239 1046 1276 q 969 1182 1001 1201 q 891 1162 936 1162 m 250 950 l 182 950 q 160 953 165 950 q 155 972 155 957 l 155 1020 q 160 1038 155 1034 q 178 1042 165 1042 l 448 1042 q 481 1037 472 1042 q 497 1018 490 1033 l 875 329 q 887 303 883 314 q 897 292 891 292 q 905 301 903 292 q 910 330 906 310 l 1037 925 q 1033 945 1040 940 q 1008 950 1026 950 l 919 950 q 897 955 901 950 q 892 979 892 960 l 892 1018 q 898 1038 892 1034 q 917 1042 903 1042 l 1288 1042 q 1307 1037 1303 1042 q 1310 1017 1310 1032 l 1310 974 q 1306 955 1310 959 q 1287 950 1302 950 l 1167 950 q 1145 947 1149 950 q 1138 928 1142 943 l 944 3 q 939 -10 942 -6 q 924 -14 935 -14 l 901 -14 q 881 -10 888 -14 q 870 2 875 -6 l 395 831 q 382 856 386 847 q 374 865 378 865 q 366 856 367 865 q 361 828 365 847 l 209 114 q 210 94 206 97 q 234 92 214 92 l 340 92 q 359 89 353 92 q 366 72 366 86 l 366 28 q 359 4 366 8 q 334 0 352 0 l -35 0 q -53 3 -49 0 q -58 19 -58 7 l -58 67 q -54 87 -58 82 q -36 92 -51 92 l 83 92 q 103 96 101 92 q 108 114 106 100 l 281 917 q 281 944 285 938 q 250 950 276 950 "},"Ń":{"ha":1259,"x_min":-58,"x_max":1310,"o":"m 945 1347 q 956 1292 964 1317 q 925 1254 948 1267 l 756 1157 q 742 1151 747 1151 q 730 1160 738 1151 l 699 1192 q 699 1215 688 1204 l 839 1357 q 874 1376 853 1373 q 914 1372 894 1380 q 945 1347 934 1365 m 250 950 l 182 950 q 160 953 165 950 q 155 972 155 957 l 155 1020 q 160 1038 155 1034 q 178 1042 165 1042 l 448 1042 q 481 1037 472 1042 q 497 1018 490 1033 l 875 329 q 887 303 883 314 q 897 292 891 292 q 905 301 903 292 q 910 330 906 310 l 1037 925 q 1033 945 1040 940 q 1008 950 1026 950 l 919 950 q 897 955 901 950 q 892 979 892 960 l 892 1018 q 898 1038 892 1034 q 917 1042 903 1042 l 1288 1042 q 1307 1037 1303 1042 q 1310 1017 1310 1032 l 1310 974 q 1306 955 1310 959 q 1287 950 1302 950 l 1167 950 q 1145 947 1149 950 q 1138 928 1142 943 l 944 3 q 939 -10 942 -6 q 924 -14 935 -14 l 901 -14 q 881 -10 888 -14 q 870 2 875 -6 l 395 831 q 382 856 386 847 q 374 865 378 865 q 366 856 367 865 q 361 828 365 847 l 209 114 q 210 94 206 97 q 234 92 214 92 l 340 92 q 359 89 353 92 q 366 72 366 86 l 366 28 q 359 4 366 8 q 334 0 352 0 l -35 0 q -53 3 -49 0 q -58 19 -58 7 l -58 67 q -54 87 -58 82 q -36 92 -51 92 l 83 92 q 103 96 101 92 q 108 114 106 100 l 281 917 q 281 944 285 938 q 250 950 276 950 "},"Ņ":{"ha":1259,"x_min":-58,"x_max":1310,"o":"m 433 -213 q 458 -159 433 -181 q 517 -138 483 -138 q 561 -150 542 -138 q 593 -187 581 -162 q 606 -252 606 -212 q 588 -325 606 -291 q 541 -384 571 -358 q 476 -426 512 -410 q 403 -446 440 -442 q 393 -445 396 -446 q 390 -436 390 -444 l 390 -407 q 393 -397 390 -399 q 403 -394 397 -395 q 462 -375 430 -390 q 517 -334 494 -359 q 540 -279 540 -309 q 538 -272 542 -272 q 528 -276 533 -273 q 513 -283 522 -281 q 494 -285 505 -285 q 448 -264 463 -285 q 433 -213 433 -244 m 250 950 l 182 950 q 160 953 165 950 q 155 972 155 957 l 155 1020 q 160 1038 155 1034 q 178 1042 165 1042 l 448 1042 q 481 1037 472 1042 q 497 1018 490 1033 l 875 329 q 887 303 883 314 q 897 292 891 292 q 905 301 903 292 q 910 330 906 310 l 1037 925 q 1033 945 1040 940 q 1008 950 1026 950 l 919 950 q 897 955 901 950 q 892 979 892 960 l 892 1018 q 898 1038 892 1034 q 917 1042 903 1042 l 1288 1042 q 1307 1037 1303 1042 q 1310 1017 1310 1032 l 1310 974 q 1306 955 1310 959 q 1287 950 1302 950 l 1167 950 q 1145 947 1149 950 q 1138 928 1142 943 l 944 3 q 939 -10 942 -6 q 924 -14 935 -14 l 901 -14 q 881 -10 888 -14 q 870 2 875 -6 l 395 831 q 382 856 386 847 q 374 865 378 865 q 366 856 367 865 q 361 828 365 847 l 209 114 q 210 94 206 97 q 234 92 214 92 l 340 92 q 359 89 353 92 q 366 72 366 86 l 366 28 q 359 4 366 8 q 334 0 352 0 l -35 0 q -53 3 -49 0 q -58 19 -58 7 l -58 67 q -54 87 -58 82 q -36 92 -51 92 l 83 92 q 103 96 101 92 q 108 114 106 100 l 281 917 q 281 944 285 938 q 250 950 276 950 "},"Ň":{"ha":1259,"x_min":-58,"x_max":1310,"o":"m 685 1189 l 594 1313 q 588 1327 588 1322 q 599 1340 588 1333 l 619 1356 q 636 1363 632 1364 q 651 1354 641 1362 l 747 1279 q 778 1266 763 1267 q 815 1279 793 1266 l 951 1363 q 968 1368 964 1370 q 980 1357 973 1366 l 990 1345 q 998 1331 998 1336 q 988 1316 999 1326 l 835 1185 q 820 1173 826 1177 q 797 1169 813 1169 l 731 1169 q 701 1174 710 1169 q 685 1189 692 1180 m 250 950 l 182 950 q 160 953 165 950 q 155 972 155 957 l 155 1020 q 160 1038 155 1034 q 178 1042 165 1042 l 448 1042 q 481 1037 472 1042 q 497 1018 490 1033 l 875 329 q 887 303 883 314 q 897 292 891 292 q 905 301 903 292 q 910 330 906 310 l 1037 925 q 1033 945 1040 940 q 1008 950 1026 950 l 919 950 q 897 955 901 950 q 892 979 892 960 l 892 1018 q 898 1038 892 1034 q 917 1042 903 1042 l 1288 1042 q 1307 1037 1303 1042 q 1310 1017 1310 1032 l 1310 974 q 1306 955 1310 959 q 1287 950 1302 950 l 1167 950 q 1145 947 1149 950 q 1138 928 1142 943 l 944 3 q 939 -10 942 -6 q 924 -14 935 -14 l 901 -14 q 881 -10 888 -14 q 870 2 875 -6 l 395 831 q 382 856 386 847 q 374 865 378 865 q 366 856 367 865 q 361 828 365 847 l 209 114 q 210 94 206 97 q 234 92 214 92 l 340 92 q 359 89 353 92 q 366 72 366 86 l 366 28 q 359 4 366 8 q 334 0 352 0 l -35 0 q -53 3 -49 0 q -58 19 -58 7 l -58 67 q -54 87 -58 82 q -36 92 -51 92 l 83 92 q 103 96 101 92 q 108 114 106 100 l 281 917 q 281 944 285 938 q 250 950 276 950 "},"O":{"ha":1176,"x_min":60,"x_max":1115,"o":"m 685 1058 q 918 1007 822 1058 q 1065 859 1014 956 q 1115 625 1115 762 q 1067 386 1115 501 q 933 180 1019 271 q 734 37 848 90 q 491 -16 621 -16 l 493 69 q 638 103 571 69 q 759 195 706 138 q 851 325 813 253 q 909 474 889 397 q 928 622 928 551 q 907 803 928 724 q 832 927 885 882 q 683 972 778 972 l 685 1058 m 491 -16 q 259 35 355 -16 q 111 183 163 86 q 60 417 60 280 q 109 656 60 541 q 243 861 157 771 q 442 1005 328 952 q 685 1058 555 1058 l 683 972 q 539 938 606 972 q 418 846 472 904 q 326 716 365 788 q 267 568 288 644 q 247 419 247 491 q 269 239 247 318 q 344 115 291 160 q 493 69 398 69 l 491 -16 "},"Ò":{"ha":1176,"x_min":60,"x_max":1115,"o":"m 559 1347 q 590 1372 571 1365 q 631 1376 610 1380 q 665 1357 651 1372 l 804 1216 q 805 1191 817 1203 l 774 1158 q 764 1151 768 1152 q 753 1154 760 1149 l 579 1254 q 548 1292 556 1267 q 559 1347 540 1317 m 685 1058 q 918 1007 822 1058 q 1065 859 1014 956 q 1115 625 1115 762 q 1067 386 1115 501 q 933 180 1019 271 q 734 37 848 90 q 491 -16 621 -16 l 493 69 q 638 103 571 69 q 759 195 706 138 q 851 325 813 253 q 909 474 889 397 q 928 622 928 551 q 907 803 928 724 q 832 927 885 882 q 683 972 778 972 l 685 1058 m 491 -16 q 259 35 355 -16 q 111 183 163 86 q 60 417 60 280 q 109 656 60 541 q 243 861 157 771 q 442 1005 328 952 q 685 1058 555 1058 l 683 972 q 539 938 606 972 q 418 846 472 904 q 326 716 365 788 q 267 568 288 644 q 247 419 247 491 q 269 239 247 318 q 344 115 291 160 q 493 69 398 69 l 491 -16 "},"Ó":{"ha":1176,"x_min":60,"x_max":1115,"o":"m 913 1347 q 924 1292 932 1317 q 893 1254 916 1267 l 724 1157 q 710 1151 715 1151 q 698 1160 706 1151 l 667 1192 q 667 1215 656 1204 l 807 1357 q 842 1376 822 1373 q 882 1372 863 1380 q 913 1347 902 1365 m 685 1058 q 918 1007 822 1058 q 1065 859 1014 956 q 1115 625 1115 762 q 1067 386 1115 501 q 933 180 1019 271 q 734 37 848 90 q 491 -16 621 -16 l 493 69 q 638 103 571 69 q 759 195 706 138 q 851 325 813 253 q 909 474 889 397 q 928 622 928 551 q 907 803 928 724 q 832 927 885 882 q 683 972 778 972 l 685 1058 m 491 -16 q 259 35 355 -16 q 111 183 163 86 q 60 417 60 280 q 109 656 60 541 q 243 861 157 771 q 442 1005 328 952 q 685 1058 555 1058 l 683 972 q 539 938 606 972 q 418 846 472 904 q 326 716 365 788 q 267 568 288 644 q 247 419 247 491 q 269 239 247 318 q 344 115 291 160 q 493 69 398 69 l 491 -16 "},"Ô":{"ha":1176,"x_min":60,"x_max":1115,"o":"m 549 1169 l 533 1190 q 527 1200 526 1197 q 537 1211 528 1203 l 697 1349 q 714 1358 706 1356 q 736 1360 721 1360 l 805 1360 q 824 1358 819 1360 q 835 1349 830 1355 l 938 1209 q 941 1201 941 1204 q 934 1193 941 1199 l 910 1172 q 898 1164 901 1163 q 888 1171 895 1165 l 780 1266 q 745 1267 765 1279 l 573 1165 q 559 1160 564 1159 q 549 1169 554 1162 m 685 1058 q 918 1007 822 1058 q 1065 859 1014 956 q 1115 625 1115 762 q 1067 386 1115 501 q 933 180 1019 271 q 734 37 848 90 q 491 -16 621 -16 l 493 69 q 638 103 571 69 q 759 195 706 138 q 851 325 813 253 q 909 474 889 397 q 928 622 928 551 q 907 803 928 724 q 832 927 885 882 q 683 972 778 972 l 685 1058 m 491 -16 q 259 35 355 -16 q 111 183 163 86 q 60 417 60 280 q 109 656 60 541 q 243 861 157 771 q 442 1005 328 952 q 685 1058 555 1058 l 683 972 q 539 938 606 972 q 418 846 472 904 q 326 716 365 788 q 267 568 288 644 q 247 419 247 491 q 269 239 247 318 q 344 115 291 160 q 493 69 398 69 l 491 -16 "},"Õ":{"ha":1176,"x_min":60,"x_max":1115,"o":"m 845 1162 q 766 1178 793 1162 q 721 1216 739 1195 q 688 1250 706 1233 q 635 1267 670 1267 q 588 1247 608 1267 q 557 1190 567 1227 q 540 1181 552 1181 l 503 1181 q 491 1186 491 1181 q 493 1201 490 1191 q 530 1282 507 1246 q 587 1340 552 1319 q 671 1362 622 1362 q 750 1345 724 1362 q 793 1308 777 1329 q 823 1274 806 1291 q 869 1256 839 1256 q 915 1275 895 1256 q 945 1328 934 1293 q 951 1340 948 1336 q 965 1343 955 1343 l 1003 1343 q 1014 1340 1013 1343 q 1013 1328 1015 1336 q 978 1239 1000 1276 q 923 1182 956 1201 q 845 1162 890 1162 m 685 1058 q 918 1007 822 1058 q 1065 859 1014 956 q 1115 625 1115 762 q 1067 386 1115 501 q 933 180 1019 271 q 734 37 848 90 q 491 -16 621 -16 l 493 69 q 638 103 571 69 q 759 195 706 138 q 851 325 813 253 q 909 474 889 397 q 928 622 928 551 q 907 803 928 724 q 832 927 885 882 q 683 972 778 972 l 685 1058 m 491 -16 q 259 35 355 -16 q 111 183 163 86 q 60 417 60 280 q 109 656 60 541 q 243 861 157 771 q 442 1005 328 952 q 685 1058 555 1058 l 683 972 q 539 938 606 972 q 418 846 472 904 q 326 716 365 788 q 267 568 288 644 q 247 419 247 491 q 269 239 247 318 q 344 115 291 160 q 493 69 398 69 l 491 -16 "},"Ö":{"ha":1176,"x_min":60,"x_max":1115,"o":"m 863 1174 q 809 1196 831 1174 q 787 1250 787 1218 q 809 1304 787 1281 q 863 1326 831 1326 q 917 1304 894 1326 q 939 1250 939 1281 q 917 1196 939 1218 q 863 1174 894 1174 m 617 1174 q 563 1196 585 1174 q 541 1250 541 1218 q 563 1304 541 1281 q 617 1326 585 1326 q 671 1304 649 1326 q 693 1250 693 1281 q 671 1196 693 1218 q 617 1174 649 1174 m 685 1058 q 918 1007 822 1058 q 1065 859 1014 956 q 1115 625 1115 762 q 1067 386 1115 501 q 933 180 1019 271 q 734 37 848 90 q 491 -16 621 -16 l 493 69 q 638 103 571 69 q 759 195 706 138 q 851 325 813 253 q 909 474 889 397 q 928 622 928 551 q 907 803 928 724 q 832 927 885 882 q 683 972 778 972 l 685 1058 m 491 -16 q 259 35 355 -16 q 111 183 163 86 q 60 417 60 280 q 109 656 60 541 q 243 861 157 771 q 442 1005 328 952 q 685 1058 555 1058 l 683 972 q 539 938 606 972 q 418 846 472 904 q 326 716 365 788 q 267 568 288 644 q 247 419 247 491 q 269 239 247 318 q 344 115 291 160 q 493 69 398 69 l 491 -16 "},"Ō":{"ha":1176,"x_min":60,"x_max":1115,"o":"m 565 1184 l 565 1217 q 567 1231 565 1226 q 578 1235 569 1235 l 874 1235 q 893 1232 888 1235 q 898 1214 898 1228 l 898 1183 q 896 1167 898 1172 q 883 1162 894 1162 l 589 1162 q 570 1166 576 1162 q 565 1184 565 1169 m 685 1058 q 918 1007 822 1058 q 1065 859 1014 956 q 1115 625 1115 762 q 1067 386 1115 501 q 933 180 1019 271 q 734 37 848 90 q 491 -16 621 -16 l 493 69 q 638 103 571 69 q 759 195 706 138 q 851 325 813 253 q 909 474 889 397 q 928 622 928 551 q 907 803 928 724 q 832 927 885 882 q 683 972 778 972 l 685 1058 m 491 -16 q 259 35 355 -16 q 111 183 163 86 q 60 417 60 280 q 109 656 60 541 q 243 861 157 771 q 442 1005 328 952 q 685 1058 555 1058 l 683 972 q 539 938 606 972 q 418 846 472 904 q 326 716 365 788 q 267 568 288 644 q 247 419 247 491 q 269 239 247 318 q 344 115 291 160 q 493 69 398 69 l 491 -16 "},"Ŏ":{"ha":1176,"x_min":60,"x_max":1115,"o":"m 737 1161 q 636 1183 669 1161 q 596 1244 603 1204 q 600 1337 589 1283 q 619 1350 603 1350 l 638 1350 q 649 1339 650 1350 q 667 1274 643 1296 q 741 1252 690 1252 q 823 1272 789 1252 q 871 1330 856 1291 q 876 1345 874 1340 q 890 1350 877 1350 l 917 1350 q 930 1347 928 1350 q 928 1333 931 1344 q 863 1208 908 1255 q 737 1161 818 1161 m 685 1058 q 918 1007 822 1058 q 1065 859 1014 956 q 1115 625 1115 762 q 1067 386 1115 501 q 933 180 1019 271 q 734 37 848 90 q 491 -16 621 -16 l 493 69 q 638 103 571 69 q 759 195 706 138 q 851 325 813 253 q 909 474 889 397 q 928 622 928 551 q 907 803 928 724 q 832 927 885 882 q 683 972 778 972 l 685 1058 m 491 -16 q 259 35 355 -16 q 111 183 163 86 q 60 417 60 280 q 109 656 60 541 q 243 861 157 771 q 442 1005 328 952 q 685 1058 555 1058 l 683 972 q 539 938 606 972 q 418 846 472 904 q 326 716 365 788 q 267 568 288 644 q 247 419 247 491 q 269 239 247 318 q 344 115 291 160 q 493 69 398 69 l 491 -16 "},"Ő":{"ha":1176,"x_min":60,"x_max":1115,"o":"m 870 1168 l 843 1192 q 831 1207 832 1203 q 841 1222 831 1212 l 971 1366 q 1006 1387 986 1383 q 1046 1385 1026 1392 q 1078 1363 1065 1378 q 1093 1311 1099 1339 q 1063 1268 1088 1284 l 895 1163 q 882 1159 885 1158 q 870 1168 878 1160 m 560 1172 l 534 1192 q 525 1210 523 1203 q 538 1226 528 1216 l 665 1366 q 699 1388 679 1383 q 738 1387 719 1392 q 770 1365 757 1381 q 787 1313 791 1341 q 756 1268 783 1285 l 602 1173 q 580 1161 587 1163 q 560 1172 572 1159 m 685 1058 q 918 1007 822 1058 q 1065 859 1014 956 q 1115 625 1115 762 q 1067 386 1115 501 q 933 180 1019 271 q 734 37 848 90 q 491 -16 621 -16 l 493 69 q 638 103 571 69 q 759 195 706 138 q 851 325 813 253 q 909 474 889 397 q 928 622 928 551 q 907 803 928 724 q 832 927 885 882 q 683 972 778 972 l 685 1058 m 491 -16 q 259 35 355 -16 q 111 183 163 86 q 60 417 60 280 q 109 656 60 541 q 243 861 157 771 q 442 1005 328 952 q 685 1058 555 1058 l 683 972 q 539 938 606 972 q 418 846 472 904 q 326 716 365 788 q 267 568 288 644 q 247 419 247 491 q 269 239 247 318 q 344 115 291 160 q 493 69 398 69 l 491 -16 "},"P":{"ha":976,"x_min":-58,"x_max":978,"o":"m 394 540 l 529 540 q 657 569 596 540 q 758 658 719 599 q 797 800 797 716 q 786 867 797 833 q 744 926 776 902 q 651 950 713 950 l 475 950 q 451 947 455 950 q 444 926 448 943 l 368 569 q 367 544 364 549 q 394 540 370 540 m 333 413 l 273 126 q 272 98 269 105 q 302 92 275 92 l 401 92 q 425 87 419 92 q 430 62 430 82 l 430 22 q 423 3 430 7 q 401 0 417 0 l -29 0 q -51 3 -44 0 q -58 22 -58 6 l -58 68 q -51 89 -58 85 q -28 92 -45 92 l 73 92 q 101 100 98 92 q 108 126 103 108 l 278 922 q 278 945 282 941 q 251 950 274 950 l 165 950 q 147 955 151 950 q 143 972 143 959 l 143 1017 q 149 1038 143 1033 q 171 1042 155 1042 l 658 1042 q 854 1009 785 1042 q 951 921 924 976 q 978 800 978 866 q 944 642 978 708 q 849 532 910 575 q 707 469 788 490 q 531 448 626 448 l 376 448 q 344 441 351 448 q 333 413 338 433 "},"Q":{"ha":1179,"x_min":63,"x_max":1119,"o":"m 251 419 q 272 239 251 318 q 347 115 294 160 q 496 69 401 69 q 641 103 574 69 q 762 195 708 138 q 853 325 815 253 q 911 474 892 397 q 931 622 931 551 q 910 803 931 724 q 835 927 888 882 q 686 972 781 972 q 541 938 608 972 q 421 846 474 904 q 329 716 367 788 q 271 568 291 644 q 251 419 251 491 m 102 -226 q 116 -159 102 -189 q 155 -106 131 -129 q 209 -68 178 -83 q 274 -45 240 -53 q 341 -37 308 -37 q 451 -62 404 -37 q 534 -122 499 -86 q 599 -192 570 -157 q 653 -252 628 -228 q 704 -276 678 -276 q 746 -262 735 -276 q 757 -233 757 -249 q 747 -206 757 -215 q 727 -185 738 -197 q 717 -147 717 -173 q 732 -100 717 -119 q 769 -71 747 -81 q 813 -61 791 -61 q 861 -73 840 -61 q 895 -106 883 -85 q 907 -152 907 -126 q 894 -225 907 -193 q 857 -280 881 -257 q 805 -318 834 -303 q 742 -340 775 -333 q 676 -347 708 -347 q 561 -323 608 -347 q 481 -263 515 -299 q 421 -192 448 -228 q 367 -133 394 -157 q 306 -108 340 -108 q 265 -120 276 -108 q 253 -149 253 -133 q 263 -175 253 -165 q 283 -199 273 -185 q 293 -238 293 -212 q 264 -301 293 -279 q 201 -324 235 -324 q 130 -296 158 -324 q 102 -226 102 -268 m 63 417 q 112 656 63 541 q 246 861 160 771 q 445 1005 331 952 q 688 1058 558 1058 q 920 1007 824 1058 q 1068 859 1017 956 q 1119 625 1119 762 q 1070 386 1119 501 q 936 180 1022 271 q 737 37 851 90 q 494 -16 624 -16 q 261 35 358 -16 q 114 183 165 86 q 63 417 63 280 "},"R":{"ha":1103,"x_min":-53,"x_max":1040,"o":"m 1033 101 q 989 39 1017 65 q 925 -1 962 13 q 846 -15 889 -15 q 723 24 757 -15 q 689 123 689 63 q 701 232 689 175 q 713 340 713 289 q 701 405 713 375 q 659 453 690 435 q 570 472 628 472 l 378 472 q 354 466 360 472 q 344 447 347 461 l 276 117 q 276 97 272 102 q 299 92 279 92 l 404 92 q 422 89 416 92 q 428 72 428 85 l 428 29 q 424 6 428 12 q 403 0 421 0 l -34 0 q -49 5 -45 0 q -53 21 -53 9 l -53 67 q -49 87 -53 83 q -30 92 -45 92 l 80 92 q 104 98 101 92 q 110 121 106 104 l 283 925 q 283 946 286 942 q 260 950 280 950 l 174 950 q 151 956 156 950 q 147 979 147 961 l 147 1017 q 153 1038 147 1035 q 178 1042 160 1042 l 693 1042 q 883 1010 813 1042 q 984 926 953 979 q 1014 806 1014 872 q 957 641 1014 713 q 790 534 899 569 q 760 526 771 528 q 749 519 749 524 q 760 513 749 515 q 790 503 770 511 q 864 443 844 481 q 883 353 883 405 q 876 278 883 316 q 861 207 869 240 q 854 149 854 174 q 867 113 854 128 q 902 98 880 98 q 942 106 921 98 q 981 140 963 115 q 992 152 988 151 q 1008 145 996 153 l 1026 130 q 1038 118 1037 122 q 1033 101 1040 115 m 408 570 l 596 570 q 679 586 635 570 q 761 632 723 602 q 824 705 800 663 q 848 801 848 747 q 810 909 848 868 q 689 950 773 950 l 482 950 q 458 945 464 950 q 448 924 451 940 l 378 598 q 379 574 374 578 q 408 570 384 570 "},"Ŕ":{"ha":1103,"x_min":-53,"x_max":1040,"o":"m 816 1347 q 827 1292 835 1317 q 796 1254 819 1267 l 627 1157 q 613 1151 618 1151 q 601 1160 608 1151 l 569 1192 q 569 1215 558 1204 l 710 1357 q 745 1376 724 1373 q 785 1372 765 1380 q 816 1347 805 1365 m 1033 101 q 989 39 1017 65 q 925 -1 962 13 q 846 -15 889 -15 q 723 24 757 -15 q 689 123 689 63 q 701 232 689 175 q 713 340 713 289 q 701 405 713 375 q 659 453 690 435 q 570 472 628 472 l 378 472 q 354 466 360 472 q 344 447 347 461 l 276 117 q 276 97 272 102 q 299 92 279 92 l 404 92 q 422 89 416 92 q 428 72 428 85 l 428 29 q 424 6 428 12 q 403 0 421 0 l -34 0 q -49 5 -45 0 q -53 21 -53 9 l -53 67 q -49 87 -53 83 q -30 92 -45 92 l 80 92 q 104 98 101 92 q 110 121 106 104 l 283 925 q 283 946 286 942 q 260 950 280 950 l 174 950 q 151 956 156 950 q 147 979 147 961 l 147 1017 q 153 1038 147 1035 q 178 1042 160 1042 l 693 1042 q 883 1010 813 1042 q 984 926 953 979 q 1014 806 1014 872 q 957 641 1014 713 q 790 534 899 569 q 760 526 771 528 q 749 519 749 524 q 760 513 749 515 q 790 503 770 511 q 864 443 844 481 q 883 353 883 405 q 876 278 883 316 q 861 207 869 240 q 854 149 854 174 q 867 113 854 128 q 902 98 880 98 q 942 106 921 98 q 981 140 963 115 q 992 152 988 151 q 1008 145 996 153 l 1026 130 q 1038 118 1037 122 q 1033 101 1040 115 m 408 570 l 596 570 q 679 586 635 570 q 761 632 723 602 q 824 705 800 663 q 848 801 848 747 q 810 909 848 868 q 689 950 773 950 l 482 950 q 458 945 464 950 q 448 924 451 940 l 378 598 q 379 574 374 578 q 408 570 384 570 "},"Ŗ":{"ha":1103,"x_min":-53,"x_max":1040,"o":"m 375 -213 q 400 -159 375 -181 q 459 -138 424 -138 q 503 -150 483 -138 q 535 -187 523 -162 q 547 -252 547 -212 q 530 -325 547 -291 q 483 -384 513 -358 q 417 -426 453 -410 q 344 -446 381 -442 q 334 -445 338 -446 q 331 -436 331 -444 l 331 -407 q 335 -397 331 -399 q 345 -394 339 -395 q 403 -375 372 -390 q 459 -334 435 -359 q 482 -279 482 -309 q 479 -272 483 -272 q 469 -276 475 -273 q 455 -283 463 -281 q 436 -285 447 -285 q 390 -264 405 -285 q 375 -213 375 -244 m 1033 101 q 989 39 1017 65 q 925 -1 962 13 q 846 -15 889 -15 q 723 24 757 -15 q 689 123 689 63 q 701 232 689 175 q 713 340 713 289 q 701 405 713 375 q 659 453 690 435 q 570 472 628 472 l 378 472 q 354 466 360 472 q 344 447 347 461 l 276 117 q 276 97 272 102 q 299 92 279 92 l 404 92 q 422 89 416 92 q 428 72 428 85 l 428 29 q 424 6 428 12 q 403 0 421 0 l -34 0 q -49 5 -45 0 q -53 21 -53 9 l -53 67 q -49 87 -53 83 q -30 92 -45 92 l 80 92 q 104 98 101 92 q 110 121 106 104 l 283 925 q 283 946 286 942 q 260 950 280 950 l 174 950 q 151 956 156 950 q 147 979 147 961 l 147 1017 q 153 1038 147 1035 q 178 1042 160 1042 l 693 1042 q 883 1010 813 1042 q 984 926 953 979 q 1014 806 1014 872 q 957 641 1014 713 q 790 534 899 569 q 760 526 771 528 q 749 519 749 524 q 760 513 749 515 q 790 503 770 511 q 864 443 844 481 q 883 353 883 405 q 876 278 883 316 q 861 207 869 240 q 854 149 854 174 q 867 113 854 128 q 902 98 880 98 q 942 106 921 98 q 981 140 963 115 q 992 152 988 151 q 1008 145 996 153 l 1026 130 q 1038 118 1037 122 q 1033 101 1040 115 m 408 570 l 596 570 q 679 586 635 570 q 761 632 723 602 q 824 705 800 663 q 848 801 848 747 q 810 909 848 868 q 689 950 773 950 l 482 950 q 458 945 464 950 q 448 924 451 940 l 378 598 q 379 574 374 578 q 408 570 384 570 "},"Ř":{"ha":1103,"x_min":-53,"x_max":1040,"o":"m 556 1189 l 465 1313 q 459 1327 459 1322 q 469 1340 459 1333 l 490 1356 q 507 1363 503 1364 q 522 1354 512 1362 l 617 1279 q 649 1266 634 1267 q 686 1279 664 1266 l 822 1363 q 839 1368 835 1370 q 851 1357 844 1366 l 861 1345 q 869 1331 869 1336 q 858 1316 869 1326 l 706 1185 q 691 1173 697 1177 q 667 1169 684 1169 l 601 1169 q 572 1174 581 1169 q 556 1189 563 1180 m 1033 101 q 989 39 1017 65 q 925 -1 962 13 q 846 -15 889 -15 q 723 24 757 -15 q 689 123 689 63 q 701 232 689 175 q 713 340 713 289 q 701 405 713 375 q 659 453 690 435 q 570 472 628 472 l 378 472 q 354 466 360 472 q 344 447 347 461 l 276 117 q 276 97 272 102 q 299 92 279 92 l 404 92 q 422 89 416 92 q 428 72 428 85 l 428 29 q 424 6 428 12 q 403 0 421 0 l -34 0 q -49 5 -45 0 q -53 21 -53 9 l -53 67 q -49 87 -53 83 q -30 92 -45 92 l 80 92 q 104 98 101 92 q 110 121 106 104 l 283 925 q 283 946 286 942 q 260 950 280 950 l 174 950 q 151 956 156 950 q 147 979 147 961 l 147 1017 q 153 1038 147 1035 q 178 1042 160 1042 l 693 1042 q 883 1010 813 1042 q 984 926 953 979 q 1014 806 1014 872 q 957 641 1014 713 q 790 534 899 569 q 760 526 771 528 q 749 519 749 524 q 760 513 749 515 q 790 503 770 511 q 864 443 844 481 q 883 353 883 405 q 876 278 883 316 q 861 207 869 240 q 854 149 854 174 q 867 113 854 128 q 902 98 880 98 q 942 106 921 98 q 981 140 963 115 q 992 152 988 151 q 1008 145 996 153 l 1026 130 q 1038 118 1037 122 q 1033 101 1040 115 m 408 570 l 596 570 q 679 586 635 570 q 761 632 723 602 q 824 705 800 663 q 848 801 848 747 q 810 909 848 868 q 689 950 773 950 l 482 950 q 458 945 464 950 q 448 924 451 940 l 378 598 q 379 574 374 578 q 408 570 384 570 "},"Ȓ":{"ha":1103,"x_min":-53,"x_max":1040,"o":"m 659 1353 q 781 1305 751 1353 q 796 1177 812 1257 q 777 1164 793 1164 l 757 1164 q 747 1175 745 1164 q 728 1240 752 1218 q 654 1262 705 1262 q 573 1242 606 1262 q 524 1184 539 1222 q 519 1169 520 1174 q 505 1164 517 1164 l 478 1164 q 466 1167 467 1164 q 468 1181 465 1170 q 533 1306 488 1258 q 659 1353 578 1353 m 1033 101 q 989 39 1017 65 q 925 -1 962 13 q 846 -15 889 -15 q 723 24 757 -15 q 689 123 689 63 q 701 232 689 175 q 713 340 713 289 q 701 405 713 375 q 659 453 690 435 q 570 472 628 472 l 378 472 q 354 466 360 472 q 344 447 347 461 l 276 117 q 276 97 272 102 q 299 92 279 92 l 404 92 q 422 89 416 92 q 428 72 428 85 l 428 29 q 424 6 428 12 q 403 0 421 0 l -34 0 q -49 5 -45 0 q -53 21 -53 9 l -53 67 q -49 87 -53 83 q -30 92 -45 92 l 80 92 q 104 98 101 92 q 110 121 106 104 l 283 925 q 283 946 286 942 q 260 950 280 950 l 174 950 q 151 956 156 950 q 147 979 147 961 l 147 1017 q 153 1038 147 1035 q 178 1042 160 1042 l 693 1042 q 883 1010 813 1042 q 984 926 953 979 q 1014 806 1014 872 q 957 641 1014 713 q 790 534 899 569 q 760 526 771 528 q 749 519 749 524 q 760 513 749 515 q 790 503 770 511 q 864 443 844 481 q 883 353 883 405 q 876 278 883 316 q 861 207 869 240 q 854 149 854 174 q 867 113 854 128 q 902 98 880 98 q 942 106 921 98 q 981 140 963 115 q 992 152 988 151 q 1008 145 996 153 l 1026 130 q 1038 118 1037 122 q 1033 101 1040 115 m 408 570 l 596 570 q 679 586 635 570 q 761 632 723 602 q 824 705 800 663 q 848 801 848 747 q 810 909 848 868 q 689 950 773 950 l 482 950 q 458 945 464 950 q 448 924 451 940 l 378 598 q 379 574 374 578 q 408 570 384 570 "},"S":{"ha":921,"x_min":-42,"x_max":963,"o":"m 316 792 q 344 715 316 745 q 420 665 373 685 q 524 625 467 644 q 636 584 580 606 q 740 528 692 561 q 815 443 787 494 q 844 317 844 392 q 791 136 844 213 q 644 18 739 60 q 421 -23 549 -23 q 240 5 308 -23 q 135 78 171 33 q 121 90 124 91 q 106 74 117 90 l 65 12 q 51 -2 58 3 q 26 -7 43 -7 l -15 -7 q -37 -4 -32 -7 q -39 13 -42 -1 l 44 345 q 52 360 47 356 q 70 364 57 364 l 119 364 q 132 360 128 364 q 135 347 136 356 q 138 208 118 263 q 200 121 157 153 q 300 77 244 90 q 413 64 356 64 q 551 85 499 64 q 631 139 603 106 q 668 209 658 172 q 678 276 678 245 q 649 370 678 333 q 574 433 621 408 q 472 477 528 458 q 360 517 416 496 q 258 567 304 538 q 183 641 211 597 q 154 753 154 686 q 191 890 154 832 q 285 987 227 948 q 413 1045 344 1026 q 544 1065 481 1065 q 683 1042 623 1065 q 786 976 744 1019 q 809 959 801 961 q 830 977 817 958 l 864 1024 q 875 1038 870 1033 q 897 1042 881 1042 l 931 1042 q 958 1037 953 1042 q 958 1014 963 1032 l 895 714 q 884 695 892 698 q 857 692 877 692 l 826 692 q 801 698 803 692 q 800 721 798 703 q 780 852 808 794 q 692 942 751 909 q 547 975 633 975 q 429 951 481 975 q 347 886 377 927 q 316 792 316 844 "},"Ś":{"ha":921,"x_min":-42,"x_max":963,"o":"m 813 1347 q 824 1292 832 1317 q 793 1254 816 1267 l 624 1157 q 610 1151 615 1151 q 598 1160 606 1151 l 567 1192 q 567 1215 556 1204 l 707 1357 q 742 1376 722 1373 q 782 1372 763 1380 q 813 1347 802 1365 m 316 792 q 344 715 316 745 q 420 665 373 685 q 524 625 467 644 q 636 584 580 606 q 740 528 692 561 q 815 443 787 494 q 844 317 844 392 q 791 136 844 213 q 644 18 739 60 q 421 -23 549 -23 q 240 5 308 -23 q 135 78 171 33 q 121 90 124 91 q 106 74 117 90 l 65 12 q 51 -2 58 3 q 26 -7 43 -7 l -15 -7 q -37 -4 -32 -7 q -39 13 -42 -1 l 44 345 q 52 360 47 356 q 70 364 57 364 l 119 364 q 132 360 128 364 q 135 347 136 356 q 138 208 118 263 q 200 121 157 153 q 300 77 244 90 q 413 64 356 64 q 551 85 499 64 q 631 139 603 106 q 668 209 658 172 q 678 276 678 245 q 649 370 678 333 q 574 433 621 408 q 472 477 528 458 q 360 517 416 496 q 258 567 304 538 q 183 641 211 597 q 154 753 154 686 q 191 890 154 832 q 285 987 227 948 q 413 1045 344 1026 q 544 1065 481 1065 q 683 1042 623 1065 q 786 976 744 1019 q 809 959 801 961 q 830 977 817 958 l 864 1024 q 875 1038 870 1033 q 897 1042 881 1042 l 931 1042 q 958 1037 953 1042 q 958 1014 963 1032 l 895 714 q 884 695 892 698 q 857 692 877 692 l 826 692 q 801 698 803 692 q 800 721 798 703 q 780 852 808 794 q 692 942 751 909 q 547 975 633 975 q 429 951 481 975 q 347 886 377 927 q 316 792 316 844 "},"Ŝ":{"ha":921,"x_min":-42,"x_max":963,"o":"m 449 1169 l 433 1190 q 427 1200 426 1197 q 437 1211 428 1203 l 597 1349 q 614 1358 606 1356 q 636 1360 621 1360 l 705 1360 q 724 1358 719 1360 q 735 1349 730 1355 l 838 1209 q 841 1201 841 1204 q 834 1193 841 1199 l 810 1172 q 798 1164 801 1163 q 788 1171 795 1165 l 680 1266 q 645 1267 665 1279 l 473 1165 q 459 1160 464 1159 q 449 1169 454 1162 m 316 792 q 344 715 316 745 q 420 665 373 685 q 524 625 467 644 q 636 584 580 606 q 740 528 692 561 q 815 443 787 494 q 844 317 844 392 q 791 136 844 213 q 644 18 739 60 q 421 -23 549 -23 q 240 5 308 -23 q 135 78 171 33 q 121 90 124 91 q 106 74 117 90 l 65 12 q 51 -2 58 3 q 26 -7 43 -7 l -15 -7 q -37 -4 -32 -7 q -39 13 -42 -1 l 44 345 q 52 360 47 356 q 70 364 57 364 l 119 364 q 132 360 128 364 q 135 347 136 356 q 138 208 118 263 q 200 121 157 153 q 300 77 244 90 q 413 64 356 64 q 551 85 499 64 q 631 139 603 106 q 668 209 658 172 q 678 276 678 245 q 649 370 678 333 q 574 433 621 408 q 472 477 528 458 q 360 517 416 496 q 258 567 304 538 q 183 641 211 597 q 154 753 154 686 q 191 890 154 832 q 285 987 227 948 q 413 1045 344 1026 q 544 1065 481 1065 q 683 1042 623 1065 q 786 976 744 1019 q 809 959 801 961 q 830 977 817 958 l 864 1024 q 875 1038 870 1033 q 897 1042 881 1042 l 931 1042 q 958 1037 953 1042 q 958 1014 963 1032 l 895 714 q 884 695 892 698 q 857 692 877 692 l 826 692 q 801 698 803 692 q 800 721 798 703 q 780 852 808 794 q 692 942 751 909 q 547 975 633 975 q 429 951 481 975 q 347 886 377 927 q 316 792 316 844 "},"Ş":{"ha":921,"x_min":-42,"x_max":963,"o":"m 215 -337 l 218 -317 q 227 -302 221 -306 q 243 -299 233 -299 q 301 -290 272 -297 q 351 -269 330 -283 q 377 -233 372 -256 q 367 -192 383 -206 q 323 -171 351 -177 q 265 -162 295 -165 q 243 -155 245 -160 q 250 -142 241 -151 l 387 1 q 409 8 393 8 l 433 8 q 453 5 449 8 q 449 -6 457 2 l 375 -83 q 365 -98 364 -95 q 384 -101 366 -100 q 471 -132 441 -106 q 489 -215 501 -157 q 454 -283 480 -256 q 391 -326 428 -310 q 313 -349 354 -342 q 230 -358 271 -356 q 215 -337 211 -358 m 316 792 q 344 715 316 745 q 420 665 373 685 q 524 625 467 644 q 636 584 580 606 q 740 528 692 561 q 815 443 787 494 q 844 317 844 392 q 791 136 844 213 q 644 18 739 60 q 421 -23 549 -23 q 240 5 308 -23 q 135 78 171 33 q 121 90 124 91 q 106 74 117 90 l 65 12 q 51 -2 58 3 q 26 -7 43 -7 l -15 -7 q -37 -4 -32 -7 q -39 13 -42 -1 l 44 345 q 52 360 47 356 q 70 364 57 364 l 119 364 q 132 360 128 364 q 135 347 136 356 q 138 208 118 263 q 200 121 157 153 q 300 77 244 90 q 413 64 356 64 q 551 85 499 64 q 631 139 603 106 q 668 209 658 172 q 678 276 678 245 q 649 370 678 333 q 574 433 621 408 q 472 477 528 458 q 360 517 416 496 q 258 567 304 538 q 183 641 211 597 q 154 753 154 686 q 191 890 154 832 q 285 987 227 948 q 413 1045 344 1026 q 544 1065 481 1065 q 683 1042 623 1065 q 786 976 744 1019 q 809 959 801 961 q 830 977 817 958 l 864 1024 q 875 1038 870 1033 q 897 1042 881 1042 l 931 1042 q 958 1037 953 1042 q 958 1014 963 1032 l 895 714 q 884 695 892 698 q 857 692 877 692 l 826 692 q 801 698 803 692 q 800 721 798 703 q 780 852 808 794 q 692 942 751 909 q 547 975 633 975 q 429 951 481 975 q 347 886 377 927 q 316 792 316 844 "},"Š":{"ha":921,"x_min":-42,"x_max":963,"o":"m 553 1189 l 463 1313 q 456 1327 456 1322 q 467 1340 456 1333 l 488 1356 q 505 1363 500 1364 q 519 1354 509 1362 l 615 1279 q 646 1266 631 1267 q 683 1279 661 1266 l 819 1363 q 836 1368 832 1370 q 848 1357 841 1366 l 858 1345 q 866 1331 866 1336 q 856 1316 867 1326 l 703 1185 q 688 1173 694 1177 q 665 1169 681 1169 l 599 1169 q 569 1174 578 1169 q 553 1189 560 1180 m 316 792 q 344 715 316 745 q 420 665 373 685 q 524 625 467 644 q 636 584 580 606 q 740 528 692 561 q 815 443 787 494 q 844 317 844 392 q 791 136 844 213 q 644 18 739 60 q 421 -23 549 -23 q 240 5 308 -23 q 135 78 171 33 q 121 90 124 91 q 106 74 117 90 l 65 12 q 51 -2 58 3 q 26 -7 43 -7 l -15 -7 q -37 -4 -32 -7 q -39 13 -42 -1 l 44 345 q 52 360 47 356 q 70 364 57 364 l 119 364 q 132 360 128 364 q 135 347 136 356 q 138 208 118 263 q 200 121 157 153 q 300 77 244 90 q 413 64 356 64 q 551 85 499 64 q 631 139 603 106 q 668 209 658 172 q 678 276 678 245 q 649 370 678 333 q 574 433 621 408 q 472 477 528 458 q 360 517 416 496 q 258 567 304 538 q 183 641 211 597 q 154 753 154 686 q 191 890 154 832 q 285 987 227 948 q 413 1045 344 1026 q 544 1065 481 1065 q 683 1042 623 1065 q 786 976 744 1019 q 809 959 801 961 q 830 977 817 958 l 864 1024 q 875 1038 870 1033 q 897 1042 881 1042 l 931 1042 q 958 1037 953 1042 q 958 1014 963 1032 l 895 714 q 884 695 892 698 q 857 692 877 692 l 826 692 q 801 698 803 692 q 800 721 798 703 q 780 852 808 794 q 692 942 751 909 q 547 975 633 975 q 429 951 481 975 q 347 886 377 927 q 316 792 316 844 "},"Ș":{"ha":921,"x_min":-42,"x_max":963,"o":"m 290 -213 q 314 -159 290 -181 q 374 -138 339 -138 q 418 -150 398 -138 q 450 -187 438 -162 q 462 -252 462 -212 q 444 -325 462 -291 q 398 -384 427 -358 q 332 -426 368 -410 q 259 -446 296 -442 q 249 -445 252 -446 q 246 -436 246 -444 l 246 -407 q 250 -397 246 -399 q 260 -394 253 -395 q 318 -375 286 -390 q 373 -334 350 -359 q 397 -279 397 -309 q 394 -272 398 -272 q 384 -276 390 -273 q 369 -283 378 -281 q 351 -285 361 -285 q 305 -264 319 -285 q 290 -213 290 -244 m 316 792 q 344 715 316 745 q 420 665 373 685 q 524 625 467 644 q 636 584 580 606 q 740 528 692 561 q 815 443 787 494 q 844 317 844 392 q 791 136 844 213 q 644 18 739 60 q 421 -23 549 -23 q 240 5 308 -23 q 135 78 171 33 q 121 90 124 91 q 106 74 117 90 l 65 12 q 51 -2 58 3 q 26 -7 43 -7 l -15 -7 q -37 -4 -32 -7 q -39 13 -42 -1 l 44 345 q 52 360 47 356 q 70 364 57 364 l 119 364 q 132 360 128 364 q 135 347 136 356 q 138 208 118 263 q 200 121 157 153 q 300 77 244 90 q 413 64 356 64 q 551 85 499 64 q 631 139 603 106 q 668 209 658 172 q 678 276 678 245 q 649 370 678 333 q 574 433 621 408 q 472 477 528 458 q 360 517 416 496 q 258 567 304 538 q 183 641 211 597 q 154 753 154 686 q 191 890 154 832 q 285 987 227 948 q 413 1045 344 1026 q 544 1065 481 1065 q 683 1042 623 1065 q 786 976 744 1019 q 809 959 801 961 q 830 977 817 958 l 864 1024 q 875 1038 870 1033 q 897 1042 881 1042 l 931 1042 q 958 1037 953 1042 q 958 1014 963 1032 l 895 714 q 884 695 892 698 q 857 692 877 692 l 826 692 q 801 698 803 692 q 800 721 798 703 q 780 852 808 794 q 692 942 751 909 q 547 975 633 975 q 429 951 481 975 q 347 886 377 927 q 316 792 316 844 "},"T":{"ha":1041,"x_min":71,"x_max":1110,"o":"m 165 26 l 165 71 q 168 87 165 83 q 183 92 172 92 l 300 92 q 332 98 325 92 q 344 124 340 103 l 517 932 q 517 952 520 947 q 494 957 514 957 l 449 957 q 307 934 362 957 q 219 856 253 910 q 158 706 185 801 q 150 685 155 692 q 126 677 144 677 l 94 677 q 72 686 74 677 q 74 708 71 694 l 144 1014 q 153 1036 147 1031 q 182 1042 160 1042 l 1071 1042 q 1105 1036 1100 1042 q 1104 1006 1110 1030 l 1033 701 q 1026 681 1030 685 q 1003 677 1023 677 l 975 677 q 948 683 951 677 q 949 707 945 688 q 963 858 969 803 q 915 934 956 912 q 786 957 874 957 l 715 957 q 689 951 696 957 q 679 930 683 946 l 507 124 q 506 98 503 105 q 535 92 509 92 l 646 92 q 667 86 663 92 q 671 63 671 81 l 671 31 q 664 5 671 9 q 637 0 657 0 l 187 0 q 168 5 172 0 q 165 26 165 10 "},"Ţ":{"ha":1041,"x_min":71,"x_max":1110,"o":"m 224 -337 l 227 -317 q 236 -302 230 -306 q 252 -299 242 -299 q 310 -290 281 -297 q 360 -269 339 -283 q 386 -233 381 -256 q 376 -192 392 -206 q 332 -171 360 -177 q 274 -162 304 -165 q 252 -155 254 -160 q 259 -142 250 -151 l 396 1 q 418 8 402 8 l 442 8 q 462 5 458 8 q 458 -6 466 2 l 384 -83 q 374 -98 373 -95 q 393 -101 375 -100 q 480 -132 450 -106 q 498 -215 510 -157 q 463 -283 489 -256 q 400 -326 437 -310 q 322 -349 363 -342 q 239 -358 280 -356 q 224 -337 220 -358 m 165 26 l 165 71 q 168 87 165 83 q 183 92 172 92 l 300 92 q 332 98 325 92 q 344 124 340 103 l 517 932 q 517 952 520 947 q 494 957 514 957 l 449 957 q 307 934 362 957 q 219 856 253 910 q 158 706 185 801 q 150 685 155 692 q 126 677 144 677 l 94 677 q 72 686 74 677 q 74 708 71 694 l 144 1014 q 153 1036 147 1031 q 182 1042 160 1042 l 1071 1042 q 1105 1036 1100 1042 q 1104 1006 1110 1030 l 1033 701 q 1026 681 1030 685 q 1003 677 1023 677 l 975 677 q 948 683 951 677 q 949 707 945 688 q 963 858 969 803 q 915 934 956 912 q 786 957 874 957 l 715 957 q 689 951 696 957 q 679 930 683 946 l 507 124 q 506 98 503 105 q 535 92 509 92 l 646 92 q 667 86 663 92 q 671 63 671 81 l 671 31 q 664 5 671 9 q 637 0 657 0 l 187 0 q 168 5 172 0 q 165 26 165 10 "},"Ť":{"ha":1041,"x_min":71,"x_max":1110,"o":"m 607 1189 l 517 1313 q 510 1327 510 1322 q 521 1340 510 1333 l 542 1356 q 559 1363 554 1364 q 574 1354 563 1362 l 669 1279 q 700 1266 685 1267 q 738 1279 715 1266 l 874 1363 q 891 1368 886 1370 q 902 1357 895 1366 l 913 1345 q 920 1331 920 1336 q 910 1316 921 1326 l 757 1185 q 742 1173 749 1177 q 719 1169 735 1169 l 653 1169 q 623 1174 633 1169 q 607 1189 614 1180 m 165 26 l 165 71 q 168 87 165 83 q 183 92 172 92 l 300 92 q 332 98 325 92 q 344 124 340 103 l 517 932 q 517 952 520 947 q 494 957 514 957 l 449 957 q 307 934 362 957 q 219 856 253 910 q 158 706 185 801 q 150 685 155 692 q 126 677 144 677 l 94 677 q 72 686 74 677 q 74 708 71 694 l 144 1014 q 153 1036 147 1031 q 182 1042 160 1042 l 1071 1042 q 1105 1036 1100 1042 q 1104 1006 1110 1030 l 1033 701 q 1026 681 1030 685 q 1003 677 1023 677 l 975 677 q 948 683 951 677 q 949 707 945 688 q 963 858 969 803 q 915 934 956 912 q 786 957 874 957 l 715 957 q 689 951 696 957 q 679 930 683 946 l 507 124 q 506 98 503 105 q 535 92 509 92 l 646 92 q 667 86 663 92 q 671 63 671 81 l 671 31 q 664 5 671 9 q 637 0 657 0 l 187 0 q 168 5 172 0 q 165 26 165 10 "},"Ț":{"ha":1041,"x_min":71,"x_max":1110,"o":"m 299 -213 q 323 -159 299 -181 q 383 -138 348 -138 q 427 -150 407 -138 q 459 -187 447 -162 q 471 -252 471 -212 q 453 -325 471 -291 q 407 -384 436 -358 q 341 -426 377 -410 q 268 -446 305 -442 q 258 -445 261 -446 q 255 -436 255 -444 l 255 -407 q 259 -397 255 -399 q 269 -394 263 -395 q 327 -375 295 -390 q 382 -334 359 -359 q 406 -279 406 -309 q 403 -272 407 -272 q 393 -276 399 -273 q 378 -283 387 -281 q 360 -285 370 -285 q 314 -264 328 -285 q 299 -213 299 -244 m 165 26 l 165 71 q 168 87 165 83 q 183 92 172 92 l 300 92 q 332 98 325 92 q 344 124 340 103 l 517 932 q 517 952 520 947 q 494 957 514 957 l 449 957 q 307 934 362 957 q 219 856 253 910 q 158 706 185 801 q 150 685 155 692 q 126 677 144 677 l 94 677 q 72 686 74 677 q 74 708 71 694 l 144 1014 q 153 1036 147 1031 q 182 1042 160 1042 l 1071 1042 q 1105 1036 1100 1042 q 1104 1006 1110 1030 l 1033 701 q 1026 681 1030 685 q 1003 677 1023 677 l 975 677 q 948 683 951 677 q 949 707 945 688 q 963 858 969 803 q 915 934 956 912 q 786 957 874 957 l 715 957 q 689 951 696 957 q 679 930 683 946 l 507 124 q 506 98 503 105 q 535 92 509 92 l 646 92 q 667 86 663 92 q 671 63 671 81 l 671 31 q 664 5 671 9 q 637 0 657 0 l 187 0 q 168 5 172 0 q 165 26 165 10 "},"U":{"ha":1172,"x_min":126,"x_max":1243,"o":"m 438 924 l 314 431 q 296 344 303 386 q 290 267 290 303 q 334 131 290 185 q 492 76 378 76 q 664 113 592 76 q 785 224 736 149 q 862 417 833 299 l 985 921 q 986 944 990 938 q 960 950 983 950 l 857 950 q 837 956 840 950 q 833 978 833 962 l 833 1019 q 836 1036 833 1031 q 850 1042 838 1042 l 1210 1042 q 1236 1038 1229 1042 q 1243 1013 1243 1033 l 1243 974 q 1237 954 1243 958 q 1217 950 1231 950 l 1122 950 q 1094 945 1099 950 q 1084 922 1089 941 l 961 417 q 864 176 926 274 q 705 27 801 78 q 467 -23 608 -23 q 266 13 340 -23 q 158 111 191 49 q 126 253 126 173 q 132 333 126 292 q 148 417 138 374 l 271 919 q 273 944 276 938 q 247 950 270 950 l 158 950 q 136 956 140 950 q 131 978 131 962 l 131 1018 q 137 1038 131 1034 q 158 1042 142 1042 l 575 1042 q 600 1036 594 1042 q 605 1010 605 1031 l 605 972 q 600 954 605 958 q 582 950 596 950 l 468 950 q 444 945 448 950 q 438 924 441 940 "},"Ù":{"ha":1172,"x_min":126,"x_max":1243,"o":"m 592 1347 q 623 1372 603 1365 q 663 1376 642 1380 q 698 1357 684 1372 l 837 1216 q 838 1191 849 1203 l 806 1158 q 797 1151 801 1152 q 785 1154 793 1149 l 612 1254 q 581 1292 588 1267 q 592 1347 573 1317 m 438 924 l 314 431 q 296 344 303 386 q 290 267 290 303 q 334 131 290 185 q 492 76 378 76 q 664 113 592 76 q 785 224 736 149 q 862 417 833 299 l 985 921 q 986 944 990 938 q 960 950 983 950 l 857 950 q 837 956 840 950 q 833 978 833 962 l 833 1019 q 836 1036 833 1031 q 850 1042 838 1042 l 1210 1042 q 1236 1038 1229 1042 q 1243 1013 1243 1033 l 1243 974 q 1237 954 1243 958 q 1217 950 1231 950 l 1122 950 q 1094 945 1099 950 q 1084 922 1089 941 l 961 417 q 864 176 926 274 q 705 27 801 78 q 467 -23 608 -23 q 266 13 340 -23 q 158 111 191 49 q 126 253 126 173 q 132 333 126 292 q 148 417 138 374 l 271 919 q 273 944 276 938 q 247 950 270 950 l 158 950 q 136 956 140 950 q 131 978 131 962 l 131 1018 q 137 1038 131 1034 q 158 1042 142 1042 l 575 1042 q 600 1036 594 1042 q 605 1010 605 1031 l 605 972 q 600 954 605 958 q 582 950 596 950 l 468 950 q 444 945 448 950 q 438 924 441 940 "},"Ú":{"ha":1172,"x_min":126,"x_max":1243,"o":"m 946 1347 q 957 1292 965 1317 q 926 1254 949 1267 l 757 1157 q 743 1151 748 1151 q 731 1160 738 1151 l 699 1192 q 699 1215 688 1204 l 840 1357 q 875 1376 854 1373 q 915 1372 895 1380 q 946 1347 935 1365 m 438 924 l 314 431 q 296 344 303 386 q 290 267 290 303 q 334 131 290 185 q 492 76 378 76 q 664 113 592 76 q 785 224 736 149 q 862 417 833 299 l 985 921 q 986 944 990 938 q 960 950 983 950 l 857 950 q 837 956 840 950 q 833 978 833 962 l 833 1019 q 836 1036 833 1031 q 850 1042 838 1042 l 1210 1042 q 1236 1038 1229 1042 q 1243 1013 1243 1033 l 1243 974 q 1237 954 1243 958 q 1217 950 1231 950 l 1122 950 q 1094 945 1099 950 q 1084 922 1089 941 l 961 417 q 864 176 926 274 q 705 27 801 78 q 467 -23 608 -23 q 266 13 340 -23 q 158 111 191 49 q 126 253 126 173 q 132 333 126 292 q 148 417 138 374 l 271 919 q 273 944 276 938 q 247 950 270 950 l 158 950 q 136 956 140 950 q 131 978 131 962 l 131 1018 q 137 1038 131 1034 q 158 1042 142 1042 l 575 1042 q 600 1036 594 1042 q 605 1010 605 1031 l 605 972 q 600 954 605 958 q 582 950 596 950 l 468 950 q 444 945 448 950 q 438 924 441 940 "},"Û":{"ha":1172,"x_min":126,"x_max":1243,"o":"m 581 1169 l 565 1190 q 559 1200 558 1197 q 569 1211 560 1203 l 730 1349 q 746 1358 739 1356 q 769 1360 753 1360 l 838 1360 q 857 1358 851 1360 q 867 1349 863 1355 l 970 1209 q 974 1201 974 1204 q 967 1193 974 1199 l 942 1172 q 931 1164 933 1163 q 920 1171 928 1165 l 813 1266 q 778 1267 797 1279 l 606 1165 q 592 1160 597 1159 q 581 1169 587 1162 m 438 924 l 314 431 q 296 344 303 386 q 290 267 290 303 q 334 131 290 185 q 492 76 378 76 q 664 113 592 76 q 785 224 736 149 q 862 417 833 299 l 985 921 q 986 944 990 938 q 960 950 983 950 l 857 950 q 837 956 840 950 q 833 978 833 962 l 833 1019 q 836 1036 833 1031 q 850 1042 838 1042 l 1210 1042 q 1236 1038 1229 1042 q 1243 1013 1243 1033 l 1243 974 q 1237 954 1243 958 q 1217 950 1231 950 l 1122 950 q 1094 945 1099 950 q 1084 922 1089 941 l 961 417 q 864 176 926 274 q 705 27 801 78 q 467 -23 608 -23 q 266 13 340 -23 q 158 111 191 49 q 126 253 126 173 q 132 333 126 292 q 148 417 138 374 l 271 919 q 273 944 276 938 q 247 950 270 950 l 158 950 q 136 956 140 950 q 131 978 131 962 l 131 1018 q 137 1038 131 1034 q 158 1042 142 1042 l 575 1042 q 600 1036 594 1042 q 605 1010 605 1031 l 605 972 q 600 954 605 958 q 582 950 596 950 l 468 950 q 444 945 448 950 q 438 924 441 940 "},"Ü":{"ha":1172,"x_min":126,"x_max":1243,"o":"m 896 1174 q 842 1196 865 1174 q 820 1250 820 1218 q 842 1304 820 1281 q 896 1326 865 1326 q 950 1304 928 1326 q 972 1250 972 1281 q 950 1196 972 1218 q 896 1174 928 1174 m 651 1174 q 597 1196 619 1174 q 574 1250 574 1218 q 597 1304 574 1281 q 651 1326 619 1326 q 704 1304 682 1326 q 726 1250 726 1281 q 704 1196 726 1218 q 651 1174 682 1174 m 438 924 l 314 431 q 296 344 303 386 q 290 267 290 303 q 334 131 290 185 q 492 76 378 76 q 664 113 592 76 q 785 224 736 149 q 862 417 833 299 l 985 921 q 986 944 990 938 q 960 950 983 950 l 857 950 q 837 956 840 950 q 833 978 833 962 l 833 1019 q 836 1036 833 1031 q 850 1042 838 1042 l 1210 1042 q 1236 1038 1229 1042 q 1243 1013 1243 1033 l 1243 974 q 1237 954 1243 958 q 1217 950 1231 950 l 1122 950 q 1094 945 1099 950 q 1084 922 1089 941 l 961 417 q 864 176 926 274 q 705 27 801 78 q 467 -23 608 -23 q 266 13 340 -23 q 158 111 191 49 q 126 253 126 173 q 132 333 126 292 q 148 417 138 374 l 271 919 q 273 944 276 938 q 247 950 270 950 l 158 950 q 136 956 140 950 q 131 978 131 962 l 131 1018 q 137 1038 131 1034 q 158 1042 142 1042 l 575 1042 q 600 1036 594 1042 q 605 1010 605 1031 l 605 972 q 600 954 605 958 q 582 950 596 950 l 468 950 q 444 945 448 950 q 438 924 441 940 "},"Ũ":{"ha":1172,"x_min":126,"x_max":1243,"o":"m 878 1162 q 799 1178 826 1162 q 753 1216 772 1195 q 721 1250 739 1233 q 668 1267 703 1267 q 620 1247 641 1267 q 590 1190 599 1227 q 572 1181 585 1181 l 535 1181 q 523 1186 524 1181 q 526 1201 523 1191 q 562 1282 540 1246 q 620 1340 585 1319 q 703 1362 655 1362 q 783 1345 756 1362 q 826 1308 810 1329 q 855 1274 839 1291 q 901 1256 872 1256 q 947 1275 928 1256 q 978 1328 967 1293 q 984 1340 981 1336 q 997 1343 988 1343 l 1035 1343 q 1046 1340 1045 1343 q 1045 1328 1047 1336 q 1010 1239 1033 1276 q 956 1182 988 1201 q 878 1162 923 1162 m 438 924 l 314 431 q 296 344 303 386 q 290 267 290 303 q 334 131 290 185 q 492 76 378 76 q 664 113 592 76 q 785 224 736 149 q 862 417 833 299 l 985 921 q 986 944 990 938 q 960 950 983 950 l 857 950 q 837 956 840 950 q 833 978 833 962 l 833 1019 q 836 1036 833 1031 q 850 1042 838 1042 l 1210 1042 q 1236 1038 1229 1042 q 1243 1013 1243 1033 l 1243 974 q 1237 954 1243 958 q 1217 950 1231 950 l 1122 950 q 1094 945 1099 950 q 1084 922 1089 941 l 961 417 q 864 176 926 274 q 705 27 801 78 q 467 -23 608 -23 q 266 13 340 -23 q 158 111 191 49 q 126 253 126 173 q 132 333 126 292 q 148 417 138 374 l 271 919 q 273 944 276 938 q 247 950 270 950 l 158 950 q 136 956 140 950 q 131 978 131 962 l 131 1018 q 137 1038 131 1034 q 158 1042 142 1042 l 575 1042 q 600 1036 594 1042 q 605 1010 605 1031 l 605 972 q 600 954 605 958 q 582 950 596 950 l 468 950 q 444 945 448 950 q 438 924 441 940 "},"Ū":{"ha":1172,"x_min":126,"x_max":1243,"o":"m 597 1184 l 597 1217 q 600 1231 597 1226 q 611 1235 602 1235 l 907 1235 q 925 1232 920 1235 q 931 1214 931 1228 l 931 1183 q 928 1167 931 1172 q 915 1162 926 1162 l 622 1162 q 603 1166 608 1162 q 597 1184 597 1169 m 438 924 l 314 431 q 296 344 303 386 q 290 267 290 303 q 334 131 290 185 q 492 76 378 76 q 664 113 592 76 q 785 224 736 149 q 862 417 833 299 l 985 921 q 986 944 990 938 q 960 950 983 950 l 857 950 q 837 956 840 950 q 833 978 833 962 l 833 1019 q 836 1036 833 1031 q 850 1042 838 1042 l 1210 1042 q 1236 1038 1229 1042 q 1243 1013 1243 1033 l 1243 974 q 1237 954 1243 958 q 1217 950 1231 950 l 1122 950 q 1094 945 1099 950 q 1084 922 1089 941 l 961 417 q 864 176 926 274 q 705 27 801 78 q 467 -23 608 -23 q 266 13 340 -23 q 158 111 191 49 q 126 253 126 173 q 132 333 126 292 q 148 417 138 374 l 271 919 q 273 944 276 938 q 247 950 270 950 l 158 950 q 136 956 140 950 q 131 978 131 962 l 131 1018 q 137 1038 131 1034 q 158 1042 142 1042 l 575 1042 q 600 1036 594 1042 q 605 1010 605 1031 l 605 972 q 600 954 605 958 q 582 950 596 950 l 468 950 q 444 945 448 950 q 438 924 441 940 "},"Ŭ":{"ha":1172,"x_min":126,"x_max":1243,"o":"m 740 1161 q 640 1183 673 1161 q 600 1244 607 1204 q 603 1337 592 1283 q 622 1350 606 1350 l 642 1350 q 652 1339 653 1350 q 670 1274 647 1296 q 744 1252 694 1252 q 826 1272 792 1252 q 874 1330 860 1291 q 879 1345 878 1340 q 893 1350 881 1350 l 921 1350 q 933 1347 932 1350 q 931 1333 934 1344 q 867 1208 912 1255 q 740 1161 822 1161 m 438 924 l 314 431 q 296 344 303 386 q 290 267 290 303 q 334 131 290 185 q 492 76 378 76 q 664 113 592 76 q 785 224 736 149 q 862 417 833 299 l 985 921 q 986 944 990 938 q 960 950 983 950 l 857 950 q 837 956 840 950 q 833 978 833 962 l 833 1019 q 836 1036 833 1031 q 850 1042 838 1042 l 1210 1042 q 1236 1038 1229 1042 q 1243 1013 1243 1033 l 1243 974 q 1237 954 1243 958 q 1217 950 1231 950 l 1122 950 q 1094 945 1099 950 q 1084 922 1089 941 l 961 417 q 864 176 926 274 q 705 27 801 78 q 467 -23 608 -23 q 266 13 340 -23 q 158 111 191 49 q 126 253 126 173 q 132 333 126 292 q 148 417 138 374 l 271 919 q 273 944 276 938 q 247 950 270 950 l 158 950 q 136 956 140 950 q 131 978 131 962 l 131 1018 q 137 1038 131 1034 q 158 1042 142 1042 l 575 1042 q 600 1036 594 1042 q 605 1010 605 1031 l 605 972 q 600 954 605 958 q 582 950 596 950 l 468 950 q 444 945 448 950 q 438 924 441 940 "},"Ů":{"ha":1172,"x_min":126,"x_max":1243,"o":"m 741 1223 q 795 1243 772 1223 q 825 1294 818 1263 q 817 1347 832 1326 q 772 1368 803 1368 q 718 1347 742 1368 q 688 1294 694 1326 q 696 1243 681 1263 q 741 1223 710 1223 m 730 1163 q 642 1201 672 1163 q 625 1294 613 1239 q 656 1361 633 1331 q 713 1409 680 1391 q 783 1426 747 1426 q 871 1388 842 1426 q 888 1294 900 1349 q 857 1228 881 1258 q 800 1180 833 1198 q 730 1163 767 1163 m 438 924 l 314 431 q 296 344 303 386 q 290 267 290 303 q 334 131 290 185 q 492 76 378 76 q 664 113 592 76 q 785 224 736 149 q 862 417 833 299 l 985 921 q 986 944 990 938 q 960 950 983 950 l 857 950 q 837 956 840 950 q 833 978 833 962 l 833 1019 q 836 1036 833 1031 q 850 1042 838 1042 l 1210 1042 q 1236 1038 1229 1042 q 1243 1013 1243 1033 l 1243 974 q 1237 954 1243 958 q 1217 950 1231 950 l 1122 950 q 1094 945 1099 950 q 1084 922 1089 941 l 961 417 q 864 176 926 274 q 705 27 801 78 q 467 -23 608 -23 q 266 13 340 -23 q 158 111 191 49 q 126 253 126 173 q 132 333 126 292 q 148 417 138 374 l 271 919 q 273 944 276 938 q 247 950 270 950 l 158 950 q 136 956 140 950 q 131 978 131 962 l 131 1018 q 137 1038 131 1034 q 158 1042 142 1042 l 575 1042 q 600 1036 594 1042 q 605 1010 605 1031 l 605 972 q 600 954 605 958 q 582 950 596 950 l 468 950 q 444 945 448 950 q 438 924 441 940 "},"Ű":{"ha":1172,"x_min":126,"x_max":1243,"o":"m 873 1168 l 846 1192 q 834 1207 835 1203 q 844 1222 833 1212 l 974 1366 q 1009 1387 989 1383 q 1049 1385 1029 1392 q 1081 1363 1068 1378 q 1096 1311 1102 1339 q 1065 1268 1090 1284 l 898 1163 q 884 1159 888 1158 q 873 1168 881 1160 m 563 1172 l 537 1192 q 528 1210 526 1203 q 541 1226 531 1216 l 667 1366 q 702 1388 682 1383 q 741 1387 722 1392 q 773 1365 760 1381 q 790 1313 794 1341 q 758 1268 785 1285 l 605 1173 q 582 1161 590 1163 q 563 1172 575 1159 m 438 924 l 314 431 q 296 344 303 386 q 290 267 290 303 q 334 131 290 185 q 492 76 378 76 q 664 113 592 76 q 785 224 736 149 q 862 417 833 299 l 985 921 q 986 944 990 938 q 960 950 983 950 l 857 950 q 837 956 840 950 q 833 978 833 962 l 833 1019 q 836 1036 833 1031 q 850 1042 838 1042 l 1210 1042 q 1236 1038 1229 1042 q 1243 1013 1243 1033 l 1243 974 q 1237 954 1243 958 q 1217 950 1231 950 l 1122 950 q 1094 945 1099 950 q 1084 922 1089 941 l 961 417 q 864 176 926 274 q 705 27 801 78 q 467 -23 608 -23 q 266 13 340 -23 q 158 111 191 49 q 126 253 126 173 q 132 333 126 292 q 148 417 138 374 l 271 919 q 273 944 276 938 q 247 950 270 950 l 158 950 q 136 956 140 950 q 131 978 131 962 l 131 1018 q 137 1038 131 1034 q 158 1042 142 1042 l 575 1042 q 600 1036 594 1042 q 605 1010 605 1031 l 605 972 q 600 954 605 958 q 582 950 596 950 l 468 950 q 444 945 448 950 q 438 924 441 940 "},"Ų":{"ha":1172,"x_min":126,"x_max":1243,"o":"m 528 -285 q 453 -275 487 -285 q 403 -241 420 -265 q 394 -178 387 -217 q 424 -117 400 -147 q 482 -62 448 -88 q 554 -12 517 -35 q 623 29 591 10 q 647 38 636 37 q 660 33 657 39 q 661 19 665 26 q 647 2 657 12 q 605 -39 627 -16 q 565 -86 583 -61 q 541 -140 548 -112 q 546 -188 535 -167 q 592 -209 557 -209 q 638 -197 617 -209 q 673 -169 658 -185 q 694 -164 685 -155 l 706 -175 q 711 -183 712 -180 q 705 -194 710 -187 q 634 -259 676 -233 q 528 -285 592 -285 m 438 924 l 314 431 q 296 344 303 386 q 290 267 290 303 q 334 131 290 185 q 492 76 378 76 q 664 113 592 76 q 785 224 736 149 q 862 417 833 299 l 985 921 q 986 944 990 938 q 960 950 983 950 l 857 950 q 837 956 840 950 q 833 978 833 962 l 833 1019 q 836 1036 833 1031 q 850 1042 838 1042 l 1210 1042 q 1236 1038 1229 1042 q 1243 1013 1243 1033 l 1243 974 q 1237 954 1243 958 q 1217 950 1231 950 l 1122 950 q 1094 945 1099 950 q 1084 922 1089 941 l 961 417 q 864 176 926 274 q 705 27 801 78 q 467 -23 608 -23 q 266 13 340 -23 q 158 111 191 49 q 126 253 126 173 q 132 333 126 292 q 148 417 138 374 l 271 919 q 273 944 276 938 q 247 950 270 950 l 158 950 q 136 956 140 950 q 131 978 131 962 l 131 1018 q 137 1038 131 1034 q 158 1042 142 1042 l 575 1042 q 600 1036 594 1042 q 605 1010 605 1031 l 605 972 q 600 954 605 958 q 582 950 596 950 l 468 950 q 444 945 448 950 q 438 924 441 940 "},"V":{"ha":1189,"x_min":95,"x_max":1295,"o":"m 416 9 l 242 922 q 232 944 238 938 q 205 950 226 950 l 121 950 q 99 956 103 950 q 95 978 95 962 l 95 1016 q 102 1038 95 1035 q 127 1042 108 1042 l 547 1042 q 570 1036 566 1042 q 574 1010 574 1030 l 574 975 q 568 954 574 958 q 545 950 563 950 l 442 950 q 419 944 423 950 q 419 921 416 939 l 525 277 q 535 204 533 227 q 544 181 537 181 q 574 208 555 181 q 615 272 592 234 l 1026 924 q 1032 946 1037 942 q 1001 950 1027 950 l 923 950 q 900 953 906 950 q 894 974 894 957 l 894 1019 q 900 1039 894 1035 q 921 1042 906 1042 l 1267 1042 q 1289 1038 1282 1042 q 1295 1018 1295 1034 l 1295 981 q 1291 956 1295 962 q 1268 950 1287 950 l 1192 950 q 1161 946 1168 950 q 1144 928 1153 942 l 556 4 q 539 -15 548 -10 q 507 -21 530 -21 l 456 -21 q 426 -15 433 -21 q 416 9 419 -10 "},"W":{"ha":1651,"x_min":95,"x_max":1757,"o":"m 563 300 l 861 789 q 875 815 871 804 q 876 850 879 826 l 868 933 q 863 947 867 944 q 845 950 858 950 l 760 950 q 741 953 746 950 q 735 971 735 957 l 735 1008 q 741 1036 735 1031 q 769 1042 747 1042 l 1125 1042 q 1143 1037 1139 1042 q 1147 1018 1147 1033 l 1147 975 q 1141 954 1147 958 q 1117 950 1135 950 l 1055 950 q 1032 945 1035 950 q 1031 921 1028 940 l 1083 351 q 1086 283 1088 309 q 1086 245 1085 256 q 1097 233 1088 233 q 1115 250 1105 233 q 1137 292 1125 267 q 1161 340 1149 317 l 1479 923 q 1486 946 1490 942 q 1452 950 1483 950 l 1388 950 q 1367 955 1372 950 q 1363 976 1363 960 l 1363 1024 q 1365 1040 1363 1038 q 1381 1042 1368 1042 l 1727 1042 q 1750 1038 1742 1042 q 1757 1017 1757 1034 l 1757 976 q 1753 956 1757 961 q 1733 950 1749 950 l 1619 950 q 1598 945 1602 950 q 1588 930 1594 941 l 1086 10 q 1073 -8 1081 -1 q 1046 -14 1065 -14 l 999 -14 q 971 -10 978 -14 q 962 13 964 -6 l 908 542 q 905 627 903 593 q 891 662 907 662 q 862 630 878 662 q 820 555 846 599 l 485 10 q 468 -9 476 -3 q 435 -14 459 -14 l 390 -14 q 368 -10 370 -14 q 363 10 365 -6 l 237 921 q 232 940 235 934 q 221 948 228 947 q 199 950 214 950 l 126 950 q 100 956 106 950 q 95 982 95 961 l 95 1015 q 99 1036 95 1031 q 117 1042 102 1042 l 522 1042 q 545 1038 539 1042 q 551 1016 551 1033 l 551 983 q 548 957 551 965 q 524 950 544 950 l 426 950 q 402 944 406 950 q 401 922 399 938 l 480 305 q 484 235 485 262 q 499 208 483 208 q 525 234 512 208 q 563 300 538 260 "},"Ŵ":{"ha":1651,"x_min":95,"x_max":1757,"o":"m 835 1169 l 819 1190 q 814 1200 813 1197 q 824 1211 815 1203 l 984 1349 q 1000 1358 993 1356 q 1023 1360 1008 1360 l 1092 1360 q 1111 1358 1106 1360 q 1122 1349 1117 1355 l 1224 1209 q 1228 1201 1228 1204 q 1221 1193 1228 1199 l 1197 1172 q 1185 1164 1188 1163 q 1174 1171 1182 1165 l 1067 1266 q 1032 1267 1051 1279 l 860 1165 q 846 1160 851 1159 q 835 1169 841 1162 m 563 300 l 861 789 q 875 815 871 804 q 876 850 879 826 l 868 933 q 863 947 867 944 q 845 950 858 950 l 760 950 q 741 953 746 950 q 735 971 735 957 l 735 1008 q 741 1036 735 1031 q 769 1042 747 1042 l 1125 1042 q 1143 1037 1139 1042 q 1147 1018 1147 1033 l 1147 975 q 1141 954 1147 958 q 1117 950 1135 950 l 1055 950 q 1032 945 1035 950 q 1031 921 1028 940 l 1083 351 q 1086 283 1088 309 q 1086 245 1085 256 q 1097 233 1088 233 q 1115 250 1105 233 q 1137 292 1125 267 q 1161 340 1149 317 l 1479 923 q 1486 946 1490 942 q 1452 950 1483 950 l 1388 950 q 1367 955 1372 950 q 1363 976 1363 960 l 1363 1024 q 1365 1040 1363 1038 q 1381 1042 1368 1042 l 1727 1042 q 1750 1038 1742 1042 q 1757 1017 1757 1034 l 1757 976 q 1753 956 1757 961 q 1733 950 1749 950 l 1619 950 q 1598 945 1602 950 q 1588 930 1594 941 l 1086 10 q 1073 -8 1081 -1 q 1046 -14 1065 -14 l 999 -14 q 971 -10 978 -14 q 962 13 964 -6 l 908 542 q 905 627 903 593 q 891 662 907 662 q 862 630 878 662 q 820 555 846 599 l 485 10 q 468 -9 476 -3 q 435 -14 459 -14 l 390 -14 q 368 -10 370 -14 q 363 10 365 -6 l 237 921 q 232 940 235 934 q 221 948 228 947 q 199 950 214 950 l 126 950 q 100 956 106 950 q 95 982 95 961 l 95 1015 q 99 1036 95 1031 q 117 1042 102 1042 l 522 1042 q 545 1038 539 1042 q 551 1016 551 1033 l 551 983 q 548 957 551 965 q 524 950 544 950 l 426 950 q 402 944 406 950 q 401 922 399 938 l 480 305 q 484 235 485 262 q 499 208 483 208 q 525 234 512 208 q 563 300 538 260 "},"Ẁ":{"ha":1651,"x_min":95,"x_max":1757,"o":"m 846 1347 q 877 1372 858 1365 q 917 1376 897 1380 q 952 1357 938 1372 l 1091 1216 q 1092 1191 1103 1203 l 1060 1158 q 1051 1151 1055 1152 q 1040 1154 1047 1149 l 866 1254 q 835 1292 842 1267 q 846 1347 827 1317 m 563 300 l 861 789 q 875 815 871 804 q 876 850 879 826 l 868 933 q 863 947 867 944 q 845 950 858 950 l 760 950 q 741 953 746 950 q 735 971 735 957 l 735 1008 q 741 1036 735 1031 q 769 1042 747 1042 l 1125 1042 q 1143 1037 1139 1042 q 1147 1018 1147 1033 l 1147 975 q 1141 954 1147 958 q 1117 950 1135 950 l 1055 950 q 1032 945 1035 950 q 1031 921 1028 940 l 1083 351 q 1086 283 1088 309 q 1086 245 1085 256 q 1097 233 1088 233 q 1115 250 1105 233 q 1137 292 1125 267 q 1161 340 1149 317 l 1479 923 q 1486 946 1490 942 q 1452 950 1483 950 l 1388 950 q 1367 955 1372 950 q 1363 976 1363 960 l 1363 1024 q 1365 1040 1363 1038 q 1381 1042 1368 1042 l 1727 1042 q 1750 1038 1742 1042 q 1757 1017 1757 1034 l 1757 976 q 1753 956 1757 961 q 1733 950 1749 950 l 1619 950 q 1598 945 1602 950 q 1588 930 1594 941 l 1086 10 q 1073 -8 1081 -1 q 1046 -14 1065 -14 l 999 -14 q 971 -10 978 -14 q 962 13 964 -6 l 908 542 q 905 627 903 593 q 891 662 907 662 q 862 630 878 662 q 820 555 846 599 l 485 10 q 468 -9 476 -3 q 435 -14 459 -14 l 390 -14 q 368 -10 370 -14 q 363 10 365 -6 l 237 921 q 232 940 235 934 q 221 948 228 947 q 199 950 214 950 l 126 950 q 100 956 106 950 q 95 982 95 961 l 95 1015 q 99 1036 95 1031 q 117 1042 102 1042 l 522 1042 q 545 1038 539 1042 q 551 1016 551 1033 l 551 983 q 548 957 551 965 q 524 950 544 950 l 426 950 q 402 944 406 950 q 401 922 399 938 l 480 305 q 484 235 485 262 q 499 208 483 208 q 525 234 512 208 q 563 300 538 260 "},"Ẃ":{"ha":1651,"x_min":95,"x_max":1757,"o":"m 1200 1347 q 1211 1292 1219 1317 q 1180 1254 1203 1267 l 1011 1157 q 997 1151 1002 1151 q 985 1160 992 1151 l 953 1192 q 953 1215 942 1204 l 1094 1357 q 1129 1376 1108 1373 q 1169 1372 1149 1380 q 1200 1347 1189 1365 m 563 300 l 861 789 q 875 815 871 804 q 876 850 879 826 l 868 933 q 863 947 867 944 q 845 950 858 950 l 760 950 q 741 953 746 950 q 735 971 735 957 l 735 1008 q 741 1036 735 1031 q 769 1042 747 1042 l 1125 1042 q 1143 1037 1139 1042 q 1147 1018 1147 1033 l 1147 975 q 1141 954 1147 958 q 1117 950 1135 950 l 1055 950 q 1032 945 1035 950 q 1031 921 1028 940 l 1083 351 q 1086 283 1088 309 q 1086 245 1085 256 q 1097 233 1088 233 q 1115 250 1105 233 q 1137 292 1125 267 q 1161 340 1149 317 l 1479 923 q 1486 946 1490 942 q 1452 950 1483 950 l 1388 950 q 1367 955 1372 950 q 1363 976 1363 960 l 1363 1024 q 1365 1040 1363 1038 q 1381 1042 1368 1042 l 1727 1042 q 1750 1038 1742 1042 q 1757 1017 1757 1034 l 1757 976 q 1753 956 1757 961 q 1733 950 1749 950 l 1619 950 q 1598 945 1602 950 q 1588 930 1594 941 l 1086 10 q 1073 -8 1081 -1 q 1046 -14 1065 -14 l 999 -14 q 971 -10 978 -14 q 962 13 964 -6 l 908 542 q 905 627 903 593 q 891 662 907 662 q 862 630 878 662 q 820 555 846 599 l 485 10 q 468 -9 476 -3 q 435 -14 459 -14 l 390 -14 q 368 -10 370 -14 q 363 10 365 -6 l 237 921 q 232 940 235 934 q 221 948 228 947 q 199 950 214 950 l 126 950 q 100 956 106 950 q 95 982 95 961 l 95 1015 q 99 1036 95 1031 q 117 1042 102 1042 l 522 1042 q 545 1038 539 1042 q 551 1016 551 1033 l 551 983 q 548 957 551 965 q 524 950 544 950 l 426 950 q 402 944 406 950 q 401 922 399 938 l 480 305 q 484 235 485 262 q 499 208 483 208 q 525 234 512 208 q 563 300 538 260 "},"Ẅ":{"ha":1651,"x_min":95,"x_max":1757,"o":"m 1149 1174 q 1096 1196 1118 1174 q 1074 1250 1074 1218 q 1096 1304 1074 1281 q 1149 1326 1118 1326 q 1203 1304 1181 1326 q 1226 1250 1226 1281 q 1203 1196 1226 1218 q 1149 1174 1181 1174 m 904 1174 q 850 1196 872 1174 q 828 1250 828 1218 q 850 1304 828 1281 q 904 1326 872 1326 q 958 1304 935 1326 q 980 1250 980 1281 q 958 1196 980 1218 q 904 1174 935 1174 m 563 300 l 861 789 q 875 815 871 804 q 876 850 879 826 l 868 933 q 863 947 867 944 q 845 950 858 950 l 760 950 q 741 953 746 950 q 735 971 735 957 l 735 1008 q 741 1036 735 1031 q 769 1042 747 1042 l 1125 1042 q 1143 1037 1139 1042 q 1147 1018 1147 1033 l 1147 975 q 1141 954 1147 958 q 1117 950 1135 950 l 1055 950 q 1032 945 1035 950 q 1031 921 1028 940 l 1083 351 q 1086 283 1088 309 q 1086 245 1085 256 q 1097 233 1088 233 q 1115 250 1105 233 q 1137 292 1125 267 q 1161 340 1149 317 l 1479 923 q 1486 946 1490 942 q 1452 950 1483 950 l 1388 950 q 1367 955 1372 950 q 1363 976 1363 960 l 1363 1024 q 1365 1040 1363 1038 q 1381 1042 1368 1042 l 1727 1042 q 1750 1038 1742 1042 q 1757 1017 1757 1034 l 1757 976 q 1753 956 1757 961 q 1733 950 1749 950 l 1619 950 q 1598 945 1602 950 q 1588 930 1594 941 l 1086 10 q 1073 -8 1081 -1 q 1046 -14 1065 -14 l 999 -14 q 971 -10 978 -14 q 962 13 964 -6 l 908 542 q 905 627 903 593 q 891 662 907 662 q 862 630 878 662 q 820 555 846 599 l 485 10 q 468 -9 476 -3 q 435 -14 459 -14 l 390 -14 q 368 -10 370 -14 q 363 10 365 -6 l 237 921 q 232 940 235 934 q 221 948 228 947 q 199 950 214 950 l 126 950 q 100 956 106 950 q 95 982 95 961 l 95 1015 q 99 1036 95 1031 q 117 1042 102 1042 l 522 1042 q 545 1038 539 1042 q 551 1016 551 1033 l 551 983 q 548 957 551 965 q 524 950 544 950 l 426 950 q 402 944 406 950 q 401 922 399 938 l 480 305 q 484 235 485 262 q 499 208 483 208 q 525 234 512 208 q 563 300 538 260 "},"Ẇ":{"ha":1651,"x_min":95,"x_max":1757,"o":"m 1037 1201 q 973 1228 1000 1201 q 947 1292 947 1255 q 973 1356 947 1329 q 1037 1382 1000 1382 q 1101 1356 1075 1382 q 1128 1292 1128 1329 q 1101 1228 1128 1255 q 1037 1201 1075 1201 m 563 300 l 861 789 q 875 815 871 804 q 876 850 879 826 l 868 933 q 863 947 867 944 q 845 950 858 950 l 760 950 q 741 953 746 950 q 735 971 735 957 l 735 1008 q 741 1036 735 1031 q 769 1042 747 1042 l 1125 1042 q 1143 1037 1139 1042 q 1147 1018 1147 1033 l 1147 975 q 1141 954 1147 958 q 1117 950 1135 950 l 1055 950 q 1032 945 1035 950 q 1031 921 1028 940 l 1083 351 q 1086 283 1088 309 q 1086 245 1085 256 q 1097 233 1088 233 q 1115 250 1105 233 q 1137 292 1125 267 q 1161 340 1149 317 l 1479 923 q 1486 946 1490 942 q 1452 950 1483 950 l 1388 950 q 1367 955 1372 950 q 1363 976 1363 960 l 1363 1024 q 1365 1040 1363 1038 q 1381 1042 1368 1042 l 1727 1042 q 1750 1038 1742 1042 q 1757 1017 1757 1034 l 1757 976 q 1753 956 1757 961 q 1733 950 1749 950 l 1619 950 q 1598 945 1602 950 q 1588 930 1594 941 l 1086 10 q 1073 -8 1081 -1 q 1046 -14 1065 -14 l 999 -14 q 971 -10 978 -14 q 962 13 964 -6 l 908 542 q 905 627 903 593 q 891 662 907 662 q 862 630 878 662 q 820 555 846 599 l 485 10 q 468 -9 476 -3 q 435 -14 459 -14 l 390 -14 q 368 -10 370 -14 q 363 10 365 -6 l 237 921 q 232 940 235 934 q 221 948 228 947 q 199 950 214 950 l 126 950 q 100 956 106 950 q 95 982 95 961 l 95 1015 q 99 1036 95 1031 q 117 1042 102 1042 l 522 1042 q 545 1038 539 1042 q 551 1016 551 1033 l 551 983 q 548 957 551 965 q 524 950 544 950 l 426 950 q 402 944 406 950 q 401 922 399 938 l 480 305 q 484 235 485 262 q 499 208 483 208 q 525 234 512 208 q 563 300 538 260 "},"Ẉ":{"ha":1651,"x_min":95,"x_max":1757,"o":"m 688 -299 q 625 -272 651 -299 q 598 -208 598 -244 q 625 -144 598 -170 q 688 -117 651 -117 q 752 -144 726 -117 q 778 -208 778 -170 q 752 -272 778 -244 q 688 -299 726 -299 m 563 300 l 861 789 q 875 815 871 804 q 876 850 879 826 l 868 933 q 863 947 867 944 q 845 950 858 950 l 760 950 q 741 953 746 950 q 735 971 735 957 l 735 1008 q 741 1036 735 1031 q 769 1042 747 1042 l 1125 1042 q 1143 1037 1139 1042 q 1147 1018 1147 1033 l 1147 975 q 1141 954 1147 958 q 1117 950 1135 950 l 1055 950 q 1032 945 1035 950 q 1031 921 1028 940 l 1083 351 q 1086 283 1088 309 q 1086 245 1085 256 q 1097 233 1088 233 q 1115 250 1105 233 q 1137 292 1125 267 q 1161 340 1149 317 l 1479 923 q 1486 946 1490 942 q 1452 950 1483 950 l 1388 950 q 1367 955 1372 950 q 1363 976 1363 960 l 1363 1024 q 1365 1040 1363 1038 q 1381 1042 1368 1042 l 1727 1042 q 1750 1038 1742 1042 q 1757 1017 1757 1034 l 1757 976 q 1753 956 1757 961 q 1733 950 1749 950 l 1619 950 q 1598 945 1602 950 q 1588 930 1594 941 l 1086 10 q 1073 -8 1081 -1 q 1046 -14 1065 -14 l 999 -14 q 971 -10 978 -14 q 962 13 964 -6 l 908 542 q 905 627 903 593 q 891 662 907 662 q 862 630 878 662 q 820 555 846 599 l 485 10 q 468 -9 476 -3 q 435 -14 459 -14 l 390 -14 q 368 -10 370 -14 q 363 10 365 -6 l 237 921 q 232 940 235 934 q 221 948 228 947 q 199 950 214 950 l 126 950 q 100 956 106 950 q 95 982 95 961 l 95 1015 q 99 1036 95 1031 q 117 1042 102 1042 l 522 1042 q 545 1038 539 1042 q 551 1016 551 1033 l 551 983 q 548 957 551 965 q 524 950 544 950 l 426 950 q 402 944 406 950 q 401 922 399 938 l 480 305 q 484 235 485 262 q 499 208 483 208 q 525 234 512 208 q 563 300 538 260 "},"X":{"ha":1204,"x_min":-89,"x_max":1275,"o":"m 269 950 l 198 950 q 173 955 178 950 q 168 979 168 960 l 168 1015 q 174 1037 168 1032 q 197 1042 180 1042 l 626 1042 q 648 1038 642 1042 q 653 1017 653 1034 l 653 978 q 649 955 653 960 q 626 950 644 950 l 535 950 q 502 943 508 950 q 505 922 496 936 l 636 683 q 652 655 647 665 q 667 645 656 645 q 689 657 677 645 q 719 688 700 669 l 962 924 q 977 938 971 933 q 978 947 983 944 q 951 950 974 950 l 876 950 q 851 954 856 950 q 847 977 847 958 l 847 1015 q 852 1038 847 1033 q 876 1042 857 1042 l 1247 1042 q 1270 1036 1266 1042 q 1275 1010 1275 1031 l 1275 974 q 1269 953 1275 957 q 1245 950 1263 950 l 1154 950 q 1113 944 1124 950 q 1088 924 1103 938 l 760 610 q 727 576 740 590 q 715 550 715 563 q 728 520 715 536 q 757 476 741 503 l 953 127 q 973 101 963 110 q 1009 92 982 92 l 1093 92 q 1113 86 1110 92 q 1117 63 1117 81 l 1117 35 q 1110 6 1117 11 q 1081 0 1104 0 l 658 0 q 634 3 640 0 q 627 25 627 7 l 627 63 q 632 87 627 83 q 656 92 638 92 l 740 92 q 773 100 770 92 q 765 125 775 108 l 615 399 q 597 438 601 423 q 585 452 593 452 q 564 440 577 452 q 533 410 550 427 l 236 119 q 221 102 225 108 q 224 94 217 97 q 253 92 231 92 l 310 92 q 334 88 328 92 q 341 64 341 83 l 341 28 q 337 6 341 11 q 316 0 333 0 l -60 0 q -83 5 -77 0 q -89 26 -89 9 l -89 69 q -84 88 -89 84 q -63 92 -79 92 l 38 92 q 81 99 70 92 q 107 121 92 106 l 478 485 q 514 521 501 507 q 527 548 527 535 q 514 580 527 563 q 484 627 501 598 l 317 928 q 300 946 309 942 q 269 950 292 950 "},"Y":{"ha":1094,"x_min":95,"x_max":1199,"o":"m 214 28 l 214 67 q 219 88 214 83 q 240 92 224 92 l 358 92 q 387 102 385 92 q 394 134 390 113 l 452 382 q 459 430 459 413 q 447 472 459 448 l 233 928 q 222 946 226 942 q 197 950 217 950 l 126 950 q 101 955 108 950 q 95 978 95 959 l 95 1017 q 101 1038 95 1035 q 125 1042 107 1042 l 520 1042 q 542 1038 536 1042 q 547 1018 547 1034 l 547 984 q 542 956 547 962 q 515 950 537 950 l 436 950 q 410 944 413 950 q 415 922 408 939 l 561 604 q 574 561 571 583 q 588 540 576 540 q 607 558 596 540 q 633 592 619 575 l 914 920 q 923 944 928 938 q 885 950 917 950 l 806 950 q 779 955 783 950 q 775 982 775 960 l 775 1013 q 779 1036 775 1031 q 799 1042 783 1042 l 1173 1042 q 1194 1039 1188 1042 q 1199 1022 1199 1036 l 1199 977 q 1195 955 1199 960 q 1174 950 1190 950 l 1090 950 q 1061 945 1068 950 q 1045 929 1055 941 l 668 494 q 642 458 651 474 q 624 412 632 442 l 560 131 q 561 100 556 108 q 597 92 567 92 l 685 92 q 714 87 708 92 q 720 60 720 83 l 720 32 q 713 5 720 10 q 684 0 705 0 l 247 0 q 220 4 227 0 q 214 28 214 8 "},"Ý":{"ha":1094,"x_min":95,"x_max":1199,"o":"m 896 1347 q 907 1292 915 1317 q 876 1254 899 1267 l 707 1157 q 693 1151 698 1151 q 681 1160 688 1151 l 649 1192 q 649 1215 638 1204 l 790 1357 q 825 1376 804 1373 q 865 1372 845 1380 q 896 1347 885 1365 m 214 28 l 214 67 q 219 88 214 83 q 240 92 224 92 l 358 92 q 387 102 385 92 q 394 134 390 113 l 452 382 q 459 430 459 413 q 447 472 459 448 l 233 928 q 222 946 226 942 q 197 950 217 950 l 126 950 q 101 955 108 950 q 95 978 95 959 l 95 1017 q 101 1038 95 1035 q 125 1042 107 1042 l 520 1042 q 542 1038 536 1042 q 547 1018 547 1034 l 547 984 q 542 956 547 962 q 515 950 537 950 l 436 950 q 410 944 413 950 q 415 922 408 939 l 561 604 q 574 561 571 583 q 588 540 576 540 q 607 558 596 540 q 633 592 619 575 l 914 920 q 923 944 928 938 q 885 950 917 950 l 806 950 q 779 955 783 950 q 775 982 775 960 l 775 1013 q 779 1036 775 1031 q 799 1042 783 1042 l 1173 1042 q 1194 1039 1188 1042 q 1199 1022 1199 1036 l 1199 977 q 1195 955 1199 960 q 1174 950 1190 950 l 1090 950 q 1061 945 1068 950 q 1045 929 1055 941 l 668 494 q 642 458 651 474 q 624 412 632 442 l 560 131 q 561 100 556 108 q 597 92 567 92 l 685 92 q 714 87 708 92 q 720 60 720 83 l 720 32 q 713 5 720 10 q 684 0 705 0 l 247 0 q 220 4 227 0 q 214 28 214 8 "},"Ŷ":{"ha":1094,"x_min":95,"x_max":1199,"o":"m 531 1169 l 515 1190 q 509 1200 508 1197 q 519 1211 510 1203 l 680 1349 q 696 1358 689 1356 q 719 1360 703 1360 l 788 1360 q 807 1358 801 1360 q 817 1349 813 1355 l 920 1209 q 924 1201 924 1204 q 917 1193 924 1199 l 892 1172 q 881 1164 883 1163 q 870 1171 878 1165 l 763 1266 q 728 1267 747 1279 l 556 1165 q 542 1160 547 1159 q 531 1169 537 1162 m 214 28 l 214 67 q 219 88 214 83 q 240 92 224 92 l 358 92 q 387 102 385 92 q 394 134 390 113 l 452 382 q 459 430 459 413 q 447 472 459 448 l 233 928 q 222 946 226 942 q 197 950 217 950 l 126 950 q 101 955 108 950 q 95 978 95 959 l 95 1017 q 101 1038 95 1035 q 125 1042 107 1042 l 520 1042 q 542 1038 536 1042 q 547 1018 547 1034 l 547 984 q 542 956 547 962 q 515 950 537 950 l 436 950 q 410 944 413 950 q 415 922 408 939 l 561 604 q 574 561 571 583 q 588 540 576 540 q 607 558 596 540 q 633 592 619 575 l 914 920 q 923 944 928 938 q 885 950 917 950 l 806 950 q 779 955 783 950 q 775 982 775 960 l 775 1013 q 779 1036 775 1031 q 799 1042 783 1042 l 1173 1042 q 1194 1039 1188 1042 q 1199 1022 1199 1036 l 1199 977 q 1195 955 1199 960 q 1174 950 1190 950 l 1090 950 q 1061 945 1068 950 q 1045 929 1055 941 l 668 494 q 642 458 651 474 q 624 412 632 442 l 560 131 q 561 100 556 108 q 597 92 567 92 l 685 92 q 714 87 708 92 q 720 60 720 83 l 720 32 q 713 5 720 10 q 684 0 705 0 l 247 0 q 220 4 227 0 q 214 28 214 8 "},"Ÿ":{"ha":1094,"x_min":95,"x_max":1199,"o":"m 845 1174 q 792 1196 814 1174 q 769 1250 769 1218 q 792 1304 769 1281 q 845 1326 814 1326 q 899 1304 877 1326 q 922 1250 922 1281 q 899 1196 922 1218 q 845 1174 877 1174 m 600 1174 q 546 1196 568 1174 q 524 1250 524 1218 q 546 1304 524 1281 q 600 1326 568 1326 q 653 1304 631 1326 q 676 1250 676 1281 q 653 1196 676 1218 q 600 1174 631 1174 m 214 28 l 214 67 q 219 88 214 83 q 240 92 224 92 l 358 92 q 387 102 385 92 q 394 134 390 113 l 452 382 q 459 430 459 413 q 447 472 459 448 l 233 928 q 222 946 226 942 q 197 950 217 950 l 126 950 q 101 955 108 950 q 95 978 95 959 l 95 1017 q 101 1038 95 1035 q 125 1042 107 1042 l 520 1042 q 542 1038 536 1042 q 547 1018 547 1034 l 547 984 q 542 956 547 962 q 515 950 537 950 l 436 950 q 410 944 413 950 q 415 922 408 939 l 561 604 q 574 561 571 583 q 588 540 576 540 q 607 558 596 540 q 633 592 619 575 l 914 920 q 923 944 928 938 q 885 950 917 950 l 806 950 q 779 955 783 950 q 775 982 775 960 l 775 1013 q 779 1036 775 1031 q 799 1042 783 1042 l 1173 1042 q 1194 1039 1188 1042 q 1199 1022 1199 1036 l 1199 977 q 1195 955 1199 960 q 1174 950 1190 950 l 1090 950 q 1061 945 1068 950 q 1045 929 1055 941 l 668 494 q 642 458 651 474 q 624 412 632 442 l 560 131 q 561 100 556 108 q 597 92 567 92 l 685 92 q 714 87 708 92 q 720 60 720 83 l 720 32 q 713 5 720 10 q 684 0 705 0 l 247 0 q 220 4 227 0 q 214 28 214 8 "},"Ỳ":{"ha":1094,"x_min":95,"x_max":1199,"o":"m 542 1347 q 573 1372 553 1365 q 613 1376 592 1380 q 648 1357 634 1372 l 787 1216 q 788 1191 799 1203 l 756 1158 q 747 1151 751 1152 q 735 1154 743 1149 l 562 1254 q 531 1292 538 1267 q 542 1347 523 1317 m 214 28 l 214 67 q 219 88 214 83 q 240 92 224 92 l 358 92 q 387 102 385 92 q 394 134 390 113 l 452 382 q 459 430 459 413 q 447 472 459 448 l 233 928 q 222 946 226 942 q 197 950 217 950 l 126 950 q 101 955 108 950 q 95 978 95 959 l 95 1017 q 101 1038 95 1035 q 125 1042 107 1042 l 520 1042 q 542 1038 536 1042 q 547 1018 547 1034 l 547 984 q 542 956 547 962 q 515 950 537 950 l 436 950 q 410 944 413 950 q 415 922 408 939 l 561 604 q 574 561 571 583 q 588 540 576 540 q 607 558 596 540 q 633 592 619 575 l 914 920 q 923 944 928 938 q 885 950 917 950 l 806 950 q 779 955 783 950 q 775 982 775 960 l 775 1013 q 779 1036 775 1031 q 799 1042 783 1042 l 1173 1042 q 1194 1039 1188 1042 q 1199 1022 1199 1036 l 1199 977 q 1195 955 1199 960 q 1174 950 1190 950 l 1090 950 q 1061 945 1068 950 q 1045 929 1055 941 l 668 494 q 642 458 651 474 q 624 412 632 442 l 560 131 q 561 100 556 108 q 597 92 567 92 l 685 92 q 714 87 708 92 q 720 60 720 83 l 720 32 q 713 5 720 10 q 684 0 705 0 l 247 0 q 220 4 227 0 q 214 28 214 8 "},"Z":{"ha":1031,"x_min":-65,"x_max":1028,"o":"m -65 29 l -65 76 q -57 108 -65 101 q -37 126 -49 115 l 758 892 q 776 906 767 899 q 793 918 785 913 q 807 930 801 924 q 812 941 812 935 q 797 950 812 951 q 753 950 782 950 l 495 950 q 349 930 406 950 q 259 863 293 910 q 200 733 224 815 q 189 708 194 717 q 164 700 184 700 l 137 700 q 113 707 115 700 q 114 731 110 714 l 176 1011 q 186 1035 180 1029 q 216 1042 193 1042 l 992 1042 q 1020 1038 1011 1042 q 1028 1013 1028 1034 l 1028 972 q 1021 934 1028 943 q 999 913 1013 926 l 204 149 q 181 131 192 138 q 161 117 169 123 q 153 103 153 110 q 169 93 153 94 q 219 92 185 92 l 553 92 q 699 113 642 92 q 794 185 757 133 q 858 328 832 236 q 868 358 865 346 q 896 369 871 369 l 920 369 q 948 362 946 369 q 946 336 949 355 l 878 33 q 868 5 874 10 q 835 0 863 0 l -31 0 q -58 4 -52 0 q -65 29 -65 8 "},"Ź":{"ha":1031,"x_min":-65,"x_max":1028,"o":"m 833 1347 q 843 1292 851 1317 q 813 1254 835 1267 l 644 1157 q 630 1151 635 1151 q 617 1160 625 1151 l 586 1192 q 586 1215 575 1204 l 726 1357 q 761 1376 741 1373 q 802 1372 782 1380 q 833 1347 822 1365 m -65 29 l -65 76 q -57 108 -65 101 q -37 126 -49 115 l 758 892 q 776 906 767 899 q 793 918 785 913 q 807 930 801 924 q 812 941 812 935 q 797 950 812 951 q 753 950 782 950 l 495 950 q 349 930 406 950 q 259 863 293 910 q 200 733 224 815 q 189 708 194 717 q 164 700 184 700 l 137 700 q 113 707 115 700 q 114 731 110 714 l 176 1011 q 186 1035 180 1029 q 216 1042 193 1042 l 992 1042 q 1020 1038 1011 1042 q 1028 1013 1028 1034 l 1028 972 q 1021 934 1028 943 q 999 913 1013 926 l 204 149 q 181 131 192 138 q 161 117 169 123 q 153 103 153 110 q 169 93 153 94 q 219 92 185 92 l 553 92 q 699 113 642 92 q 794 185 757 133 q 858 328 832 236 q 868 358 865 346 q 896 369 871 369 l 920 369 q 948 362 946 369 q 946 336 949 355 l 878 33 q 868 5 874 10 q 835 0 863 0 l -31 0 q -58 4 -52 0 q -65 29 -65 8 "},"Ż":{"ha":1031,"x_min":-65,"x_max":1028,"o":"m 669 1201 q 606 1228 633 1201 q 579 1292 579 1255 q 606 1356 579 1329 q 669 1382 633 1382 q 734 1356 708 1382 q 760 1292 760 1329 q 734 1228 760 1255 q 669 1201 708 1201 m -65 29 l -65 76 q -57 108 -65 101 q -37 126 -49 115 l 758 892 q 776 906 767 899 q 793 918 785 913 q 807 930 801 924 q 812 941 812 935 q 797 950 812 951 q 753 950 782 950 l 495 950 q 349 930 406 950 q 259 863 293 910 q 200 733 224 815 q 189 708 194 717 q 164 700 184 700 l 137 700 q 113 707 115 700 q 114 731 110 714 l 176 1011 q 186 1035 180 1029 q 216 1042 193 1042 l 992 1042 q 1020 1038 1011 1042 q 1028 1013 1028 1034 l 1028 972 q 1021 934 1028 943 q 999 913 1013 926 l 204 149 q 181 131 192 138 q 161 117 169 123 q 153 103 153 110 q 169 93 153 94 q 219 92 185 92 l 553 92 q 699 113 642 92 q 794 185 757 133 q 858 328 832 236 q 868 358 865 346 q 896 369 871 369 l 920 369 q 948 362 946 369 q 946 336 949 355 l 878 33 q 868 5 874 10 q 835 0 863 0 l -31 0 q -58 4 -52 0 q -65 29 -65 8 "},"Ž":{"ha":1031,"x_min":-65,"x_max":1028,"o":"m 572 1189 l 482 1313 q 476 1327 476 1322 q 486 1340 476 1333 l 507 1356 q 524 1363 519 1364 q 539 1354 528 1362 l 634 1279 q 666 1266 651 1267 q 703 1279 681 1266 l 839 1363 q 856 1368 851 1370 q 867 1357 860 1366 l 878 1345 q 886 1331 885 1336 q 875 1316 886 1326 l 722 1185 q 707 1173 714 1177 q 684 1169 701 1169 l 618 1169 q 589 1174 598 1169 q 572 1189 579 1180 m -65 29 l -65 76 q -57 108 -65 101 q -37 126 -49 115 l 758 892 q 776 906 767 899 q 793 918 785 913 q 807 930 801 924 q 812 941 812 935 q 797 950 812 951 q 753 950 782 950 l 495 950 q 349 930 406 950 q 259 863 293 910 q 200 733 224 815 q 189 708 194 717 q 164 700 184 700 l 137 700 q 113 707 115 700 q 114 731 110 714 l 176 1011 q 186 1035 180 1029 q 216 1042 193 1042 l 992 1042 q 1020 1038 1011 1042 q 1028 1013 1028 1034 l 1028 972 q 1021 934 1028 943 q 999 913 1013 926 l 204 149 q 181 131 192 138 q 161 117 169 123 q 153 103 153 110 q 169 93 153 94 q 219 92 185 92 l 553 92 q 699 113 642 92 q 794 185 757 133 q 858 328 832 236 q 868 358 865 346 q 896 369 871 369 l 920 369 q 948 362 946 369 q 946 336 949 355 l 878 33 q 868 5 874 10 q 835 0 863 0 l -31 0 q -58 4 -52 0 q -65 29 -65 8 "},"Æ":{"ha":1789,"x_min":-69,"x_max":1846,"o":"m 988 950 q 960 946 972 950 q 938 932 949 942 q 913 907 928 923 l 498 427 q 480 403 485 413 q 508 394 475 394 l 957 394 l 959 303 l 420 303 q 393 302 403 303 q 378 290 384 300 l 229 115 q 224 99 221 106 q 249 92 227 92 l 322 92 q 340 88 334 92 q 346 72 346 85 l 346 26 q 341 5 346 9 q 318 0 336 0 l -50 0 q -68 4 -66 0 q -69 24 -69 8 l -69 65 q -67 86 -69 81 q -49 92 -64 92 l 51 92 q 77 98 70 92 q 94 115 85 105 l 883 1022 q 898 1036 891 1031 q 922 1042 904 1042 l 964 1042 l 988 950 m 1128 477 l 1047 125 q 1048 98 1042 103 q 1081 92 1053 92 l 1315 92 q 1468 113 1407 92 q 1568 189 1528 135 q 1635 340 1608 242 q 1643 362 1640 356 q 1669 368 1647 368 l 1697 368 q 1718 364 1715 368 q 1719 346 1722 360 l 1647 34 q 1634 6 1642 13 q 1599 0 1626 0 l 729 0 q 709 4 715 0 q 703 22 703 8 l 703 58 q 708 86 703 80 q 733 92 713 92 l 842 92 q 872 97 867 92 q 881 122 876 102 l 1062 917 q 1061 944 1067 939 q 1028 950 1055 950 l 931 950 q 906 956 911 950 q 901 981 901 962 l 901 1019 q 911 1038 901 1035 q 933 1042 920 1042 l 1803 1042 q 1840 1036 1834 1042 q 1840 1006 1846 1031 l 1779 734 q 1769 707 1774 713 q 1739 701 1765 701 l 1711 701 q 1693 711 1692 701 q 1697 734 1694 721 q 1701 863 1712 816 q 1650 930 1691 910 q 1533 950 1610 950 l 1275 950 q 1237 943 1243 950 q 1226 910 1231 935 l 1156 602 q 1156 578 1151 583 q 1184 573 1160 573 l 1238 573 q 1362 606 1315 573 q 1434 695 1410 640 q 1443 718 1440 708 q 1466 728 1447 728 l 1491 728 q 1514 723 1511 728 q 1512 701 1516 717 l 1435 369 q 1429 349 1432 355 q 1407 342 1426 342 l 1380 342 q 1361 353 1361 342 q 1361 377 1360 364 q 1338 469 1367 433 q 1233 506 1309 506 l 1164 506 q 1136 501 1140 506 q 1128 477 1132 496 "},"Ð":{"ha":1163,"x_min":-58,"x_max":1103,"o":"m 77 589 l 618 589 q 637 585 633 589 q 640 569 640 582 l 640 524 q 637 507 640 512 q 616 501 633 501 l 76 501 q 56 505 59 501 q 53 522 53 509 l 53 569 q 58 585 53 581 q 77 589 63 589 m -58 24 l -58 67 q -51 89 -58 85 q -26 92 -44 92 l 80 92 q 105 99 99 92 q 113 122 110 107 l 282 913 q 282 944 288 938 q 244 950 276 950 l 160 950 q 135 956 139 950 q 131 983 131 962 l 131 1010 q 135 1036 131 1030 q 160 1042 140 1042 l 671 1042 q 880 1007 797 1042 q 1013 914 963 972 q 1082 786 1062 856 q 1103 646 1103 716 q 1049 381 1103 500 q 902 177 994 263 q 696 46 810 92 q 463 0 582 0 l -33 0 q -52 5 -47 0 q -58 24 -58 9 m 309 92 l 463 92 q 638 135 556 92 q 783 258 720 179 q 881 443 845 337 q 916 674 916 549 q 906 781 916 731 q 871 869 897 831 q 796 929 845 908 q 667 950 747 950 l 499 950 q 462 944 470 950 q 449 915 454 938 l 279 122 q 280 98 275 103 q 309 92 285 92 "},"Ø":{"ha":1176,"x_min":60,"x_max":1115,"o":"m 685 1058 q 918 1007 822 1058 q 1065 859 1014 956 q 1115 625 1115 762 q 1067 386 1115 501 q 933 180 1019 271 q 734 37 848 90 q 491 -16 621 -16 l 493 69 q 638 103 571 69 q 759 195 706 138 q 851 325 813 253 q 909 474 889 397 q 928 622 928 551 q 907 803 928 724 q 832 927 885 882 q 683 972 778 972 l 685 1058 m 491 -16 q 259 35 355 -16 q 111 183 163 86 q 60 417 60 280 q 109 656 60 541 q 243 861 157 771 q 442 1005 328 952 q 685 1058 555 1058 l 683 972 q 539 938 606 972 q 418 846 472 904 q 326 716 365 788 q 267 568 288 644 q 247 419 247 491 q 269 239 247 318 q 344 115 291 160 q 493 69 398 69 l 491 -16 m 949 1153 l 986 1153 q 1011 1147 1008 1153 q 1006 1130 1014 1142 l 267 -116 q 252 -134 259 -130 q 223 -139 245 -139 l 195 -139 q 162 -132 168 -139 q 166 -109 156 -124 l 908 1128 q 922 1147 916 1142 q 949 1153 927 1153 "},"Þ":{"ha":976,"x_min":-58,"x_max":930,"o":"m 396 706 l 319 349 q 322 335 316 339 q 347 331 328 331 l 488 331 q 613 359 552 331 q 711 441 673 387 q 750 577 750 496 q 740 643 750 609 q 698 699 729 676 q 607 722 667 722 l 423 722 q 403 719 409 722 q 396 706 398 717 m -58 24 l -58 72 q -52 88 -58 85 q -35 92 -47 92 l 65 92 q 94 96 88 92 q 105 120 101 101 l 276 921 q 276 945 281 940 q 246 950 272 950 l 161 950 q 144 954 147 950 q 142 973 142 958 l 142 1017 q 146 1037 142 1033 q 165 1042 150 1042 l 586 1042 q 606 1038 601 1042 q 611 1017 611 1033 l 611 973 q 606 953 611 957 q 584 950 600 950 l 471 950 q 447 944 450 950 q 441 921 444 938 l 422 828 q 421 816 419 819 q 436 814 423 814 l 615 814 q 810 782 742 814 q 904 697 878 751 q 930 579 930 644 q 897 424 930 489 q 803 319 863 360 q 664 259 744 278 q 489 240 583 240 l 317 240 q 298 237 302 240 q 292 226 294 234 l 271 120 q 272 96 266 100 q 303 92 278 92 l 399 92 q 426 86 422 92 q 430 58 430 80 l 430 28 q 426 6 430 11 q 406 0 422 0 l -31 0 q -52 4 -47 0 q -58 24 -58 8 "},"Đ":{"ha":1136,"x_min":-58,"x_max":1103,"o":"m -58 24 l -58 67 q -51 89 -58 85 q -26 92 -44 92 l 80 92 q 105 99 99 92 q 113 122 110 107 l 282 913 q 282 944 288 938 q 244 950 276 950 l 160 950 q 135 956 139 950 q 131 983 131 962 l 131 1010 q 135 1036 131 1030 q 160 1042 140 1042 l 671 1042 q 880 1007 797 1042 q 1013 914 963 972 q 1082 786 1062 856 q 1103 646 1103 716 q 1049 381 1103 500 q 902 177 994 263 q 696 46 810 92 q 463 0 582 0 l -33 0 q -52 5 -47 0 q -58 24 -58 9 m 309 92 l 463 92 q 638 135 556 92 q 783 258 720 179 q 881 443 845 337 q 916 674 916 549 q 906 781 916 731 q 871 869 897 831 q 796 929 845 908 q 667 950 747 950 l 499 950 q 462 944 470 950 q 449 915 454 938 l 279 122 q 280 98 275 103 q 309 92 285 92 m 77 589 l 618 589 q 637 585 633 589 q 640 569 640 582 l 640 524 q 637 507 640 512 q 616 501 633 501 l 76 501 q 56 505 59 501 q 53 522 53 509 l 53 569 q 58 585 53 581 q 77 589 63 589 "},"Ħ":{"ha":1263,"x_min":-58,"x_max":1320,"o":"m 151 826 l 1213 826 q 1249 822 1242 826 q 1257 806 1257 819 l 1257 760 q 1249 743 1257 748 q 1209 738 1242 738 l 149 738 q 110 741 117 738 q 104 758 104 745 l 104 806 q 115 822 104 818 q 151 826 125 826 m -58 31 l -58 68 q -50 88 -58 85 q -28 92 -43 92 l 64 92 q 105 97 94 92 q 122 128 117 102 l 292 923 q 292 945 296 940 q 267 950 288 950 l 160 950 q 137 953 143 950 q 131 974 131 956 l 131 1014 q 135 1036 131 1031 q 154 1042 138 1042 l 601 1042 q 621 1036 618 1042 q 624 1013 624 1030 l 624 978 q 619 955 624 960 q 597 950 615 950 l 501 950 q 468 944 474 950 q 457 917 462 939 l 392 613 q 392 589 388 594 q 420 583 396 583 l 880 583 q 906 589 903 583 q 913 613 909 595 l 979 921 q 979 944 983 939 q 955 950 976 950 l 856 950 q 834 954 839 950 q 828 974 828 958 l 828 1019 q 834 1038 828 1033 q 853 1042 839 1042 l 1294 1042 q 1317 1039 1313 1042 q 1320 1017 1320 1036 l 1320 980 q 1315 955 1320 960 q 1290 950 1310 950 l 1188 950 q 1156 945 1161 950 q 1144 917 1150 940 l 975 124 q 974 98 970 103 q 1006 92 978 92 l 1109 92 q 1130 87 1126 92 q 1133 65 1133 82 l 1133 24 q 1129 5 1133 9 q 1109 0 1124 0 l 671 0 q 647 5 653 0 q 641 27 641 9 l 641 67 q 648 88 641 85 q 672 92 655 92 l 770 92 q 799 96 795 92 q 808 121 803 101 l 881 460 q 881 487 885 481 q 850 493 877 493 l 396 493 q 366 485 369 493 q 358 456 363 477 l 286 119 q 286 98 283 103 q 310 92 289 92 l 410 92 q 434 86 431 92 q 438 60 438 80 l 438 28 q 434 5 438 10 q 412 0 429 0 l -27 0 q -52 6 -47 0 q -58 31 -58 11 "},"Ĳ":{"ha":1446,"x_min":-51,"x_max":1540,"o":"m -51 24 l -51 72 q -47 88 -51 85 q -30 92 -42 92 l 88 92 q 118 96 112 92 q 129 120 124 101 l 306 921 q 306 945 311 940 q 275 950 301 950 l 169 950 q 152 954 154 950 q 149 973 149 958 l 149 1017 q 153 1037 149 1033 q 173 1042 158 1042 l 614 1042 q 633 1038 628 1042 q 638 1017 638 1033 l 638 973 q 633 953 638 957 q 612 950 628 950 l 501 950 q 477 944 480 950 q 471 921 474 938 l 294 120 q 295 96 290 100 q 327 92 301 92 l 421 92 q 447 86 443 92 q 451 58 451 80 l 451 28 q 448 6 451 11 q 428 0 444 0 l -25 0 q -46 4 -41 0 q -51 24 -51 8 m 558 215 q 576 297 558 263 q 623 347 594 330 q 684 365 651 365 q 756 339 726 365 q 785 271 785 313 q 775 221 785 238 q 751 195 765 204 q 727 176 738 186 q 716 144 716 165 q 724 117 716 133 q 756 88 733 101 q 822 75 778 75 q 960 138 893 75 q 1058 333 1027 201 l 1192 928 q 1191 947 1196 943 q 1167 950 1186 950 l 1047 950 q 1023 953 1029 950 q 1017 974 1017 956 l 1017 1014 q 1023 1037 1017 1033 q 1047 1042 1029 1042 l 1511 1042 q 1532 1038 1524 1042 q 1540 1022 1540 1035 l 1540 978 q 1535 955 1540 959 q 1510 950 1530 950 l 1387 950 q 1363 944 1366 950 q 1356 922 1359 938 l 1224 375 q 1141 173 1196 261 q 1006 35 1085 85 q 822 -15 926 -15 q 667 20 724 -15 q 583 108 609 55 q 558 215 558 160 "},"Ŀ":{"ha":1011,"x_min":-58,"x_max":940,"o":"m -58 24 l -58 72 q -51 88 -58 85 q -31 92 -44 92 l 81 92 q 113 97 108 92 q 124 123 119 101 l 296 925 q 295 946 299 942 q 272 950 292 950 l 162 950 q 142 955 145 950 q 139 977 139 960 l 139 1017 q 142 1036 139 1031 q 160 1042 145 1042 l 608 1042 q 628 1037 623 1042 q 633 1017 633 1033 l 633 975 q 629 955 633 960 q 610 950 625 950 l 490 950 q 467 945 470 950 q 460 924 465 940 l 292 131 q 293 100 286 108 q 329 92 299 92 l 540 92 q 690 114 631 92 q 786 191 749 136 q 851 344 824 246 q 862 366 856 360 q 890 372 868 372 l 919 372 q 936 367 932 372 q 937 353 940 363 l 862 28 q 851 6 858 11 q 824 0 845 0 l -28 0 q -51 3 -45 0 q -58 24 -58 7 m 631 661 q 643 708 631 687 q 678 743 656 730 q 726 756 699 756 q 773 743 751 756 q 808 708 795 730 q 821 661 821 687 q 808 613 821 635 q 773 579 795 592 q 726 566 751 566 q 678 579 699 566 q 643 613 656 592 q 631 661 631 635 "},"Ł":{"ha":1010,"x_min":-58,"x_max":940,"o":"m 90 511 l 569 791 q 585 802 579 798 q 592 785 592 806 l 592 735 q 589 713 592 718 q 576 701 587 708 l 94 419 q 78 409 83 413 q 73 426 73 406 l 73 483 q 77 502 73 499 q 90 511 81 506 m -58 24 l -58 72 q -51 88 -58 85 q -31 92 -44 92 l 81 92 q 113 97 108 92 q 124 123 119 101 l 296 925 q 295 946 299 942 q 272 950 292 950 l 162 950 q 142 955 145 950 q 139 977 139 960 l 139 1017 q 142 1036 139 1031 q 160 1042 145 1042 l 608 1042 q 628 1037 623 1042 q 633 1017 633 1033 l 633 975 q 629 955 633 960 q 610 950 625 950 l 490 950 q 467 945 470 950 q 460 924 465 940 l 292 131 q 293 100 286 108 q 329 92 299 92 l 540 92 q 690 114 631 92 q 786 191 749 136 q 851 344 824 246 q 862 366 856 360 q 890 372 868 372 l 919 372 q 936 367 932 372 q 937 353 940 363 l 862 28 q 851 6 858 11 q 824 0 845 0 l -28 0 q -51 3 -45 0 q -58 24 -58 7 "},"Ŋ":{"ha":1263,"x_min":-33,"x_max":1121,"o":"m 208 1042 l 458 1042 q 488 1037 483 1042 q 488 1013 492 1032 l 455 876 q 451 841 447 844 q 481 876 456 839 q 559 961 511 920 q 671 1030 607 1003 q 813 1056 735 1056 q 968 1037 905 1056 q 1068 977 1032 1018 q 1113 874 1104 937 q 1101 722 1121 811 l 950 13 q 882 -178 928 -93 q 765 -312 837 -262 q 589 -361 692 -361 q 481 -338 522 -361 q 420 -276 440 -315 q 401 -195 401 -238 q 416 -139 401 -165 q 456 -99 431 -114 q 510 -84 480 -84 q 576 -107 551 -84 q 601 -168 601 -130 q 591 -207 601 -193 q 571 -231 581 -221 q 561 -254 561 -241 q 570 -279 561 -267 q 606 -291 580 -291 q 671 -262 643 -291 q 720 -187 699 -234 q 758 -82 742 -140 q 788 35 775 -24 q 813 144 801 94 l 953 801 q 927 922 969 875 q 773 968 885 968 q 634 928 699 968 q 518 825 569 889 q 431 687 466 761 q 380 543 395 613 l 267 34 q 258 9 263 17 q 230 0 252 0 l -16 0 q -30 5 -28 0 q -33 22 -33 10 l -33 72 q -31 87 -33 83 q -18 92 -28 92 l 91 92 q 106 94 104 92 q 111 108 108 97 l 295 924 q 294 946 299 942 q 266 950 290 950 l 207 950 q 186 956 190 950 q 183 980 183 963 l 183 1014 q 187 1037 183 1032 q 208 1042 191 1042 "},"Œ":{"ha":1597,"x_min":42,"x_max":1653,"o":"m 838 1042 l 821 950 l 672 950 q 473 895 554 950 q 340 744 391 841 q 261 521 288 647 q 247 298 235 394 q 317 146 259 201 q 485 92 375 92 l 632 92 l 616 0 l 463 0 q 211 69 308 0 q 78 255 113 138 q 74 521 42 373 q 154 727 97 632 q 292 892 210 822 q 474 1002 374 963 q 685 1042 574 1042 l 838 1042 m 935 477 l 855 125 q 855 98 850 103 q 889 92 860 92 l 1123 92 q 1275 113 1215 92 q 1376 189 1336 135 q 1443 340 1415 242 q 1451 362 1447 356 q 1476 368 1455 368 l 1504 368 q 1526 364 1522 368 q 1526 346 1530 360 l 1454 34 q 1442 6 1449 13 q 1407 0 1434 0 l 537 0 q 517 4 524 0 q 511 22 511 8 l 511 58 q 516 86 511 80 q 541 92 520 92 l 649 92 q 679 97 674 92 q 688 122 684 102 l 869 917 q 868 944 874 939 q 836 950 863 950 l 738 950 q 714 956 719 950 q 709 981 709 962 l 709 1019 q 718 1038 709 1035 q 741 1042 728 1042 l 1611 1042 q 1648 1036 1642 1042 q 1648 1006 1653 1031 l 1587 734 q 1577 707 1582 713 q 1547 701 1572 701 l 1519 701 q 1501 711 1500 701 q 1504 734 1502 721 q 1509 863 1519 816 q 1458 930 1499 910 q 1340 950 1417 950 l 1083 950 q 1045 943 1051 950 q 1033 910 1039 935 l 963 602 q 963 578 959 583 q 992 573 967 573 l 1045 573 q 1170 606 1122 573 q 1242 695 1218 640 q 1251 718 1247 708 q 1274 728 1254 728 l 1299 728 q 1322 723 1319 728 q 1319 701 1324 717 l 1242 369 q 1237 349 1240 355 q 1215 342 1234 342 l 1188 342 q 1169 353 1169 342 q 1169 377 1169 364 q 1145 469 1174 433 q 1041 506 1117 506 l 972 506 q 944 501 949 506 q 935 477 940 496 "},"Ŧ":{"ha":1042,"x_min":71,"x_max":1110,"o":"m 272 570 l 813 570 q 832 567 828 570 q 835 551 835 563 l 835 505 q 832 487 835 492 q 811 482 828 482 l 270 482 q 251 486 254 482 q 248 503 248 490 l 248 551 q 253 566 248 563 q 272 570 258 570 m 165 26 l 165 71 q 168 87 165 83 q 183 92 172 92 l 300 92 q 332 98 325 92 q 344 124 340 103 l 517 932 q 517 952 520 947 q 494 957 514 957 l 449 957 q 307 934 362 957 q 219 856 253 910 q 158 706 185 801 q 150 685 155 692 q 126 677 144 677 l 94 677 q 72 686 74 677 q 74 708 71 694 l 144 1014 q 153 1036 147 1031 q 182 1042 160 1042 l 1071 1042 q 1105 1036 1100 1042 q 1104 1006 1110 1030 l 1033 701 q 1026 681 1030 685 q 1003 677 1023 677 l 975 677 q 948 683 951 677 q 949 707 945 688 q 963 858 969 803 q 915 934 956 912 q 786 957 874 957 l 715 957 q 689 951 696 957 q 679 930 683 946 l 507 124 q 506 98 502 105 q 535 92 509 92 l 646 92 q 667 86 663 92 q 671 63 671 81 l 671 31 q 664 5 671 9 q 637 0 657 0 l 187 0 q 168 5 172 0 q 165 26 165 10 "},"ẞ":{"ha":1341,"x_min":-58,"x_max":1333,"o":"m -58 0 l -53 86 l 74 86 l 178 613 q 257 797 198 715 q 406 936 315 878 q 615 1025 497 994 q 872 1056 733 1056 q 1033 1040 956 1056 q 1171 1002 1109 1025 q 1275 955 1233 979 q 1333 914 1317 931 l 971 575 q 1134 517 1074 557 q 1217 423 1193 477 q 1240 306 1242 369 q 1208 180 1238 238 q 1126 78 1178 122 q 1005 10 1074 34 q 856 -15 935 -15 q 716 2 782 -15 q 599 47 650 18 q 521 111 549 75 q 494 188 493 148 q 510 242 496 218 q 547 280 524 267 q 599 294 570 294 q 664 268 640 294 q 685 201 688 242 q 672 158 685 176 q 639 131 658 139 q 728 90 671 103 q 833 76 785 76 q 962 109 908 76 q 1045 194 1016 141 q 1075 308 1074 247 q 1048 416 1076 372 q 959 483 1020 460 q 801 510 899 507 l 803 589 l 1124 892 q 1012 947 1085 926 q 865 967 940 967 q 655 942 746 967 q 498 868 563 917 q 393 752 433 820 q 335 598 353 684 l 233 86 l 356 86 l 351 0 l -58 0 "},"Δ":{"ha":1212,"x_min":1,"x_max":981,"o":"m 760 92 q 781 99 779 92 q 781 118 783 107 l 665 849 q 658 871 662 871 q 642 853 653 871 l 177 125 q 167 100 166 108 q 190 92 168 92 l 760 92 m 933 0 l 37 0 q 7 7 12 0 q 10 28 1 13 l 674 1053 q 681 1061 678 1060 q 694 1063 685 1063 l 771 1063 q 786 1060 782 1063 q 791 1051 790 1058 l 977 32 q 972 8 981 15 q 933 0 964 0 "},"Ω":{"ha":1094,"x_min":10,"x_max":1054,"o":"m 826 218 l 914 218 l 867 0 l 536 0 l 599 292 q 757 410 694 328 q 847 625 819 492 q 834 878 882 785 q 646 972 785 972 q 419 878 508 972 q 297 625 331 785 q 294 407 268 492 q 400 285 320 322 l 339 0 l 10 0 l 57 218 l 144 218 q 142 162 138 185 q 165 126 146 138 q 219 113 183 113 l 278 113 l 303 234 q 218 294 258 257 q 150 381 178 331 q 113 492 122 431 q 118 625 103 553 q 224 855 147 758 q 414 1003 301 951 q 665 1056 527 1056 q 893 1003 802 1056 q 1019 855 983 951 q 1026 625 1054 758 q 975 493 1010 553 q 890 383 939 432 q 784 298 840 334 q 674 240 728 262 l 647 113 l 706 113 q 766 126 742 113 q 804 162 790 138 q 826 218 819 185 "},"a":{"ha":914,"x_min":26,"x_max":872,"o":"m 569 444 q 560 548 569 500 q 523 624 550 595 q 445 653 496 653 q 359 618 403 653 q 277 525 315 583 q 216 395 239 467 q 193 250 193 324 q 226 117 193 165 q 321 69 259 69 q 409 104 365 69 q 489 196 453 139 q 548 318 526 253 q 569 444 569 384 m 867 210 q 757 47 825 110 q 610 -17 689 -17 q 534 8 561 -17 q 503 68 507 33 q 503 90 503 82 q 503 103 503 97 q 499 110 503 110 q 488 101 495 110 q 388 17 444 49 q 269 -16 332 -16 q 150 9 206 -16 q 60 92 95 34 q 26 248 26 150 q 64 443 26 353 q 164 598 103 533 q 292 700 224 664 q 419 737 360 737 q 532 707 490 737 q 594 623 573 676 q 608 598 604 595 q 617 623 612 600 l 635 703 q 642 718 637 714 q 660 722 647 722 l 759 722 q 785 717 781 722 q 785 695 789 712 l 649 135 q 647 123 648 130 q 646 110 646 116 q 670 85 646 85 q 716 105 692 85 q 764 159 741 125 q 804 234 788 193 q 812 248 809 246 q 826 245 815 250 l 858 233 q 871 226 870 229 q 867 210 872 223 "},"à":{"ha":914,"x_min":26,"x_max":872,"o":"m 326 1028 q 358 1053 338 1045 q 398 1057 377 1060 q 433 1038 419 1053 l 572 897 q 572 872 584 884 l 541 839 q 532 831 535 833 q 520 835 528 830 l 347 935 q 315 973 323 948 q 326 1028 308 998 m 569 444 q 560 548 569 500 q 523 624 550 595 q 445 653 496 653 q 359 618 403 653 q 277 525 315 583 q 216 395 239 467 q 193 250 193 324 q 226 117 193 165 q 321 69 259 69 q 409 104 365 69 q 489 196 453 139 q 548 318 526 253 q 569 444 569 384 m 867 210 q 757 47 825 110 q 610 -17 689 -17 q 534 8 561 -17 q 503 68 507 33 q 503 90 503 82 q 503 103 503 97 q 499 110 503 110 q 488 101 495 110 q 388 17 444 49 q 269 -16 332 -16 q 150 9 206 -16 q 60 92 95 34 q 26 248 26 150 q 64 443 26 353 q 164 598 103 533 q 292 700 224 664 q 419 737 360 737 q 532 707 490 737 q 594 623 573 676 q 608 598 604 595 q 617 623 612 600 l 635 703 q 642 718 637 714 q 660 722 647 722 l 759 722 q 785 717 781 722 q 785 695 789 712 l 649 135 q 647 123 648 130 q 646 110 646 116 q 670 85 646 85 q 716 105 692 85 q 764 159 741 125 q 804 234 788 193 q 812 248 809 246 q 826 245 815 250 l 858 233 q 871 226 870 229 q 867 210 872 223 "},"á":{"ha":914,"x_min":26,"x_max":872,"o":"m 681 1028 q 691 973 699 998 q 660 935 683 947 l 492 838 q 478 832 483 832 q 465 840 473 832 l 434 873 q 434 895 423 885 l 574 1038 q 609 1057 589 1053 q 650 1053 630 1060 q 681 1028 669 1045 m 569 444 q 560 548 569 500 q 523 624 550 595 q 445 653 496 653 q 359 618 403 653 q 277 525 315 583 q 216 395 239 467 q 193 250 193 324 q 226 117 193 165 q 321 69 259 69 q 409 104 365 69 q 489 196 453 139 q 548 318 526 253 q 569 444 569 384 m 867 210 q 757 47 825 110 q 610 -17 689 -17 q 534 8 561 -17 q 503 68 507 33 q 503 90 503 82 q 503 103 503 97 q 499 110 503 110 q 488 101 495 110 q 388 17 444 49 q 269 -16 332 -16 q 150 9 206 -16 q 60 92 95 34 q 26 248 26 150 q 64 443 26 353 q 164 598 103 533 q 292 700 224 664 q 419 737 360 737 q 532 707 490 737 q 594 623 573 676 q 608 598 604 595 q 617 623 612 600 l 635 703 q 642 718 637 714 q 660 722 647 722 l 759 722 q 785 717 781 722 q 785 695 789 712 l 649 135 q 647 123 648 130 q 646 110 646 116 q 670 85 646 85 q 716 105 692 85 q 764 159 741 125 q 804 234 788 193 q 812 248 809 246 q 826 245 815 250 l 858 233 q 871 226 870 229 q 867 210 872 223 "},"â":{"ha":914,"x_min":26,"x_max":872,"o":"m 316 849 l 300 870 q 294 881 293 878 q 304 892 295 884 l 465 1029 q 481 1039 474 1037 q 503 1041 488 1041 l 572 1041 q 592 1038 586 1041 q 602 1029 597 1035 l 705 890 q 708 882 708 885 q 701 874 708 879 l 677 852 q 665 844 668 844 q 655 851 663 845 l 547 947 q 513 947 532 960 l 340 845 q 326 841 331 840 q 316 849 322 842 m 569 444 q 560 548 569 500 q 523 624 550 595 q 445 653 496 653 q 359 618 403 653 q 277 525 315 583 q 216 395 239 467 q 193 250 193 324 q 226 117 193 165 q 321 69 259 69 q 409 104 365 69 q 489 196 453 139 q 548 318 526 253 q 569 444 569 384 m 867 210 q 757 47 825 110 q 610 -17 689 -17 q 534 8 561 -17 q 503 68 507 33 q 503 90 503 82 q 503 103 503 97 q 499 110 503 110 q 488 101 495 110 q 388 17 444 49 q 269 -16 332 -16 q 150 9 206 -16 q 60 92 95 34 q 26 248 26 150 q 64 443 26 353 q 164 598 103 533 q 292 700 224 664 q 419 737 360 737 q 532 707 490 737 q 594 623 573 676 q 608 598 604 595 q 617 623 612 600 l 635 703 q 642 718 637 714 q 660 722 647 722 l 759 722 q 785 717 781 722 q 785 695 789 712 l 649 135 q 647 123 648 130 q 646 110 646 116 q 670 85 646 85 q 716 105 692 85 q 764 159 741 125 q 804 234 788 193 q 812 248 809 246 q 826 245 815 250 l 858 233 q 871 226 870 229 q 867 210 872 223 "},"ã":{"ha":914,"x_min":26,"x_max":872,"o":"m 613 842 q 533 859 560 842 q 488 897 506 876 q 456 931 474 914 q 403 948 438 948 q 355 928 376 948 q 324 871 334 908 q 307 861 319 861 l 270 861 q 258 866 258 861 q 260 882 258 872 q 297 963 274 926 q 355 1021 319 999 q 438 1042 390 1042 q 518 1026 491 1042 q 560 988 544 1010 q 590 954 574 972 q 636 937 606 937 q 682 955 663 937 q 713 1008 701 974 q 719 1020 715 1017 q 732 1024 722 1024 l 770 1024 q 781 1020 780 1024 q 780 1008 782 1017 q 745 919 767 957 q 690 862 723 882 q 613 842 658 842 m 569 444 q 560 548 569 500 q 523 624 550 595 q 445 653 496 653 q 359 618 403 653 q 277 525 315 583 q 216 395 239 467 q 193 250 193 324 q 226 117 193 165 q 321 69 259 69 q 409 104 365 69 q 489 196 453 139 q 548 318 526 253 q 569 444 569 384 m 867 210 q 757 47 825 110 q 610 -17 689 -17 q 534 8 561 -17 q 503 68 507 33 q 503 90 503 82 q 503 103 503 97 q 499 110 503 110 q 488 101 495 110 q 388 17 444 49 q 269 -16 332 -16 q 150 9 206 -16 q 60 92 95 34 q 26 248 26 150 q 64 443 26 353 q 164 598 103 533 q 292 700 224 664 q 419 737 360 737 q 532 707 490 737 q 594 623 573 676 q 608 598 604 595 q 617 623 612 600 l 635 703 q 642 718 637 714 q 660 722 647 722 l 759 722 q 785 717 781 722 q 785 695 789 712 l 649 135 q 647 123 648 130 q 646 110 646 116 q 670 85 646 85 q 716 105 692 85 q 764 159 741 125 q 804 234 788 193 q 812 248 809 246 q 826 245 815 250 l 858 233 q 871 226 870 229 q 867 210 872 223 "},"ä":{"ha":914,"x_min":26,"x_max":872,"o":"m 631 854 q 577 876 599 854 q 555 931 555 899 q 577 984 555 962 q 631 1007 599 1007 q 685 984 663 1007 q 707 931 707 962 q 685 876 707 899 q 631 854 663 854 m 385 854 q 331 876 353 854 q 309 931 309 899 q 331 984 309 962 q 385 1007 353 1007 q 439 984 417 1007 q 461 931 461 962 q 439 876 461 899 q 385 854 417 854 m 569 444 q 560 548 569 500 q 523 624 550 595 q 445 653 496 653 q 359 618 403 653 q 277 525 315 583 q 216 395 239 467 q 193 250 193 324 q 226 117 193 165 q 321 69 259 69 q 409 104 365 69 q 489 196 453 139 q 548 318 526 253 q 569 444 569 384 m 867 210 q 757 47 825 110 q 610 -17 689 -17 q 534 8 561 -17 q 503 68 507 33 q 503 90 503 82 q 503 103 503 97 q 499 110 503 110 q 488 101 495 110 q 388 17 444 49 q 269 -16 332 -16 q 150 9 206 -16 q 60 92 95 34 q 26 248 26 150 q 64 443 26 353 q 164 598 103 533 q 292 700 224 664 q 419 737 360 737 q 532 707 490 737 q 594 623 573 676 q 608 598 604 595 q 617 623 612 600 l 635 703 q 642 718 637 714 q 660 722 647 722 l 759 722 q 785 717 781 722 q 785 695 789 712 l 649 135 q 647 123 648 130 q 646 110 646 116 q 670 85 646 85 q 716 105 692 85 q 764 159 741 125 q 804 234 788 193 q 812 248 809 246 q 826 245 815 250 l 858 233 q 871 226 870 229 q 867 210 872 223 "},"å":{"ha":914,"x_min":26,"x_max":872,"o":"m 506 903 q 559 923 536 903 q 590 974 583 943 q 582 1028 597 1007 q 537 1049 567 1049 q 483 1028 506 1049 q 452 974 459 1007 q 460 923 446 943 q 506 903 475 903 m 494 843 q 407 881 436 843 q 390 974 378 919 q 421 1041 397 1011 q 478 1089 444 1072 q 547 1107 511 1107 q 635 1068 606 1107 q 652 974 665 1030 q 621 908 645 938 q 564 861 597 878 q 494 843 531 843 m 569 444 q 560 548 569 500 q 523 624 550 595 q 445 653 496 653 q 359 618 403 653 q 277 525 315 583 q 216 395 239 467 q 193 250 193 324 q 226 117 193 165 q 321 69 259 69 q 409 104 365 69 q 489 196 453 139 q 548 318 526 253 q 569 444 569 384 m 867 210 q 757 47 825 110 q 610 -17 689 -17 q 534 8 561 -17 q 503 68 507 33 q 503 90 503 82 q 503 103 503 97 q 499 110 503 110 q 488 101 495 110 q 388 17 444 49 q 269 -16 332 -16 q 150 9 206 -16 q 60 92 95 34 q 26 248 26 150 q 64 443 26 353 q 164 598 103 533 q 292 700 224 664 q 419 737 360 737 q 532 707 490 737 q 594 623 573 676 q 608 598 604 595 q 617 623 612 600 l 635 703 q 642 718 637 714 q 660 722 647 722 l 759 722 q 785 717 781 722 q 785 695 789 712 l 649 135 q 647 123 648 130 q 646 110 646 116 q 670 85 646 85 q 716 105 692 85 q 764 159 741 125 q 804 234 788 193 q 812 248 809 246 q 826 245 815 250 l 858 233 q 871 226 870 229 q 867 210 872 223 "},"ā":{"ha":914,"x_min":26,"x_max":872,"o":"m 335 865 l 335 897 q 337 911 335 907 q 349 916 340 916 l 644 916 q 663 912 658 916 q 668 894 668 908 l 668 863 q 666 847 668 852 q 653 842 664 842 l 359 842 q 340 846 346 842 q 335 865 335 850 m 569 444 q 560 548 569 500 q 523 624 550 595 q 445 653 496 653 q 359 618 403 653 q 277 525 315 583 q 216 395 239 467 q 193 250 193 324 q 226 117 193 165 q 321 69 259 69 q 409 104 365 69 q 489 196 453 139 q 548 318 526 253 q 569 444 569 384 m 867 210 q 757 47 825 110 q 610 -17 689 -17 q 534 8 561 -17 q 503 68 507 33 q 503 90 503 82 q 503 103 503 97 q 499 110 503 110 q 488 101 495 110 q 388 17 444 49 q 269 -16 332 -16 q 150 9 206 -16 q 60 92 95 34 q 26 248 26 150 q 64 443 26 353 q 164 598 103 533 q 292 700 224 664 q 419 737 360 737 q 532 707 490 737 q 594 623 573 676 q 608 598 604 595 q 617 623 612 600 l 635 703 q 642 718 637 714 q 660 722 647 722 l 759 722 q 785 717 781 722 q 785 695 789 712 l 649 135 q 647 123 648 130 q 646 110 646 116 q 670 85 646 85 q 716 105 692 85 q 764 159 741 125 q 804 234 788 193 q 812 248 809 246 q 826 245 815 250 l 858 233 q 871 226 870 229 q 867 210 872 223 "},"ă":{"ha":914,"x_min":26,"x_max":872,"o":"m 508 842 q 407 863 440 842 q 367 924 374 885 q 371 1017 360 964 q 390 1031 374 1031 l 409 1031 q 419 1019 421 1031 q 438 955 414 976 q 512 933 461 933 q 593 952 560 933 q 642 1010 627 972 q 647 1025 645 1020 q 660 1031 648 1031 l 688 1031 q 700 1027 699 1031 q 699 1014 701 1024 q 634 889 679 935 q 508 842 589 842 m 569 444 q 560 548 569 500 q 523 624 550 595 q 445 653 496 653 q 359 618 403 653 q 277 525 315 583 q 216 395 239 467 q 193 250 193 324 q 226 117 193 165 q 321 69 259 69 q 409 104 365 69 q 489 196 453 139 q 548 318 526 253 q 569 444 569 384 m 867 210 q 757 47 825 110 q 610 -17 689 -17 q 534 8 561 -17 q 503 68 507 33 q 503 90 503 82 q 503 103 503 97 q 499 110 503 110 q 488 101 495 110 q 388 17 444 49 q 269 -16 332 -16 q 150 9 206 -16 q 60 92 95 34 q 26 248 26 150 q 64 443 26 353 q 164 598 103 533 q 292 700 224 664 q 419 737 360 737 q 532 707 490 737 q 594 623 573 676 q 608 598 604 595 q 617 623 612 600 l 635 703 q 642 718 637 714 q 660 722 647 722 l 759 722 q 785 717 781 722 q 785 695 789 712 l 649 135 q 647 123 648 130 q 646 110 646 116 q 670 85 646 85 q 716 105 692 85 q 764 159 741 125 q 804 234 788 193 q 812 248 809 246 q 826 245 815 250 l 858 233 q 871 226 870 229 q 867 210 872 223 "},"ą":{"ha":914,"x_min":26,"x_max":872,"o":"m 581 -281 q 506 -271 540 -281 q 456 -237 473 -261 q 447 -174 440 -213 q 477 -113 453 -142 q 535 -58 501 -84 q 607 -8 569 -31 q 676 33 644 15 q 699 42 689 41 q 713 38 710 43 q 714 23 718 31 q 699 6 710 16 q 658 -34 680 -12 q 618 -82 635 -57 q 594 -136 601 -108 q 599 -184 588 -162 q 644 -205 610 -205 q 690 -193 670 -205 q 726 -165 710 -181 q 747 -160 738 -151 l 759 -171 q 764 -179 765 -176 q 758 -190 763 -183 q 687 -255 728 -228 q 581 -281 645 -281 m 569 444 q 560 548 569 500 q 523 624 550 595 q 445 653 496 653 q 359 618 403 653 q 277 525 315 583 q 216 395 239 467 q 193 250 193 324 q 226 117 193 165 q 321 69 259 69 q 409 104 365 69 q 489 196 453 139 q 548 318 526 253 q 569 444 569 384 m 867 210 q 757 47 825 110 q 610 -17 689 -17 q 534 8 561 -17 q 503 68 507 33 q 503 90 503 82 q 503 103 503 97 q 499 110 503 110 q 488 101 495 110 q 388 17 444 49 q 269 -16 332 -16 q 150 9 206 -16 q 60 92 95 34 q 26 248 26 150 q 64 443 26 353 q 164 598 103 533 q 292 700 224 664 q 419 737 360 737 q 532 707 490 737 q 594 623 573 676 q 608 598 604 595 q 617 623 612 600 l 635 703 q 642 718 637 714 q 660 722 647 722 l 759 722 q 785 717 781 722 q 785 695 789 712 l 649 135 q 647 123 648 130 q 646 110 646 116 q 670 85 646 85 q 716 105 692 85 q 764 159 741 125 q 804 234 788 193 q 812 248 809 246 q 826 245 815 250 l 858 233 q 871 226 870 229 q 867 210 872 223 "},"b":{"ha":819,"x_min":29,"x_max":751,"o":"m 183 168 q 218 97 190 125 q 297 69 246 69 q 408 103 356 69 q 500 194 460 138 q 563 322 540 251 q 585 463 585 392 q 566 599 585 544 q 494 653 547 653 q 383 617 439 653 q 284 520 327 581 q 223 383 241 459 l 184 213 q 181 191 181 202 q 183 168 181 180 m 34 203 l 210 971 q 211 993 214 990 q 186 997 209 997 l 126 997 q 108 1005 111 997 q 105 1026 105 1013 l 105 1060 q 108 1078 105 1074 q 124 1083 111 1083 l 356 1083 q 378 1080 374 1083 q 378 1061 382 1076 l 281 637 q 279 607 275 611 q 304 625 283 603 q 408 707 352 678 q 525 737 465 737 q 687 670 623 737 q 751 458 751 604 q 715 274 751 360 q 614 122 678 188 q 467 20 550 56 q 292 -17 385 -17 q 172 3 220 -17 q 93 58 124 23 q 40 135 62 93 q 30 168 31 155 q 34 203 29 181 "},"c":{"ha":779,"x_min":26,"x_max":712,"o":"m 712 540 q 695 471 712 497 q 652 434 678 445 q 601 423 627 423 q 541 443 567 423 q 515 506 515 464 q 527 548 515 533 q 550 576 538 564 q 561 604 561 589 q 545 647 561 631 q 487 663 530 663 q 375 629 428 663 q 281 536 322 595 q 216 401 240 477 q 192 240 192 325 q 202 149 192 189 q 236 87 212 110 q 306 65 261 65 q 402 88 356 65 q 486 148 448 112 q 549 223 524 185 q 561 236 556 233 q 583 240 567 240 l 612 240 q 640 236 633 240 q 639 217 647 231 q 555 106 606 159 q 435 18 503 52 q 283 -16 367 -16 q 146 10 203 -16 q 57 92 88 35 q 26 240 26 148 q 64 435 26 344 q 166 593 101 525 q 311 700 230 662 q 478 738 392 738 q 610 713 559 738 q 687 643 662 688 q 712 540 712 599 "},"ç":{"ha":779,"x_min":26,"x_max":712,"o":"m 106 -337 l 109 -317 q 118 -302 112 -306 q 134 -299 124 -299 q 192 -290 163 -297 q 242 -269 221 -283 q 268 -233 263 -256 q 258 -192 274 -206 q 214 -171 242 -177 q 156 -162 186 -165 q 134 -155 136 -160 q 141 -142 132 -151 l 278 1 q 300 8 284 8 l 324 8 q 344 5 340 8 q 340 -6 348 2 l 266 -83 q 256 -98 255 -95 q 275 -101 257 -100 q 362 -132 332 -106 q 380 -215 392 -157 q 345 -283 371 -256 q 282 -326 319 -310 q 203 -349 245 -342 q 121 -358 162 -356 q 106 -337 102 -358 m 712 540 q 695 471 712 497 q 652 434 678 445 q 601 423 627 423 q 541 443 567 423 q 515 506 515 464 q 527 548 515 533 q 550 576 538 564 q 561 604 561 589 q 545 647 561 631 q 487 663 530 663 q 375 629 428 663 q 281 536 322 595 q 216 401 240 477 q 192 240 192 325 q 202 149 192 189 q 236 87 212 110 q 306 65 261 65 q 402 88 356 65 q 486 148 448 112 q 549 223 524 185 q 561 236 556 233 q 583 240 567 240 l 612 240 q 640 236 633 240 q 639 217 647 231 q 555 106 606 159 q 435 18 503 52 q 283 -16 367 -16 q 146 10 203 -16 q 57 92 88 35 q 26 240 26 148 q 64 435 26 344 q 166 593 101 525 q 311 700 230 662 q 478 738 392 738 q 610 713 559 738 q 687 643 662 688 q 712 540 712 599 "},"ć":{"ha":779,"x_min":26,"x_max":712,"o":"m 681 1028 q 692 973 700 998 q 661 935 684 947 l 492 838 q 478 832 483 832 q 466 840 474 832 l 435 873 q 435 895 424 885 l 575 1038 q 610 1057 590 1053 q 650 1053 631 1060 q 681 1028 670 1045 m 712 540 q 695 471 712 497 q 652 434 678 445 q 601 423 627 423 q 541 443 567 423 q 515 506 515 464 q 527 548 515 533 q 550 576 538 564 q 561 604 561 589 q 545 647 561 631 q 487 663 530 663 q 375 629 428 663 q 281 536 322 595 q 216 401 240 477 q 192 240 192 325 q 202 149 192 189 q 236 87 212 110 q 306 65 261 65 q 402 88 356 65 q 486 148 448 112 q 549 223 524 185 q 561 236 556 233 q 583 240 567 240 l 612 240 q 640 236 633 240 q 639 217 647 231 q 555 106 606 159 q 435 18 503 52 q 283 -16 367 -16 q 146 10 203 -16 q 57 92 88 35 q 26 240 26 148 q 64 435 26 344 q 166 593 101 525 q 311 700 230 662 q 478 738 392 738 q 610 713 559 738 q 687 643 662 688 q 712 540 712 599 "},"ĉ":{"ha":779,"x_min":26,"x_max":712,"o":"m 317 849 l 301 870 q 295 881 294 878 q 305 892 296 884 l 465 1029 q 482 1039 474 1037 q 504 1041 489 1041 l 573 1041 q 592 1038 587 1041 q 603 1029 598 1035 l 706 890 q 709 882 709 885 q 702 874 709 879 l 678 852 q 666 844 669 844 q 656 851 663 845 l 548 947 q 513 947 533 960 l 341 845 q 327 841 332 840 q 317 849 322 842 m 712 540 q 695 471 712 497 q 652 434 678 445 q 601 423 627 423 q 541 443 567 423 q 515 506 515 464 q 527 548 515 533 q 550 576 538 564 q 561 604 561 589 q 545 647 561 631 q 487 663 530 663 q 375 629 428 663 q 281 536 322 595 q 216 401 240 477 q 192 240 192 325 q 202 149 192 189 q 236 87 212 110 q 306 65 261 65 q 402 88 356 65 q 486 148 448 112 q 549 223 524 185 q 561 236 556 233 q 583 240 567 240 l 612 240 q 640 236 633 240 q 639 217 647 231 q 555 106 606 159 q 435 18 503 52 q 283 -16 367 -16 q 146 10 203 -16 q 57 92 88 35 q 26 240 26 148 q 64 435 26 344 q 166 593 101 525 q 311 700 230 662 q 478 738 392 738 q 610 713 559 738 q 687 643 662 688 q 712 540 712 599 "},"ċ":{"ha":779,"x_min":26,"x_max":712,"o":"m 518 881 q 455 908 481 881 q 428 972 428 935 q 455 1036 428 1010 q 518 1063 481 1063 q 583 1036 556 1063 q 609 972 609 1010 q 583 908 609 935 q 518 881 556 881 m 712 540 q 695 471 712 497 q 652 434 678 445 q 601 423 627 423 q 541 443 567 423 q 515 506 515 464 q 527 548 515 533 q 550 576 538 564 q 561 604 561 589 q 545 647 561 631 q 487 663 530 663 q 375 629 428 663 q 281 536 322 595 q 216 401 240 477 q 192 240 192 325 q 202 149 192 189 q 236 87 212 110 q 306 65 261 65 q 402 88 356 65 q 486 148 448 112 q 549 223 524 185 q 561 236 556 233 q 583 240 567 240 l 612 240 q 640 236 633 240 q 639 217 647 231 q 555 106 606 159 q 435 18 503 52 q 283 -16 367 -16 q 146 10 203 -16 q 57 92 88 35 q 26 240 26 148 q 64 435 26 344 q 166 593 101 525 q 311 700 230 662 q 478 738 392 738 q 610 713 559 738 q 687 643 662 688 q 712 540 712 599 "},"č":{"ha":779,"x_min":26,"x_max":735,"o":"m 421 869 l 331 994 q 324 1008 324 1003 q 335 1020 324 1013 l 356 1036 q 373 1043 368 1044 q 388 1035 377 1042 l 483 960 q 514 947 499 947 q 551 960 529 947 l 688 1043 q 705 1049 700 1051 q 716 1038 709 1047 l 726 1026 q 734 1011 734 1017 q 724 997 735 1006 l 571 865 q 556 853 563 858 q 533 849 549 849 l 467 849 q 437 855 447 849 q 421 869 428 860 m 712 540 q 695 471 712 497 q 652 434 678 445 q 601 423 627 423 q 541 443 567 423 q 515 506 515 464 q 527 548 515 533 q 550 576 538 564 q 561 604 561 589 q 545 647 561 631 q 487 663 530 663 q 375 629 428 663 q 281 536 322 595 q 216 401 240 477 q 192 240 192 325 q 202 149 192 189 q 236 87 212 110 q 306 65 261 65 q 402 88 356 65 q 486 148 448 112 q 549 223 524 185 q 561 236 556 233 q 583 240 567 240 l 612 240 q 640 236 633 240 q 639 217 647 231 q 555 106 606 159 q 435 18 503 52 q 283 -16 367 -16 q 146 10 203 -16 q 57 92 88 35 q 26 240 26 148 q 64 435 26 344 q 166 593 101 525 q 311 700 230 662 q 478 738 392 738 q 610 713 559 738 q 687 643 662 688 q 712 540 712 599 "},"d":{"ha":926,"x_min":26,"x_max":882,"o":"m 580 444 q 572 548 580 500 q 538 624 565 595 q 455 653 512 653 q 367 618 413 653 q 281 525 321 583 q 216 395 241 467 q 191 250 191 324 q 218 117 191 165 q 307 69 245 69 q 398 104 351 69 q 487 196 446 139 q 554 318 528 253 q 580 444 580 384 m 877 209 q 767 47 835 110 q 621 -17 699 -17 q 542 7 570 -17 q 510 71 513 30 q 512 96 509 86 q 515 112 515 106 q 515 131 520 131 q 496 115 510 132 q 385 21 447 58 q 255 -16 323 -16 q 140 9 192 -16 q 57 92 88 34 q 26 248 26 150 q 52 407 26 333 q 123 542 79 481 q 220 646 167 602 q 328 713 274 690 q 429 737 383 737 q 544 707 504 737 q 605 627 583 677 q 618 606 614 606 q 627 625 623 606 l 705 968 q 707 989 708 981 q 688 997 706 997 l 606 997 q 590 1002 594 997 q 587 1020 587 1007 l 587 1058 q 590 1078 587 1072 q 606 1083 592 1083 l 844 1083 q 875 1079 869 1083 q 877 1056 881 1075 l 659 135 q 657 123 658 130 q 656 110 656 116 q 681 85 656 85 q 752 130 713 85 q 816 238 790 174 q 822 249 819 247 q 833 247 824 251 l 869 233 q 880 225 878 229 q 877 209 882 221 "},"ď":{"ha":1076,"x_min":26,"x_max":1156,"o":"m 940 990 q 970 1057 940 1030 q 1044 1083 1001 1083 q 1100 1068 1074 1083 q 1140 1021 1125 1053 q 1156 941 1156 990 q 1133 850 1156 892 q 1074 775 1111 808 q 993 723 1038 742 q 902 699 948 703 q 889 699 893 698 q 885 711 885 701 l 885 747 q 890 759 885 757 q 902 763 894 762 q 975 787 935 767 q 1044 838 1015 806 q 1074 907 1074 869 q 1070 915 1075 917 q 1058 910 1065 914 q 1039 902 1049 905 q 1015 900 1029 900 q 959 926 978 900 q 940 990 940 951 m 580 444 q 572 548 580 500 q 538 624 565 595 q 455 653 512 653 q 367 618 413 653 q 281 525 321 583 q 216 395 241 467 q 191 250 191 324 q 218 117 191 165 q 307 69 245 69 q 398 104 351 69 q 487 196 446 139 q 554 318 528 253 q 580 444 580 384 m 877 209 q 767 47 835 110 q 621 -17 699 -17 q 542 7 570 -17 q 510 71 513 30 q 512 96 509 86 q 515 112 515 106 q 515 131 520 131 q 496 115 510 132 q 385 21 447 58 q 255 -16 323 -16 q 140 9 192 -16 q 57 92 88 34 q 26 248 26 150 q 52 407 26 333 q 123 542 79 481 q 220 646 167 602 q 328 713 274 690 q 429 737 383 737 q 544 707 504 737 q 605 627 583 677 q 618 606 614 606 q 627 625 623 606 l 705 968 q 707 989 708 981 q 688 997 706 997 l 606 997 q 590 1002 594 997 q 587 1020 587 1007 l 587 1058 q 590 1078 587 1072 q 606 1083 592 1083 l 844 1083 q 875 1079 869 1083 q 877 1056 881 1075 l 659 135 q 657 123 658 130 q 656 110 656 116 q 681 85 656 85 q 752 130 713 85 q 816 238 790 174 q 822 249 819 247 q 833 247 824 251 l 869 233 q 880 225 878 229 q 877 209 882 221 "},"e":{"ha":761,"x_min":26,"x_max":722,"o":"m 26 240 q 65 433 26 343 q 170 592 104 523 q 318 699 236 660 q 483 738 399 738 q 663 697 605 738 q 722 570 722 656 q 689 460 722 506 q 602 383 656 414 q 483 334 548 353 q 351 307 417 316 q 229 294 285 297 q 199 281 207 292 q 192 239 192 269 q 221 113 192 162 q 318 65 251 65 q 412 89 369 65 q 491 150 456 113 q 551 226 526 187 q 563 238 557 235 q 586 240 569 240 l 618 240 q 644 236 640 240 q 638 215 648 231 q 557 105 606 158 q 443 18 508 52 q 294 -16 377 -16 q 155 10 215 -16 q 60 92 95 35 q 26 240 26 148 m 241 365 q 351 384 294 371 q 457 420 408 397 q 537 480 506 443 q 568 571 568 517 q 546 644 568 625 q 481 663 524 663 q 376 631 428 663 q 284 541 325 598 q 218 408 242 483 q 213 372 210 383 q 241 365 216 361 "},"è":{"ha":761,"x_min":26,"x_max":722,"o":"m 309 1028 q 340 1053 321 1045 q 381 1057 360 1060 q 415 1038 401 1053 l 554 897 q 555 872 567 884 l 524 839 q 514 831 518 833 q 503 835 510 830 l 329 935 q 298 973 306 948 q 309 1028 290 998 m 26 240 q 65 433 26 343 q 170 592 104 523 q 318 699 236 660 q 483 738 399 738 q 663 697 605 738 q 722 570 722 656 q 689 460 722 506 q 602 383 656 414 q 483 334 548 353 q 351 307 417 316 q 229 294 285 297 q 199 281 207 292 q 192 239 192 269 q 221 113 192 162 q 318 65 251 65 q 412 89 369 65 q 491 150 456 113 q 551 226 526 187 q 563 238 557 235 q 586 240 569 240 l 618 240 q 644 236 640 240 q 638 215 648 231 q 557 105 606 158 q 443 18 508 52 q 294 -16 377 -16 q 155 10 215 -16 q 60 92 95 35 q 26 240 26 148 m 241 365 q 351 384 294 371 q 457 420 408 397 q 537 480 506 443 q 568 571 568 517 q 546 644 568 625 q 481 663 524 663 q 376 631 428 663 q 284 541 325 598 q 218 408 242 483 q 213 372 210 383 q 241 365 216 361 "},"é":{"ha":761,"x_min":26,"x_max":722,"o":"m 663 1028 q 674 973 682 998 q 643 935 666 947 l 474 838 q 460 832 465 832 q 448 840 456 832 l 417 873 q 417 895 406 885 l 557 1038 q 592 1057 572 1053 q 632 1053 613 1060 q 663 1028 652 1045 m 26 240 q 65 433 26 343 q 170 592 104 523 q 318 699 236 660 q 483 738 399 738 q 663 697 605 738 q 722 570 722 656 q 689 460 722 506 q 602 383 656 414 q 483 334 548 353 q 351 307 417 316 q 229 294 285 297 q 199 281 207 292 q 192 239 192 269 q 221 113 192 162 q 318 65 251 65 q 412 89 369 65 q 491 150 456 113 q 551 226 526 187 q 563 238 557 235 q 586 240 569 240 l 618 240 q 644 236 640 240 q 638 215 648 231 q 557 105 606 158 q 443 18 508 52 q 294 -16 377 -16 q 155 10 215 -16 q 60 92 95 35 q 26 240 26 148 m 241 365 q 351 384 294 371 q 457 420 408 397 q 537 480 506 443 q 568 571 568 517 q 546 644 568 625 q 481 663 524 663 q 376 631 428 663 q 284 541 325 598 q 218 408 242 483 q 213 372 210 383 q 241 365 216 361 "},"ê":{"ha":761,"x_min":26,"x_max":722,"o":"m 299 849 l 283 870 q 277 881 276 878 q 287 892 278 884 l 447 1029 q 464 1039 456 1037 q 486 1041 471 1041 l 555 1041 q 574 1038 569 1041 q 585 1029 580 1035 l 688 890 q 691 882 691 885 q 684 874 691 879 l 660 852 q 648 844 651 844 q 638 851 645 845 l 530 947 q 495 947 515 960 l 323 845 q 309 841 314 840 q 299 849 304 842 m 26 240 q 65 433 26 343 q 170 592 104 523 q 318 699 236 660 q 483 738 399 738 q 663 697 605 738 q 722 570 722 656 q 689 460 722 506 q 602 383 656 414 q 483 334 548 353 q 351 307 417 316 q 229 294 285 297 q 199 281 207 292 q 192 239 192 269 q 221 113 192 162 q 318 65 251 65 q 412 89 369 65 q 491 150 456 113 q 551 226 526 187 q 563 238 557 235 q 586 240 569 240 l 618 240 q 644 236 640 240 q 638 215 648 231 q 557 105 606 158 q 443 18 508 52 q 294 -16 377 -16 q 155 10 215 -16 q 60 92 95 35 q 26 240 26 148 m 241 365 q 351 384 294 371 q 457 420 408 397 q 537 480 506 443 q 568 571 568 517 q 546 644 568 625 q 481 663 524 663 q 376 631 428 663 q 284 541 325 598 q 218 408 242 483 q 213 372 210 383 q 241 365 216 361 "},"ë":{"ha":761,"x_min":26,"x_max":722,"o":"m 613 854 q 559 876 581 854 q 537 931 537 899 q 559 984 537 962 q 613 1007 581 1007 q 667 984 644 1007 q 689 931 689 962 q 667 876 689 899 q 613 854 644 854 m 367 854 q 313 876 335 854 q 291 931 291 899 q 313 984 291 962 q 367 1007 335 1007 q 421 984 399 1007 q 443 931 443 962 q 421 876 443 899 q 367 854 399 854 m 26 240 q 65 433 26 343 q 170 592 104 523 q 318 699 236 660 q 483 738 399 738 q 663 697 605 738 q 722 570 722 656 q 689 460 722 506 q 602 383 656 414 q 483 334 548 353 q 351 307 417 316 q 229 294 285 297 q 199 281 207 292 q 192 239 192 269 q 221 113 192 162 q 318 65 251 65 q 412 89 369 65 q 491 150 456 113 q 551 226 526 187 q 563 238 557 235 q 586 240 569 240 l 618 240 q 644 236 640 240 q 638 215 648 231 q 557 105 606 158 q 443 18 508 52 q 294 -16 377 -16 q 155 10 215 -16 q 60 92 95 35 q 26 240 26 148 m 241 365 q 351 384 294 371 q 457 420 408 397 q 537 480 506 443 q 568 571 568 517 q 546 644 568 625 q 481 663 524 663 q 376 631 428 663 q 284 541 325 598 q 218 408 242 483 q 213 372 210 383 q 241 365 216 361 "},"ē":{"ha":761,"x_min":26,"x_max":722,"o":"m 315 865 l 315 897 q 317 911 315 907 q 328 916 319 916 l 624 916 q 643 912 638 916 q 648 894 648 908 l 648 863 q 646 847 648 852 q 633 842 644 842 l 339 842 q 320 846 326 842 q 315 865 315 850 m 26 240 q 65 433 26 343 q 170 592 104 523 q 318 699 236 660 q 483 738 399 738 q 663 697 605 738 q 722 570 722 656 q 689 460 722 506 q 602 383 656 414 q 483 334 548 353 q 351 307 417 316 q 229 294 285 297 q 199 281 207 292 q 192 239 192 269 q 221 113 192 162 q 318 65 251 65 q 412 89 369 65 q 491 150 456 113 q 551 226 526 187 q 563 238 557 235 q 586 240 569 240 l 618 240 q 644 236 640 240 q 638 215 648 231 q 557 105 606 158 q 443 18 508 52 q 294 -16 377 -16 q 155 10 215 -16 q 60 92 95 35 q 26 240 26 148 m 241 365 q 351 384 294 371 q 457 420 408 397 q 537 480 506 443 q 568 571 568 517 q 546 644 568 625 q 481 663 524 663 q 376 631 428 663 q 284 541 325 598 q 218 408 242 483 q 213 372 210 383 q 241 365 216 361 "},"ĕ":{"ha":761,"x_min":26,"x_max":722,"o":"m 487 842 q 386 863 419 842 q 346 924 353 885 q 350 1017 339 964 q 369 1031 353 1031 l 388 1031 q 399 1019 400 1031 q 417 955 393 976 q 491 933 440 933 q 573 952 539 933 q 621 1010 606 972 q 626 1025 624 1020 q 640 1031 627 1031 l 667 1031 q 680 1027 678 1031 q 678 1014 681 1024 q 613 889 658 935 q 487 842 568 842 m 26 240 q 65 433 26 343 q 170 592 104 523 q 318 699 236 660 q 483 738 399 738 q 663 697 605 738 q 722 570 722 656 q 689 460 722 506 q 602 383 656 414 q 483 334 548 353 q 351 307 417 316 q 229 294 285 297 q 199 281 207 292 q 192 239 192 269 q 221 113 192 162 q 318 65 251 65 q 412 89 369 65 q 491 150 456 113 q 551 226 526 187 q 563 238 557 235 q 586 240 569 240 l 618 240 q 644 236 640 240 q 638 215 648 231 q 557 105 606 158 q 443 18 508 52 q 294 -16 377 -16 q 155 10 215 -16 q 60 92 95 35 q 26 240 26 148 m 241 365 q 351 384 294 371 q 457 420 408 397 q 537 480 506 443 q 568 571 568 517 q 546 644 568 625 q 481 663 524 663 q 376 631 428 663 q 284 541 325 598 q 218 408 242 483 q 213 372 210 383 q 241 365 216 361 "},"ė":{"ha":761,"x_min":26,"x_max":722,"o":"m 500 881 q 436 908 463 881 q 410 972 410 935 q 436 1036 410 1010 q 500 1063 463 1063 q 565 1036 538 1063 q 591 972 591 1010 q 565 908 591 935 q 500 881 538 881 m 26 240 q 65 433 26 343 q 170 592 104 523 q 318 699 236 660 q 483 738 399 738 q 663 697 605 738 q 722 570 722 656 q 689 460 722 506 q 602 383 656 414 q 483 334 548 353 q 351 307 417 316 q 229 294 285 297 q 199 281 207 292 q 192 239 192 269 q 221 113 192 162 q 318 65 251 65 q 412 89 369 65 q 491 150 456 113 q 551 226 526 187 q 563 238 557 235 q 586 240 569 240 l 618 240 q 644 236 640 240 q 638 215 648 231 q 557 105 606 158 q 443 18 508 52 q 294 -16 377 -16 q 155 10 215 -16 q 60 92 95 35 q 26 240 26 148 m 241 365 q 351 384 294 371 q 457 420 408 397 q 537 480 506 443 q 568 571 568 517 q 546 644 568 625 q 481 663 524 663 q 376 631 428 663 q 284 541 325 598 q 218 408 242 483 q 213 372 210 383 q 241 365 216 361 "},"ę":{"ha":761,"x_min":26,"x_max":722,"o":"m 409 -223 q 335 -213 368 -223 q 285 -179 301 -203 q 276 -115 268 -155 q 305 -55 281 -84 q 364 1 329 -26 q 435 50 398 27 q 504 92 472 73 q 528 100 517 99 q 541 96 538 101 q 542 82 547 89 q 528 65 538 74 q 486 24 508 47 q 447 -24 464 1 q 422 -78 429 -49 q 427 -125 417 -104 q 473 -147 438 -147 q 519 -134 499 -147 q 554 -106 539 -122 q 575 -101 566 -92 l 588 -112 q 592 -121 593 -117 q 586 -132 592 -124 q 515 -197 557 -170 q 409 -223 474 -223 m 26 240 q 65 433 26 343 q 170 592 104 523 q 318 699 236 660 q 483 738 399 738 q 663 697 605 738 q 722 570 722 656 q 689 460 722 506 q 602 383 656 414 q 483 334 548 353 q 351 307 417 316 q 229 294 285 297 q 199 281 207 292 q 192 239 192 269 q 221 113 192 162 q 318 65 251 65 q 412 89 369 65 q 491 150 456 113 q 551 226 526 187 q 563 238 557 235 q 586 240 569 240 l 618 240 q 644 236 640 240 q 638 215 648 231 q 557 105 606 158 q 443 18 508 52 q 294 -16 377 -16 q 155 10 215 -16 q 60 92 95 35 q 26 240 26 148 m 241 365 q 351 384 294 371 q 457 420 408 397 q 537 480 506 443 q 568 571 568 517 q 546 644 568 625 q 481 663 524 663 q 376 631 428 663 q 284 541 325 598 q 218 408 242 483 q 213 372 210 383 q 241 365 216 361 "}}}
